<?xml version="1.0" encoding="utf-8"?>
<!-- Generator: Adobe Illustrator 27.5.0, SVG Export Plug-In . SVG Version: 6.00 Build 0)  -->
<svg version="1.1" xmlns="http://www.w3.org/2000/svg" xmlns:xlink="http://www.w3.org/1999/xlink" x="0px" y="0px"
	 viewBox="0 0 500 500" style="enable-background:new 0 0 500 500;" xml:space="preserve">
<g id="BACKGROUND">
	<g>
		<rect style="fill:#FFA6BB;" width="500" height="500"/>
		<g>
			<path style="fill:#D7E5FF;" d="M89.283,47.562c-0.023-0.06-0.069-0.102-0.109-0.149c-0.003-0.015-0.007-0.03-0.01-0.045
				c-0.018-0.146-0.036-0.292-0.054-0.439c0.002-0.051-0.011-0.098-0.037-0.14c-0.019-0.047-0.049-0.086-0.09-0.117
				c-0.079-0.067-0.203-0.111-0.307-0.107c-0.108,0.004-0.225,0.031-0.307,0.107c-0.023,0.025-0.045,0.049-0.068,0.074
				c-0.039,0.055-0.058,0.116-0.059,0.184c-0.018,0.146-0.036,0.292-0.054,0.438c0,0.002-0.001,0.004-0.001,0.006
				c-0.052,0.055-0.095,0.118-0.117,0.188c-0.03,0.094-0.03,0.187,0,0.281c0.021,0.071,0.059,0.131,0.113,0.18
				c0.047,0.06,0.106,0.105,0.176,0.136c0.1,0.048,0.206,0.072,0.317,0.072c0.163,0,0.317-0.055,0.445-0.155
				C89.268,47.961,89.352,47.741,89.283,47.562z"/>
			<path style="fill:#D7E5FF;" d="M169.837,42.823c-0.037-0.106-0.098-0.194-0.184-0.266c-0.184-0.171-0.419-0.235-0.665-0.228
				c-0.068,0.002-0.137,0.004-0.205,0.006c-0.137,0.004-0.273,0.008-0.41,0.012c-0.189,0.005-0.389,0.061-0.536,0.187
				c-0.072,0.055-0.124,0.123-0.157,0.205c-0.047,0.074-0.068,0.155-0.065,0.245c0.009,0.173,0.082,0.341,0.222,0.45
				c0.156,0.122,0.337,0.181,0.536,0.186c0.137,0.004,0.273,0.008,0.41,0.012c0.068,0.002,0.137,0.004,0.205,0.006
				c0.243,0.007,0.483-0.06,0.665-0.229c0.068-0.052,0.118-0.116,0.148-0.194c0.044-0.07,0.065-0.147,0.062-0.232
				C169.854,42.93,169.845,42.877,169.837,42.823z"/>
			<path style="fill:#D7E5FF;" d="M22.649,70.387c-0.11-0.084-0.22-0.17-0.335-0.247c-0.116-0.078-0.236-0.152-0.349-0.235
				c-0.221-0.164-0.434-0.341-0.651-0.511c-0.319-0.25-0.86-0.235-1.104,0.12c-0.089,0.13-0.12,0.304-0.071,0.455
				c0.073,0.225,0.276,0.352,0.491,0.413c0.14,0.039,0.28,0.079,0.42,0.118c0.039,0.011,0.413,0.132,0.421,0.118
				c-0.07-0.026-0.08-0.03-0.029-0.011c0.01,0.004,0.02,0.007,0.03,0.011c0.041,0.014,0.081,0.029,0.122,0.043
				c0.071,0.025,0.142,0.051,0.213,0.076c0.163,0.058,0.327,0.107,0.492,0.156c0.133,0.039,0.329-0.016,0.406-0.139
				C22.779,70.635,22.765,70.476,22.649,70.387z"/>
			<path style="fill:#D7E5FF;" d="M139.555,64.759c-0.115-0.081-0.225-0.165-0.367-0.198c-0.103-0.024-0.221-0.021-0.327-0.026
				l-0.426-0.019c-0.279-0.012-0.558-0.024-0.836-0.037c-0.169-0.007-0.374,0.065-0.503,0.175c-0.115,0.097-0.217,0.266-0.208,0.422
				c0.019,0.356,0.363,0.612,0.711,0.597c0.279-0.012,0.558-0.024,0.836-0.037c0.137-0.006,0.273-0.012,0.41-0.018
				c0.111-0.005,0.236-0.002,0.343-0.027c0.142-0.033,0.251-0.117,0.367-0.198C139.76,65.252,139.76,64.903,139.555,64.759z"/>
			<path style="fill:#D7E5FF;" d="M170.566,133.333c-0.069,0.002-0.137,0.004-0.205,0.006c-0.137,0.004-0.273,0.008-0.41,0.013
				c-0.111,0.003-0.228,0.036-0.315,0.109c-0.072,0.061-0.136,0.166-0.13,0.264c0.012,0.236,0.227,0.367,0.445,0.374
				c0.137,0.004,0.274,0.008,0.41,0.012c0.068,0.002,0.137,0.004,0.205,0.006c0.07,0.002,0.14-0.007,0.206-0.03
				c0.104-0.036,0.211-0.074,0.273-0.174c0.036-0.058,0.062-0.119,0.062-0.188C171.106,133.46,170.797,133.326,170.566,133.333z"/>
			<path style="fill:#D7E5FF;" d="M226.14,23.019c-0.08-0.033-0.16-0.072-0.245-0.085c-0.083-0.012-0.166-0.026-0.249-0.035
				c-0.152-0.017-0.307-0.015-0.46-0.02c-0.108-0.003-0.235,0.041-0.318,0.111c-0.072,0.062-0.137,0.168-0.132,0.267
				c0.012,0.227,0.229,0.385,0.449,0.377c0.153-0.005,0.308-0.002,0.46-0.02c0.081-0.009,0.161-0.022,0.242-0.034
				c0.089-0.013,0.17-0.052,0.253-0.086c0.092-0.038,0.163-0.138,0.163-0.238S226.232,23.057,226.14,23.019z"/>
			<path style="fill:#D7E5FF;" d="M427.537,37.954c-0.034-0.022-0.067-0.043-0.1-0.065c-0.079-0.038-0.163-0.057-0.25-0.057
				c-0.263-0.026-0.526-0.053-0.789-0.079c-0.08-0.003-0.156,0.011-0.227,0.043c-0.071,0.019-0.134,0.053-0.19,0.102
				c-0.095,0.081-0.18,0.22-0.173,0.35c0.007,0.135,0.064,0.265,0.173,0.35c0.04,0.026,0.08,0.052,0.119,0.077
				c0.094,0.045,0.193,0.068,0.298,0.068c0.263-0.026,0.526-0.052,0.789-0.079c0.067,0.003,0.131-0.009,0.191-0.036
				c0.06-0.016,0.113-0.045,0.16-0.086c0.08-0.068,0.151-0.185,0.145-0.295C427.676,38.136,427.628,38.026,427.537,37.954z"/>
			<path style="fill:#D7E5FF;" d="M441.067,154.639c-0.062-0.055-0.133-0.094-0.212-0.115c-0.08-0.035-0.165-0.051-0.254-0.048
				c-0.164,0.006-0.342,0.048-0.467,0.163c-0.112,0.103-0.194,0.234-0.193,0.392l0.002,0.394c0,0.063,0.001,0.126,0.001,0.189
				c0,0.031,0,0.063,0,0.095c0.001,0.083,0.014,0.156,0.028,0.24c0.022,0.044,0.044,0.087,0.066,0.131
				c0.044,0.066,0.1,0.117,0.168,0.154c0.042,0.035,0.09,0.058,0.144,0.07c0.079,0.035,0.163,0.05,0.251,0.047
				c0.114-0.004,0.225-0.028,0.329-0.075c0.074-0.032,0.135-0.079,0.183-0.141c0.056-0.05,0.095-0.113,0.117-0.186
				c0.013-0.081,0.027-0.153,0.027-0.232c0-0.032,0-0.063,0.001-0.095c0-0.066,0.001-0.132,0.001-0.197
				c0.001-0.132,0.001-0.263,0.002-0.394C441.261,154.881,441.178,154.734,441.067,154.639z"/>
			<path style="fill:#D7E5FF;" d="M400.004,64.257c-0.044-0.115-0.123-0.184-0.226-0.247c-0.248-0.153-0.496-0.306-0.745-0.459
				c-0.248-0.153-0.526-0.269-0.787-0.398c-0.133-0.066-0.305-0.083-0.448-0.049c-0.125,0.029-0.277,0.111-0.348,0.225
				c-0.157,0.253-0.049,0.538,0.209,0.669c0.26,0.132,0.519,0.285,0.79,0.394c0.277,0.111,0.555,0.222,0.832,0.333
				c0.123,0.049,0.247,0.073,0.379,0.042c0.106-0.025,0.234-0.094,0.294-0.19C400.012,64.481,400.045,64.365,400.004,64.257z"/>
			<path style="fill:#D7E5FF;" d="M451.479,81.428c-0.029-0.073-0.076-0.135-0.141-0.184c-0.064-0.057-0.137-0.096-0.219-0.118
				c-0.083-0.036-0.17-0.053-0.262-0.049c-0.169,0.006-0.353,0.049-0.481,0.167c-0.109,0.101-0.213,0.246-0.199,0.404
				c0.012,0.132,0.023,0.263,0.035,0.395c0.009,0.102,0.006,0.219,0.052,0.311c0.007,0.014,0.014,0.028,0.021,0.042
				c0.005,0.009,0.009,0.019,0.014,0.028c0.019,0.039,0.039,0.077,0.058,0.116c0.02,0.027,0.047,0.051,0.069,0.076
				c0.047,0.065,0.106,0.115,0.179,0.15c0.079,0.038,0.163,0.057,0.251,0.057c0.088,0,0.172-0.019,0.251-0.057
				c0.072-0.035,0.132-0.085,0.179-0.15c0.021-0.024,0.044-0.047,0.064-0.071c0.038-0.044,0.066-0.127,0.095-0.185
				c0.034-0.069,0.04-0.147,0.047-0.223c0.003-0.032,0.006-0.063,0.008-0.095c0.012-0.132,0.023-0.263,0.035-0.395
				C451.54,81.567,451.521,81.494,451.479,81.428z"/>
			<path style="fill:#D7E5FF;" d="M421.053,195.096c-0.064-0.047-0.127-0.076-0.199-0.106c-0.039-0.017-0.08-0.032-0.12-0.044
				c-0.047-0.014-0.097-0.016-0.146-0.018c-0.033-0.001-0.067-0.002-0.101-0.003c-0.134-0.004-0.268-0.008-0.402-0.012
				c-0.103-0.003-0.225,0.039-0.304,0.106c-0.069,0.059-0.131,0.161-0.126,0.255c0.012,0.217,0.219,0.367,0.43,0.361
				c0.134-0.004,0.268-0.008,0.402-0.012c0.031-0.001,0.062-0.002,0.093-0.003c0.049-0.001,0.099-0.004,0.147-0.016
				c0.044-0.01,0.086-0.029,0.127-0.047c0.072-0.031,0.135-0.059,0.199-0.106C421.166,195.367,421.166,195.18,421.053,195.096z"/>
			<path style="fill:#D7E5FF;" d="M465.374,232.09c-0.027-0.039-0.063-0.075-0.094-0.111c-0.082-0.097-0.174-0.187-0.261-0.279
				c-0.134-0.14-0.268-0.28-0.401-0.419c-0.046-0.041-0.099-0.069-0.157-0.085c-0.059-0.026-0.122-0.038-0.188-0.035
				c-0.114,0-0.259,0.04-0.345,0.12c-0.08,0.074-0.149,0.175-0.143,0.29c0.006,0.118,0.058,0.208,0.143,0.29
				c0.138,0.133,0.277,0.265,0.415,0.398c0.068,0.065,0.134,0.134,0.206,0.195c0.036,0.031,0.072,0.063,0.109,0.092
				c0.069,0.054,0.148,0.089,0.233,0.109c0.023,0.005,0.046,0.01,0.069,0.016c0.116,0.026,0.234,0.007,0.334-0.058
				c0.08-0.052,0.162-0.148,0.151-0.252C465.434,232.266,465.429,232.169,465.374,232.09z"/>
			<path style="fill:#D7E5FF;" d="M410.177,374.885c-0.09-0.077-0.232-0.126-0.351-0.122c-0.124,0.005-0.257,0.036-0.351,0.122
				c-0.079,0.073-0.157,0.18-0.145,0.295c0.026,0.263,0.052,0.526,0.078,0.789c0.01,0.1,0.044,0.182,0.122,0.248
				c0.076,0.065,0.196,0.107,0.296,0.103c0.104-0.004,0.217-0.03,0.296-0.103l0.065-0.071c0.037-0.053,0.056-0.112,0.057-0.177
				c0.026-0.263,0.052-0.526,0.078-0.789C410.333,375.074,410.253,374.95,410.177,374.885z"/>
			<path style="fill:#D7E5FF;" d="M308.41,377.248c-0.047-0.066-0.107-0.125-0.161-0.186c-0.081-0.093-0.17-0.177-0.259-0.263
				c-0.122-0.119-0.245-0.238-0.367-0.356c-0.05-0.044-0.107-0.075-0.171-0.092c-0.065-0.028-0.133-0.041-0.205-0.039
				c-0.124,0-0.282,0.044-0.376,0.131c-0.087,0.081-0.162,0.191-0.156,0.316c0.006,0.039,0.013,0.079,0.019,0.119
				c0.027,0.078,0.073,0.144,0.137,0.197l0.443,0.456c0.074,0.076,0.153,0.144,0.232,0.214c0.01,0.009,0.02,0.018,0.03,0.026
				c0.057,0.046,0.113,0.076,0.181,0.1c0.064,0.028,0.13,0.04,0.201,0.038c0.046-0.005,0.092-0.01,0.139-0.016
				c0.006-0.002,0.011-0.004,0.017-0.006c0.006-0.002,0.011-0.004,0.017-0.006c0.035-0.012,0.07-0.025,0.105-0.037
				c0.049-0.022,0.091-0.053,0.123-0.095c0.018-0.02,0.034-0.037,0.05-0.058C308.507,377.564,308.501,377.376,308.41,377.248z"/>
			<path style="fill:#D7E5FF;" d="M209.978,266.199c0-0.047-0.014-0.09-0.041-0.129c-0.011-0.023-0.022-0.045-0.034-0.068
				c-0.011-0.019-0.023-0.038-0.036-0.057c-0.039-0.056-0.092-0.104-0.14-0.153c-0.016-0.017-0.033-0.034-0.049-0.051
				c-0.067-0.069-0.135-0.139-0.202-0.208c-0.135-0.139-0.27-0.278-0.405-0.417c-0.061-0.054-0.13-0.091-0.207-0.112
				c-0.078-0.034-0.161-0.05-0.248-0.047c-0.087-0.003-0.17,0.012-0.248,0.047c-0.077,0.021-0.146,0.058-0.208,0.112
				c-0.106,0.098-0.197,0.231-0.189,0.383c0.008,0.048,0.015,0.096,0.023,0.144c0.033,0.095,0.088,0.175,0.166,0.239
				c0.137,0.133,0.275,0.267,0.412,0.4c0.068,0.066,0.135,0.132,0.203,0.197c0.033,0.032,0.066,0.07,0.102,0.098
				c0.019,0.015,0.04,0.027,0.061,0.041c0.044,0.03,0.09,0.063,0.137,0.088c0.071,0.038,0.146,0.058,0.226,0.061
				c0.03,0.008,0.061,0.01,0.092,0.009c0.053-0.006,0.105-0.012,0.158-0.018c0.075-0.014,0.142-0.044,0.202-0.089
				c0.043-0.021,0.079-0.051,0.107-0.089c0.051-0.046,0.086-0.102,0.106-0.17C209.989,266.322,209.991,266.279,209.978,266.199z"/>
			<path style="fill:#D7E5FF;" d="M169.832,88.512c-0.031-0.079-0.082-0.146-0.152-0.198c-0.07-0.062-0.148-0.104-0.236-0.128
				c-0.089-0.039-0.184-0.057-0.283-0.053c-0.183,0.007-0.381,0.053-0.519,0.181c-0.12,0.111-0.225,0.264-0.215,0.436
				c0.006,0.116,0.013,0.231,0.019,0.347l0.01,0.174c0.001,0.026,0.003,0.053,0.004,0.079c0.003,0.062,0.005,0.132,0.027,0.188
				c0.023,0.047,0.047,0.094,0.071,0.14c0.039,0.043,0.078,0.086,0.118,0.128c0.065,0.058,0.139,0.097,0.221,0.119
				c0.084,0.037,0.172,0.053,0.265,0.05c0.061-0.007,0.122-0.014,0.183-0.021c0.113-0.026,0.214-0.075,0.304-0.149
				c0.076-0.081,0.158-0.154,0.188-0.268c0.015-0.056,0.023-0.122,0.026-0.18l0.005-0.087c0.003-0.058,0.006-0.116,0.01-0.174
				c0.006-0.116,0.013-0.231,0.019-0.347C169.899,88.662,169.878,88.583,169.832,88.512z"/>
			<path style="fill:#D7E5FF;" d="M98.524,34.735c-0.041-0.026-0.081-0.053-0.122-0.079c-0.096-0.046-0.197-0.069-0.304-0.069
				c-0.064-0.006-0.125-0.008-0.189-0.004c-0.061,0.003-0.121,0.007-0.182,0.01c-0.124,0.007-0.247,0.014-0.371,0.021
				c-0.145,0.008-0.29,0.044-0.403,0.14c-0.092,0.078-0.174,0.213-0.167,0.339c0.007,0.13,0.062,0.257,0.167,0.339
				c0.038,0.025,0.077,0.05,0.115,0.075c0.091,0.044,0.187,0.066,0.288,0.065c0.124,0.007,0.247,0.014,0.371,0.021
				c0.061,0.003,0.121,0.007,0.182,0.01c0.064,0.004,0.125,0.001,0.189-0.004c0.081,0.003,0.159-0.012,0.232-0.044
				c0.072-0.019,0.137-0.054,0.194-0.105c0.097-0.082,0.184-0.225,0.176-0.358C98.693,34.955,98.635,34.822,98.524,34.735z"/>
			<path style="fill:#D7E5FF;" d="M70.528,73.942c-0.906,0-0.908,1.207,0,1.207C71.434,75.15,71.437,73.942,70.528,73.942z"/>
			<path style="fill:#D7E5FF;" d="M117.63,160.947c-0.023-0.06-0.069-0.102-0.109-0.149c-0.003-0.015-0.007-0.03-0.01-0.045
				c-0.018-0.146-0.036-0.292-0.054-0.439c0.002-0.051-0.011-0.098-0.037-0.14c-0.019-0.047-0.048-0.086-0.09-0.117
				c-0.079-0.067-0.203-0.111-0.307-0.107c-0.108,0.004-0.225,0.031-0.307,0.107c-0.022,0.025-0.045,0.049-0.068,0.074
				c-0.039,0.055-0.059,0.117-0.059,0.184c-0.018,0.146-0.036,0.292-0.054,0.438c-0.001,0.002-0.001,0.004-0.001,0.006
				c-0.052,0.055-0.095,0.118-0.117,0.188c-0.03,0.094-0.03,0.187,0,0.281c0.021,0.071,0.059,0.131,0.113,0.18
				c0.047,0.06,0.105,0.105,0.176,0.136c0.1,0.048,0.206,0.072,0.317,0.072c0.163,0,0.317-0.055,0.445-0.155
				C117.615,161.347,117.698,161.127,117.63,160.947z"/>
			<path style="fill:#D7E5FF;" d="M198.183,156.209c-0.037-0.106-0.098-0.194-0.184-0.266c-0.184-0.171-0.42-0.236-0.665-0.229
				c-0.068,0.002-0.137,0.004-0.205,0.006c-0.137,0.004-0.273,0.008-0.41,0.012c-0.19,0.006-0.389,0.061-0.536,0.187
				c-0.072,0.055-0.124,0.123-0.157,0.205c-0.047,0.074-0.068,0.156-0.065,0.245c0.009,0.173,0.082,0.341,0.222,0.45
				c0.156,0.122,0.337,0.181,0.536,0.187c0.137,0.004,0.274,0.008,0.41,0.012c0.068,0.002,0.137,0.004,0.205,0.006
				c0.243,0.007,0.483-0.06,0.665-0.228c0.068-0.052,0.118-0.116,0.148-0.194c0.044-0.07,0.065-0.147,0.062-0.232
				C198.2,156.316,198.192,156.263,198.183,156.209z"/>
			<path style="fill:#D7E5FF;" d="M50.996,183.773c-0.11-0.085-0.22-0.17-0.335-0.247c-0.116-0.078-0.237-0.152-0.349-0.236
				c-0.221-0.164-0.434-0.341-0.651-0.51c-0.319-0.25-0.86-0.235-1.104,0.119c-0.089,0.13-0.12,0.304-0.071,0.455
				c0.073,0.224,0.276,0.352,0.491,0.412c0.14,0.04,0.28,0.079,0.421,0.118c0.039,0.011,0.413,0.132,0.421,0.118
				c-0.07-0.026-0.08-0.03-0.029-0.012c0.01,0.004,0.02,0.007,0.03,0.011c0.041,0.014,0.081,0.029,0.122,0.043
				c0.071,0.025,0.142,0.05,0.213,0.076c0.163,0.058,0.326,0.107,0.492,0.156c0.133,0.039,0.329-0.016,0.406-0.139
				C51.125,184.021,51.111,183.862,50.996,183.773z"/>
			<path style="fill:#D7E5FF;" d="M167.902,178.145c-0.116-0.081-0.225-0.165-0.367-0.198c-0.103-0.024-0.221-0.021-0.327-0.026
				l-0.426-0.019c-0.279-0.012-0.558-0.024-0.837-0.037c-0.169-0.007-0.374,0.066-0.503,0.175c-0.115,0.097-0.217,0.266-0.208,0.422
				c0.019,0.356,0.363,0.613,0.711,0.597c0.279-0.012,0.558-0.025,0.837-0.037c0.137-0.006,0.273-0.012,0.41-0.018
				c0.111-0.005,0.236-0.002,0.343-0.027c0.142-0.033,0.251-0.117,0.367-0.198C168.106,178.638,168.106,178.289,167.902,178.145z"/>
			<path style="fill:#D7E5FF;" d="M198.912,246.719c-0.068,0.002-0.137,0.004-0.205,0.006c-0.137,0.004-0.273,0.008-0.41,0.012
				c-0.111,0.003-0.228,0.036-0.315,0.11c-0.072,0.061-0.136,0.166-0.13,0.264c0.013,0.236,0.227,0.367,0.445,0.374
				c0.137,0.004,0.274,0.008,0.41,0.012c0.068,0.002,0.137,0.004,0.205,0.006c0.07,0.002,0.14-0.007,0.206-0.03
				c0.104-0.036,0.21-0.074,0.273-0.174c0.036-0.058,0.062-0.119,0.062-0.188C199.453,246.846,199.143,246.712,198.912,246.719z"/>
			<path style="fill:#D7E5FF;" d="M254.486,136.405c-0.08-0.033-0.16-0.072-0.245-0.085c-0.083-0.012-0.166-0.026-0.249-0.035
				c-0.152-0.017-0.307-0.015-0.46-0.02c-0.108-0.004-0.235,0.041-0.318,0.111c-0.072,0.061-0.137,0.168-0.132,0.267
				c0.012,0.227,0.229,0.385,0.449,0.377c0.153-0.005,0.308-0.003,0.46-0.02c0.081-0.009,0.161-0.022,0.242-0.034
				c0.089-0.013,0.17-0.052,0.253-0.086c0.092-0.038,0.162-0.138,0.162-0.238C254.649,136.543,254.578,136.443,254.486,136.405z"/>
			<path style="fill:#D7E5FF;" d="M455.883,151.34c-0.034-0.022-0.067-0.043-0.1-0.065c-0.079-0.038-0.162-0.057-0.25-0.057
				c-0.263-0.026-0.526-0.053-0.789-0.079c-0.08-0.003-0.155,0.011-0.227,0.043c-0.071,0.019-0.134,0.053-0.19,0.103
				c-0.095,0.081-0.18,0.22-0.173,0.35c0.007,0.135,0.064,0.266,0.173,0.35c0.04,0.026,0.08,0.052,0.119,0.078
				c0.094,0.045,0.193,0.068,0.298,0.068c0.263-0.026,0.526-0.053,0.789-0.079c0.067,0.003,0.131-0.009,0.191-0.036
				c0.06-0.016,0.113-0.045,0.16-0.086c0.08-0.068,0.151-0.185,0.145-0.295C456.022,151.522,455.975,151.412,455.883,151.34z"/>
			<path style="fill:#D7E5FF;" d="M469.413,268.025c-0.062-0.055-0.133-0.094-0.212-0.115c-0.08-0.035-0.165-0.051-0.254-0.048
				c-0.164,0.006-0.342,0.048-0.467,0.162c-0.112,0.103-0.194,0.234-0.193,0.392l0.002,0.395c0,0.063,0.001,0.126,0.001,0.189
				c0,0.032,0,0.063,0.001,0.095c0,0.083,0.013,0.156,0.027,0.24c0.022,0.044,0.044,0.087,0.066,0.131
				c0.044,0.066,0.1,0.117,0.168,0.154c0.042,0.035,0.09,0.058,0.144,0.07c0.079,0.035,0.163,0.051,0.251,0.047
				c0.114-0.004,0.225-0.028,0.329-0.075c0.074-0.032,0.135-0.079,0.183-0.141c0.056-0.05,0.095-0.113,0.117-0.186
				c0.013-0.082,0.027-0.152,0.028-0.233c0-0.032,0-0.063,0-0.095c0-0.066,0.001-0.132,0.001-0.197
				c0.001-0.132,0.001-0.263,0.002-0.395C469.607,268.267,469.525,268.12,469.413,268.025z"/>
			<path style="fill:#D7E5FF;" d="M428.35,177.642c-0.044-0.115-0.123-0.184-0.226-0.247c-0.248-0.153-0.496-0.306-0.745-0.459
				c-0.248-0.153-0.526-0.269-0.787-0.398c-0.133-0.066-0.305-0.083-0.449-0.049c-0.125,0.029-0.277,0.111-0.348,0.225
				c-0.157,0.253-0.049,0.538,0.209,0.669c0.26,0.132,0.519,0.285,0.79,0.394c0.277,0.111,0.555,0.222,0.832,0.333
				c0.123,0.049,0.247,0.073,0.379,0.042c0.106-0.025,0.234-0.094,0.294-0.19C428.359,177.867,428.392,177.751,428.35,177.642z"/>
			<path style="fill:#D7E5FF;" d="M479.825,194.814c-0.029-0.074-0.076-0.135-0.141-0.184c-0.064-0.057-0.137-0.096-0.219-0.118
				c-0.083-0.036-0.17-0.053-0.262-0.049c-0.169,0.006-0.353,0.049-0.481,0.167c-0.109,0.101-0.213,0.246-0.199,0.404
				c0.012,0.132,0.023,0.263,0.035,0.395c0.009,0.102,0.007,0.219,0.052,0.311c0.007,0.014,0.014,0.028,0.021,0.042
				c0.005,0.01,0.009,0.019,0.014,0.028c0.019,0.039,0.039,0.077,0.058,0.116c0.02,0.027,0.047,0.051,0.069,0.076
				c0.047,0.065,0.106,0.115,0.179,0.15c0.079,0.038,0.163,0.057,0.251,0.057c0.088,0,0.172-0.019,0.251-0.057
				c0.072-0.035,0.132-0.085,0.179-0.15c0.021-0.024,0.044-0.047,0.064-0.071c0.038-0.044,0.066-0.127,0.095-0.185
				c0.034-0.069,0.04-0.147,0.047-0.223c0.003-0.032,0.005-0.063,0.008-0.095c0.012-0.132,0.023-0.263,0.035-0.395
				C479.887,194.953,479.867,194.88,479.825,194.814z"/>
			<path style="fill:#D7E5FF;" d="M449.399,308.482c-0.064-0.047-0.127-0.076-0.199-0.106c-0.039-0.017-0.08-0.032-0.12-0.044
				c-0.047-0.014-0.097-0.016-0.146-0.018c-0.033-0.001-0.067-0.002-0.101-0.003c-0.134-0.004-0.268-0.008-0.402-0.012
				c-0.103-0.003-0.225,0.039-0.304,0.106c-0.069,0.059-0.131,0.161-0.126,0.255c0.012,0.217,0.219,0.367,0.43,0.361
				c0.134-0.004,0.268-0.008,0.402-0.013c0.031-0.001,0.062-0.002,0.093-0.003c0.049-0.001,0.099-0.004,0.147-0.016
				c0.044-0.01,0.086-0.029,0.127-0.047c0.072-0.031,0.135-0.059,0.199-0.106C449.513,308.753,449.513,308.566,449.399,308.482z"/>
			<path style="fill:#D7E5FF;" d="M493.72,345.475c-0.027-0.039-0.063-0.075-0.094-0.111c-0.082-0.097-0.173-0.187-0.261-0.279
				c-0.134-0.14-0.268-0.28-0.401-0.419c-0.046-0.041-0.099-0.069-0.157-0.085c-0.059-0.026-0.122-0.038-0.188-0.035
				c-0.114,0-0.259,0.04-0.345,0.12c-0.08,0.074-0.149,0.175-0.143,0.29c0.006,0.118,0.058,0.208,0.143,0.29
				c0.138,0.133,0.277,0.265,0.415,0.398c0.068,0.065,0.134,0.134,0.206,0.195c0.036,0.031,0.072,0.063,0.109,0.092
				c0.069,0.054,0.148,0.09,0.233,0.109c0.023,0.005,0.046,0.01,0.069,0.016c0.116,0.026,0.234,0.007,0.334-0.058
				c0.08-0.052,0.162-0.148,0.151-0.253C493.78,345.652,493.775,345.555,493.72,345.475z"/>
			<path style="fill:#D7E5FF;" d="M438.524,488.271c-0.09-0.077-0.232-0.126-0.351-0.122c-0.123,0.005-0.257,0.036-0.351,0.122
				c-0.079,0.073-0.157,0.18-0.145,0.295c0.026,0.263,0.052,0.526,0.078,0.789c0.01,0.1,0.044,0.182,0.122,0.248
				c0.076,0.065,0.196,0.107,0.296,0.103c0.104-0.004,0.217-0.03,0.296-0.103l0.065-0.071c0.037-0.053,0.056-0.112,0.057-0.177
				c0.026-0.263,0.052-0.526,0.078-0.789C438.679,488.46,438.6,488.336,438.524,488.271z"/>
			<path style="fill:#D7E5FF;" d="M336.756,490.634c-0.047-0.066-0.107-0.125-0.161-0.186c-0.081-0.093-0.17-0.177-0.259-0.263
				c-0.122-0.119-0.245-0.238-0.367-0.356c-0.05-0.044-0.107-0.075-0.171-0.092c-0.065-0.028-0.133-0.041-0.205-0.038
				c-0.124,0-0.282,0.044-0.376,0.131c-0.087,0.081-0.162,0.191-0.156,0.316c0.006,0.039,0.013,0.079,0.019,0.119
				c0.027,0.078,0.073,0.144,0.137,0.197l0.443,0.456c0.074,0.076,0.153,0.144,0.232,0.214c0.01,0.009,0.02,0.018,0.03,0.026
				c0.058,0.046,0.113,0.076,0.181,0.1c0.064,0.028,0.13,0.04,0.201,0.038c0.046-0.005,0.092-0.01,0.139-0.016
				c0.006-0.002,0.011-0.004,0.017-0.006c0.006-0.002,0.011-0.004,0.017-0.006c0.035-0.012,0.07-0.025,0.105-0.037
				c0.049-0.022,0.091-0.053,0.123-0.095c0.018-0.02,0.034-0.037,0.05-0.058C336.853,490.949,336.848,490.762,336.756,490.634z"/>
			<path style="fill:#D7E5FF;" d="M238.325,379.585c-0.001-0.047-0.014-0.09-0.042-0.129c-0.011-0.023-0.022-0.045-0.034-0.068
				c-0.011-0.019-0.023-0.038-0.036-0.057c-0.039-0.056-0.092-0.104-0.14-0.153c-0.016-0.017-0.033-0.034-0.049-0.051
				c-0.068-0.069-0.135-0.139-0.202-0.208c-0.135-0.139-0.27-0.278-0.405-0.417c-0.061-0.054-0.13-0.091-0.207-0.112
				c-0.078-0.034-0.161-0.05-0.248-0.047c-0.087-0.003-0.17,0.012-0.248,0.047c-0.077,0.021-0.146,0.058-0.207,0.112
				c-0.106,0.098-0.197,0.231-0.189,0.383c0.008,0.048,0.015,0.096,0.023,0.144c0.033,0.095,0.088,0.175,0.166,0.239
				c0.137,0.134,0.275,0.267,0.412,0.4c0.068,0.066,0.135,0.132,0.203,0.197c0.033,0.032,0.066,0.07,0.102,0.098
				c0.019,0.015,0.04,0.028,0.061,0.041c0.044,0.03,0.09,0.063,0.137,0.088c0.071,0.038,0.147,0.058,0.226,0.061
				c0.031,0.008,0.061,0.01,0.092,0.009c0.053-0.006,0.105-0.012,0.158-0.018c0.075-0.014,0.142-0.044,0.202-0.089
				c0.043-0.021,0.079-0.051,0.106-0.089c0.051-0.046,0.086-0.103,0.106-0.17C238.335,379.708,238.338,379.665,238.325,379.585z"/>
			<path style="fill:#D7E5FF;" d="M198.179,201.897c-0.031-0.079-0.082-0.146-0.152-0.199c-0.07-0.061-0.148-0.104-0.236-0.128
				c-0.089-0.039-0.184-0.057-0.283-0.053c-0.183,0.007-0.381,0.053-0.519,0.181c-0.12,0.111-0.225,0.264-0.215,0.436
				c0.006,0.116,0.013,0.231,0.019,0.347l0.01,0.174c0.001,0.026,0.003,0.053,0.004,0.079c0.003,0.062,0.005,0.132,0.027,0.188
				c0.023,0.047,0.047,0.094,0.07,0.14c0.039,0.043,0.078,0.086,0.118,0.128c0.065,0.058,0.139,0.097,0.221,0.12
				c0.084,0.037,0.172,0.053,0.265,0.05c0.061-0.007,0.122-0.014,0.183-0.021c0.113-0.026,0.214-0.075,0.304-0.149
				c0.076-0.081,0.158-0.154,0.188-0.268c0.015-0.056,0.023-0.122,0.026-0.18l0.005-0.087c0.003-0.058,0.006-0.116,0.009-0.174
				c0.006-0.116,0.013-0.232,0.019-0.347C198.245,202.048,198.224,201.969,198.179,201.897z"/>
			<path style="fill:#D7E5FF;" d="M126.871,148.121c-0.041-0.026-0.081-0.053-0.122-0.079c-0.096-0.046-0.197-0.069-0.304-0.069
				c-0.064-0.006-0.125-0.008-0.189-0.004c-0.06,0.003-0.121,0.007-0.181,0.01c-0.124,0.007-0.247,0.014-0.371,0.021
				c-0.145,0.008-0.289,0.044-0.403,0.14c-0.092,0.078-0.174,0.213-0.167,0.339c0.007,0.13,0.062,0.257,0.167,0.339
				c0.038,0.025,0.077,0.05,0.115,0.075c0.091,0.044,0.187,0.066,0.288,0.065c0.124,0.007,0.247,0.014,0.371,0.021
				c0.061,0.003,0.121,0.007,0.181,0.01c0.064,0.004,0.125,0.001,0.189-0.004c0.082,0.003,0.159-0.011,0.232-0.044
				c0.072-0.019,0.137-0.054,0.194-0.105c0.097-0.082,0.184-0.225,0.176-0.358C127.04,148.341,126.982,148.208,126.871,148.121z"/>
			<path style="fill:#D7E5FF;" d="M98.875,187.328c-0.906,0-0.908,1.208,0,1.208C99.781,188.536,99.783,187.328,98.875,187.328z"/>
			<path style="fill:#D7E5FF;" d="M32.59,203.467c-0.023-0.06-0.069-0.102-0.109-0.149c-0.003-0.015-0.006-0.03-0.01-0.045
				c-0.018-0.146-0.036-0.292-0.054-0.439c0.002-0.051-0.011-0.098-0.037-0.14c-0.019-0.047-0.049-0.086-0.09-0.117
				c-0.079-0.067-0.203-0.111-0.307-0.107c-0.108,0.004-0.225,0.031-0.307,0.107c-0.023,0.025-0.045,0.049-0.068,0.074
				c-0.039,0.055-0.058,0.117-0.059,0.184c-0.018,0.146-0.036,0.292-0.054,0.438c-0.001,0.002-0.001,0.004-0.001,0.006
				c-0.052,0.055-0.095,0.118-0.117,0.188c-0.03,0.094-0.03,0.187,0,0.281c0.021,0.071,0.059,0.131,0.112,0.18
				c0.047,0.06,0.106,0.105,0.177,0.136c0.1,0.048,0.206,0.072,0.317,0.072c0.163,0,0.317-0.055,0.445-0.155
				C32.575,203.867,32.659,203.647,32.59,203.467z"/>
			<path style="fill:#D7E5FF;" d="M113.144,198.729c-0.037-0.106-0.098-0.194-0.184-0.266c-0.184-0.171-0.419-0.235-0.665-0.228
				c-0.068,0.002-0.137,0.004-0.205,0.006c-0.137,0.004-0.273,0.008-0.41,0.012c-0.189,0.006-0.389,0.061-0.536,0.187
				c-0.072,0.055-0.124,0.123-0.157,0.205c-0.047,0.074-0.068,0.155-0.065,0.245c0.009,0.173,0.082,0.341,0.222,0.45
				c0.156,0.122,0.337,0.181,0.536,0.187c0.137,0.004,0.273,0.008,0.41,0.012c0.068,0.002,0.137,0.004,0.205,0.006
				c0.243,0.007,0.483-0.06,0.665-0.229c0.068-0.052,0.118-0.116,0.148-0.194c0.044-0.07,0.065-0.147,0.062-0.232
				C113.161,198.836,113.152,198.782,113.144,198.729z"/>
			<path style="fill:#D7E5FF;" d="M82.862,220.665c-0.116-0.081-0.225-0.165-0.367-0.198c-0.103-0.024-0.221-0.021-0.327-0.026
				l-0.426-0.019c-0.279-0.012-0.558-0.024-0.836-0.037c-0.169-0.007-0.374,0.066-0.503,0.175c-0.115,0.097-0.216,0.266-0.208,0.422
				c0.019,0.356,0.363,0.613,0.711,0.597c0.279-0.012,0.558-0.025,0.836-0.037c0.137-0.006,0.274-0.012,0.41-0.018
				c0.111-0.005,0.236-0.002,0.343-0.027c0.142-0.033,0.251-0.117,0.367-0.198C83.067,221.157,83.067,220.809,82.862,220.665z"/>
			<path style="fill:#D7E5FF;" d="M113.873,289.239c-0.068,0.002-0.137,0.004-0.205,0.006c-0.137,0.004-0.273,0.008-0.41,0.013
				c-0.112,0.003-0.228,0.036-0.315,0.11c-0.072,0.061-0.136,0.166-0.131,0.264c0.013,0.236,0.227,0.367,0.445,0.374
				c0.137,0.004,0.273,0.008,0.41,0.012c0.069,0.002,0.137,0.004,0.205,0.006c0.07,0.002,0.14-0.007,0.206-0.03
				c0.104-0.036,0.211-0.074,0.273-0.174c0.036-0.058,0.062-0.119,0.062-0.188C114.413,289.365,114.104,289.232,113.873,289.239z"/>
			<path style="fill:#D7E5FF;" d="M169.447,178.924c-0.08-0.033-0.16-0.072-0.245-0.085c-0.083-0.012-0.166-0.026-0.249-0.035
				c-0.152-0.017-0.307-0.015-0.46-0.02c-0.108-0.004-0.235,0.041-0.318,0.111c-0.072,0.061-0.137,0.168-0.132,0.267
				c0.012,0.227,0.229,0.385,0.449,0.377c0.153-0.005,0.308-0.003,0.46-0.02c0.081-0.009,0.161-0.022,0.242-0.034
				c0.088-0.013,0.17-0.052,0.253-0.086c0.092-0.038,0.162-0.138,0.162-0.238C169.609,179.063,169.539,178.962,169.447,178.924z"/>
			<path style="fill:#D7E5FF;" d="M370.844,193.86c-0.034-0.022-0.067-0.043-0.1-0.065c-0.079-0.038-0.163-0.057-0.25-0.057
				c-0.263-0.026-0.526-0.053-0.789-0.079c-0.08-0.003-0.155,0.011-0.227,0.043c-0.071,0.019-0.134,0.053-0.19,0.102
				c-0.095,0.081-0.18,0.22-0.173,0.35c0.007,0.135,0.064,0.266,0.173,0.35c0.04,0.026,0.08,0.052,0.119,0.077
				c0.094,0.045,0.193,0.068,0.298,0.068c0.263-0.026,0.526-0.053,0.789-0.079c0.067,0.003,0.131-0.009,0.191-0.036
				c0.06-0.016,0.113-0.045,0.16-0.086c0.08-0.068,0.151-0.185,0.145-0.295C370.983,194.041,370.935,193.931,370.844,193.86z"/>
			<path style="fill:#D7E5FF;" d="M384.374,310.544c-0.062-0.055-0.133-0.093-0.212-0.115c-0.08-0.035-0.165-0.051-0.254-0.048
				c-0.164,0.006-0.342,0.047-0.467,0.162c-0.112,0.103-0.194,0.234-0.193,0.392l0.002,0.395c0,0.063,0.001,0.126,0.001,0.189
				c0,0.031,0,0.063,0.001,0.095c0,0.083,0.014,0.156,0.027,0.24c0.022,0.044,0.044,0.087,0.066,0.131
				c0.044,0.066,0.1,0.117,0.168,0.154c0.042,0.035,0.09,0.058,0.144,0.07c0.079,0.035,0.163,0.05,0.251,0.047
				c0.114-0.004,0.225-0.028,0.329-0.075c0.073-0.032,0.134-0.079,0.183-0.141c0.056-0.051,0.095-0.113,0.117-0.186
				c0.013-0.081,0.027-0.153,0.027-0.232c0-0.032,0-0.063,0.001-0.095c0-0.066,0.001-0.132,0.001-0.197
				c0.001-0.132,0.001-0.263,0.002-0.395C384.568,310.787,384.486,310.639,384.374,310.544z"/>
			<path style="fill:#D7E5FF;" d="M343.311,220.162c-0.044-0.115-0.123-0.184-0.226-0.247c-0.248-0.153-0.496-0.306-0.745-0.459
				c-0.248-0.153-0.526-0.269-0.787-0.398c-0.133-0.066-0.305-0.083-0.448-0.049c-0.126,0.029-0.277,0.111-0.348,0.225
				c-0.157,0.253-0.049,0.538,0.209,0.669c0.26,0.132,0.519,0.285,0.79,0.394c0.277,0.111,0.555,0.222,0.832,0.333
				c0.123,0.049,0.247,0.072,0.379,0.042c0.106-0.025,0.234-0.094,0.294-0.19C343.32,220.387,343.352,220.27,343.311,220.162z"/>
			<path style="fill:#D7E5FF;" d="M394.786,237.333c-0.029-0.073-0.076-0.135-0.141-0.184c-0.064-0.057-0.137-0.096-0.219-0.118
				c-0.083-0.036-0.17-0.053-0.262-0.049c-0.169,0.006-0.353,0.049-0.48,0.167c-0.109,0.101-0.213,0.246-0.199,0.404
				c0.012,0.131,0.023,0.263,0.035,0.394c0.009,0.103,0.007,0.219,0.052,0.311c0.007,0.014,0.014,0.028,0.021,0.042
				c0.005,0.01,0.009,0.019,0.014,0.028c0.019,0.039,0.039,0.077,0.058,0.116c0.02,0.027,0.047,0.051,0.069,0.076
				c0.047,0.065,0.106,0.115,0.179,0.15c0.079,0.038,0.163,0.057,0.251,0.057c0.088,0,0.172-0.019,0.251-0.057
				c0.072-0.035,0.132-0.085,0.179-0.15c0.021-0.024,0.044-0.047,0.064-0.071c0.038-0.044,0.066-0.127,0.095-0.185
				c0.034-0.069,0.04-0.147,0.047-0.223c0.003-0.032,0.006-0.063,0.008-0.095c0.012-0.132,0.023-0.263,0.035-0.394
				C394.847,237.473,394.828,237.399,394.786,237.333z"/>
			<path style="fill:#D7E5FF;" d="M364.36,351.002c-0.064-0.047-0.127-0.076-0.199-0.106c-0.039-0.017-0.08-0.032-0.121-0.044
				c-0.047-0.014-0.097-0.016-0.146-0.018c-0.034-0.001-0.067-0.002-0.101-0.003c-0.134-0.004-0.268-0.008-0.402-0.013
				c-0.103-0.003-0.225,0.039-0.304,0.106c-0.069,0.059-0.131,0.16-0.126,0.255c0.012,0.217,0.219,0.368,0.43,0.361
				c0.134-0.004,0.268-0.008,0.402-0.013c0.031-0.001,0.062-0.002,0.093-0.003c0.049-0.001,0.099-0.004,0.147-0.016
				c0.044-0.011,0.086-0.029,0.127-0.047c0.072-0.031,0.135-0.059,0.199-0.106C364.473,351.272,364.474,351.085,364.36,351.002z"/>
			<path style="fill:#D7E5FF;" d="M408.681,387.995c-0.027-0.039-0.063-0.075-0.094-0.111c-0.082-0.097-0.173-0.187-0.261-0.279
				c-0.134-0.14-0.268-0.28-0.401-0.419c-0.046-0.041-0.099-0.069-0.157-0.085c-0.059-0.026-0.122-0.038-0.188-0.035
				c-0.114,0-0.259,0.04-0.345,0.12c-0.08,0.074-0.149,0.175-0.143,0.29c0.006,0.118,0.058,0.209,0.143,0.29
				c0.138,0.133,0.277,0.265,0.415,0.398c0.068,0.065,0.134,0.134,0.206,0.195c0.036,0.031,0.072,0.063,0.109,0.092
				c0.069,0.054,0.148,0.09,0.233,0.109c0.023,0.005,0.046,0.01,0.069,0.016c0.116,0.026,0.234,0.007,0.334-0.057
				c0.08-0.052,0.162-0.148,0.151-0.253C408.741,388.172,408.736,388.075,408.681,387.995z"/>
			<path style="fill:#D7E5FF;" d="M153.285,422.104c-0.001-0.047-0.014-0.09-0.042-0.129c-0.011-0.023-0.022-0.045-0.034-0.068
				c-0.011-0.019-0.023-0.038-0.036-0.057c-0.039-0.056-0.092-0.104-0.14-0.153c-0.016-0.017-0.033-0.034-0.049-0.051
				c-0.067-0.069-0.135-0.139-0.202-0.208c-0.135-0.139-0.27-0.278-0.405-0.417c-0.061-0.054-0.13-0.091-0.207-0.112
				c-0.078-0.034-0.161-0.05-0.248-0.047c-0.087-0.003-0.17,0.012-0.248,0.047c-0.077,0.021-0.146,0.058-0.207,0.112
				c-0.106,0.098-0.197,0.231-0.189,0.383c0.008,0.048,0.015,0.096,0.023,0.144c0.033,0.095,0.088,0.175,0.166,0.239
				c0.137,0.133,0.275,0.267,0.412,0.4c0.068,0.066,0.135,0.132,0.203,0.197c0.033,0.032,0.066,0.07,0.102,0.098
				c0.019,0.015,0.04,0.028,0.061,0.041c0.044,0.03,0.09,0.063,0.137,0.088c0.071,0.038,0.147,0.058,0.226,0.061
				c0.031,0.007,0.061,0.01,0.092,0.009c0.053-0.006,0.105-0.012,0.158-0.018c0.075-0.014,0.142-0.044,0.202-0.089
				c0.043-0.021,0.079-0.051,0.107-0.09c0.051-0.046,0.086-0.102,0.106-0.17C153.296,422.227,153.298,422.185,153.285,422.104z"/>
			<path style="fill:#D7E5FF;" d="M113.14,244.417c-0.032-0.079-0.082-0.146-0.152-0.199c-0.07-0.061-0.148-0.104-0.236-0.128
				c-0.089-0.039-0.184-0.057-0.283-0.053c-0.183,0.007-0.381,0.053-0.519,0.181c-0.12,0.111-0.225,0.264-0.215,0.436
				c0.006,0.116,0.013,0.232,0.019,0.347l0.009,0.174c0.002,0.026,0.003,0.053,0.004,0.079c0.003,0.062,0.005,0.132,0.027,0.188
				c0.023,0.047,0.047,0.094,0.071,0.14c0.039,0.043,0.078,0.086,0.118,0.128c0.065,0.058,0.139,0.097,0.221,0.119
				c0.084,0.037,0.172,0.053,0.265,0.05c0.061-0.007,0.122-0.014,0.183-0.021c0.113-0.026,0.214-0.075,0.303-0.149
				c0.076-0.081,0.158-0.154,0.188-0.268c0.015-0.056,0.023-0.122,0.026-0.18l0.005-0.087c0.003-0.058,0.006-0.116,0.01-0.174
				c0.006-0.116,0.013-0.232,0.019-0.347C113.206,244.568,113.185,244.489,113.14,244.417z"/>
			<path style="fill:#D7E5FF;" d="M41.831,190.641c-0.041-0.026-0.081-0.053-0.122-0.079c-0.096-0.046-0.197-0.069-0.304-0.069
				c-0.064-0.006-0.125-0.008-0.189-0.004c-0.061,0.003-0.121,0.007-0.182,0.01c-0.124,0.007-0.247,0.014-0.371,0.021
				c-0.145,0.008-0.289,0.044-0.403,0.14c-0.092,0.078-0.174,0.213-0.167,0.339c0.007,0.13,0.062,0.257,0.167,0.339
				c0.038,0.025,0.077,0.05,0.115,0.075c0.091,0.044,0.187,0.066,0.288,0.065c0.124,0.007,0.247,0.014,0.371,0.021
				c0.061,0.003,0.121,0.007,0.182,0.01c0.064,0.004,0.125,0.001,0.189-0.004c0.081,0.003,0.159-0.012,0.232-0.044
				c0.072-0.019,0.137-0.054,0.194-0.105c0.097-0.082,0.183-0.225,0.176-0.358C42,190.861,41.942,190.727,41.831,190.641z"/>
			<path style="fill:#D7E5FF;" d="M13.835,229.848c-0.906,0-0.908,1.207,0,1.207C14.742,231.055,14.744,229.848,13.835,229.848z"/>
			<path style="fill:#D7E5FF;" d="M75.11,331.026c-0.023-0.06-0.069-0.102-0.109-0.149c-0.003-0.015-0.006-0.03-0.01-0.045
				c-0.018-0.146-0.036-0.292-0.054-0.439c0.002-0.051-0.011-0.098-0.037-0.14c-0.019-0.047-0.048-0.086-0.09-0.117
				c-0.079-0.067-0.203-0.111-0.307-0.107c-0.108,0.004-0.225,0.031-0.307,0.107c-0.023,0.025-0.045,0.049-0.068,0.074
				c-0.039,0.055-0.059,0.116-0.059,0.184c-0.018,0.146-0.036,0.292-0.054,0.438c-0.001,0.002-0.001,0.004-0.001,0.006
				c-0.052,0.055-0.095,0.118-0.117,0.188c-0.03,0.094-0.03,0.187,0,0.281c0.021,0.071,0.059,0.131,0.113,0.18
				c0.047,0.06,0.105,0.105,0.176,0.136c0.1,0.048,0.206,0.072,0.317,0.072c0.163,0,0.317-0.055,0.445-0.155
				C75.095,331.426,75.178,331.206,75.11,331.026z"/>
			<path style="fill:#D7E5FF;" d="M155.664,326.288c-0.037-0.106-0.098-0.194-0.184-0.266c-0.184-0.171-0.419-0.236-0.665-0.229
				c-0.068,0.002-0.137,0.004-0.205,0.006c-0.137,0.004-0.273,0.008-0.41,0.012c-0.19,0.005-0.389,0.061-0.536,0.186
				c-0.072,0.055-0.124,0.123-0.157,0.205c-0.047,0.074-0.068,0.156-0.065,0.245c0.009,0.173,0.082,0.341,0.222,0.45
				c0.156,0.122,0.337,0.181,0.536,0.186c0.137,0.004,0.274,0.008,0.41,0.012c0.068,0.002,0.137,0.004,0.205,0.006
				c0.243,0.007,0.483-0.06,0.665-0.228c0.068-0.052,0.118-0.116,0.148-0.194c0.044-0.07,0.065-0.147,0.062-0.232
				C155.681,326.395,155.672,326.341,155.664,326.288z"/>
			<path style="fill:#D7E5FF;" d="M8.476,353.852c-0.11-0.085-0.22-0.17-0.335-0.247c-0.116-0.078-0.237-0.152-0.349-0.236
				c-0.221-0.164-0.434-0.341-0.651-0.51c-0.319-0.25-0.86-0.235-1.104,0.12c-0.089,0.13-0.12,0.304-0.071,0.455
				c0.073,0.224,0.276,0.352,0.491,0.413c0.14,0.039,0.28,0.079,0.42,0.118c0.039,0.011,0.413,0.132,0.421,0.118
				c-0.07-0.026-0.08-0.03-0.029-0.012c0.01,0.004,0.02,0.007,0.03,0.011c0.041,0.014,0.081,0.029,0.122,0.043
				c0.071,0.025,0.142,0.051,0.213,0.076c0.163,0.058,0.327,0.107,0.492,0.156c0.133,0.039,0.329-0.016,0.406-0.139
				C8.606,354.1,8.592,353.94,8.476,353.852z"/>
			<path style="fill:#D7E5FF;" d="M125.382,348.224c-0.116-0.081-0.225-0.165-0.367-0.198c-0.103-0.024-0.221-0.021-0.327-0.026
				l-0.426-0.019c-0.279-0.012-0.558-0.025-0.836-0.037c-0.169-0.007-0.374,0.066-0.503,0.175c-0.115,0.097-0.216,0.266-0.208,0.422
				c0.019,0.356,0.363,0.612,0.711,0.597c0.279-0.012,0.558-0.025,0.836-0.037c0.137-0.006,0.273-0.012,0.41-0.018
				c0.111-0.005,0.236-0.002,0.343-0.027c0.142-0.033,0.251-0.117,0.367-0.198C125.586,348.716,125.587,348.367,125.382,348.224z"/>
			<path style="fill:#D7E5FF;" d="M156.393,416.798c-0.068,0.002-0.137,0.004-0.205,0.006c-0.137,0.004-0.273,0.008-0.41,0.013
				c-0.111,0.003-0.228,0.036-0.315,0.11c-0.072,0.061-0.136,0.166-0.13,0.265c0.013,0.236,0.227,0.367,0.445,0.374
				c0.137,0.004,0.274,0.008,0.41,0.012c0.068,0.002,0.137,0.004,0.205,0.006c0.07,0.002,0.14-0.007,0.206-0.03
				c0.104-0.036,0.211-0.074,0.273-0.174c0.036-0.058,0.062-0.119,0.062-0.188C156.933,416.924,156.624,416.791,156.393,416.798z"/>
			<path style="fill:#D7E5FF;" d="M211.966,306.483c-0.08-0.033-0.16-0.072-0.245-0.085c-0.083-0.012-0.166-0.026-0.249-0.035
				c-0.152-0.017-0.307-0.015-0.46-0.02c-0.108-0.004-0.235,0.041-0.318,0.111c-0.072,0.062-0.137,0.168-0.132,0.267
				c0.012,0.227,0.229,0.384,0.449,0.377c0.153-0.005,0.308-0.002,0.46-0.02c0.081-0.009,0.161-0.022,0.242-0.034
				c0.089-0.013,0.17-0.052,0.253-0.086c0.092-0.038,0.163-0.138,0.163-0.238S212.059,306.521,211.966,306.483z"/>
			<path style="fill:#D7E5FF;" d="M413.363,321.419c-0.033-0.022-0.067-0.043-0.1-0.065c-0.079-0.038-0.163-0.057-0.25-0.057
				c-0.263-0.026-0.526-0.052-0.789-0.079c-0.08-0.003-0.155,0.011-0.227,0.043c-0.071,0.019-0.134,0.053-0.19,0.102
				c-0.095,0.081-0.18,0.22-0.173,0.35c0.007,0.135,0.064,0.266,0.173,0.35c0.04,0.026,0.08,0.052,0.119,0.078
				c0.094,0.045,0.193,0.068,0.298,0.068c0.263-0.026,0.526-0.053,0.789-0.079c0.067,0.003,0.131-0.009,0.191-0.036
				c0.06-0.016,0.113-0.045,0.16-0.086c0.08-0.068,0.151-0.185,0.145-0.295C413.503,321.6,413.455,321.49,413.363,321.419z"/>
			<path style="fill:#D7E5FF;" d="M426.893,438.103c-0.062-0.055-0.133-0.093-0.212-0.115c-0.08-0.035-0.165-0.051-0.254-0.048
				c-0.164,0.006-0.342,0.048-0.467,0.162c-0.112,0.103-0.194,0.234-0.193,0.392l0.002,0.395c0,0.063,0.001,0.126,0.001,0.189
				c0,0.032,0,0.063,0,0.095c0,0.083,0.014,0.156,0.027,0.24c0.022,0.044,0.044,0.087,0.066,0.131
				c0.044,0.066,0.1,0.117,0.168,0.154c0.042,0.035,0.09,0.058,0.144,0.07c0.079,0.035,0.163,0.05,0.251,0.047
				c0.114-0.004,0.225-0.028,0.329-0.075c0.074-0.032,0.135-0.079,0.183-0.141c0.056-0.051,0.095-0.113,0.117-0.186
				c0.013-0.082,0.027-0.152,0.028-0.233c0-0.031,0-0.063,0-0.095c0-0.066,0.001-0.132,0.001-0.197
				c0.001-0.132,0.001-0.263,0.002-0.395C427.088,438.346,427.005,438.198,426.893,438.103z"/>
			<path style="fill:#D7E5FF;" d="M385.831,347.721c-0.044-0.115-0.123-0.184-0.226-0.247c-0.248-0.153-0.496-0.306-0.745-0.459
				c-0.248-0.153-0.526-0.269-0.787-0.398c-0.133-0.066-0.305-0.083-0.448-0.049c-0.126,0.029-0.277,0.111-0.348,0.225
				c-0.157,0.253-0.049,0.538,0.209,0.669c0.26,0.132,0.519,0.285,0.79,0.394c0.277,0.111,0.555,0.222,0.832,0.333
				c0.123,0.049,0.247,0.073,0.379,0.042c0.106-0.025,0.234-0.094,0.294-0.19C385.839,347.946,385.872,347.829,385.831,347.721z"/>
			<path style="fill:#D7E5FF;" d="M437.306,364.892c-0.029-0.074-0.076-0.135-0.141-0.184c-0.064-0.057-0.137-0.096-0.219-0.118
				c-0.083-0.036-0.17-0.053-0.262-0.049c-0.169,0.006-0.352,0.049-0.481,0.167c-0.109,0.101-0.213,0.246-0.199,0.404
				c0.012,0.132,0.023,0.263,0.035,0.395c0.009,0.102,0.007,0.219,0.052,0.311c0.007,0.014,0.014,0.028,0.021,0.043
				c0.005,0.009,0.009,0.019,0.014,0.028c0.019,0.039,0.039,0.077,0.058,0.116c0.02,0.027,0.047,0.051,0.069,0.076
				c0.047,0.065,0.106,0.115,0.179,0.15c0.079,0.038,0.163,0.057,0.251,0.057c0.088,0,0.172-0.019,0.251-0.057
				c0.072-0.035,0.132-0.085,0.179-0.15c0.021-0.024,0.044-0.047,0.064-0.071c0.038-0.044,0.066-0.127,0.095-0.185
				c0.034-0.069,0.04-0.147,0.047-0.223c0.003-0.032,0.005-0.063,0.008-0.095c0.012-0.132,0.023-0.263,0.035-0.395
				C437.367,365.032,437.347,364.958,437.306,364.892z"/>
			<path style="fill:#D7E5FF;" d="M406.88,478.561c-0.064-0.047-0.127-0.076-0.199-0.106c-0.039-0.017-0.08-0.032-0.12-0.044
				c-0.047-0.014-0.097-0.016-0.146-0.018c-0.034-0.001-0.067-0.002-0.1-0.003c-0.134-0.004-0.268-0.008-0.402-0.012
				c-0.103-0.003-0.225,0.039-0.304,0.106c-0.069,0.059-0.131,0.161-0.126,0.255c0.012,0.217,0.219,0.367,0.43,0.361
				c0.134-0.004,0.268-0.008,0.402-0.013c0.031-0.001,0.062-0.002,0.093-0.003c0.049-0.002,0.099-0.004,0.147-0.016
				c0.044-0.011,0.086-0.029,0.127-0.047c0.072-0.031,0.135-0.059,0.199-0.106C406.993,478.831,406.993,478.644,406.88,478.561z"/>
			<path style="fill:#D7E5FF;" d="M155.659,371.976c-0.031-0.079-0.082-0.146-0.152-0.198c-0.069-0.062-0.148-0.104-0.236-0.128
				c-0.089-0.039-0.184-0.057-0.283-0.053c-0.183,0.007-0.381,0.053-0.519,0.181c-0.12,0.111-0.225,0.263-0.215,0.436
				c0.006,0.116,0.013,0.232,0.019,0.347l0.01,0.173c0.001,0.026,0.003,0.053,0.004,0.079c0.003,0.062,0.005,0.131,0.027,0.188
				c0.024,0.047,0.047,0.094,0.071,0.14c0.039,0.043,0.078,0.086,0.118,0.128c0.065,0.057,0.139,0.097,0.221,0.12
				c0.084,0.037,0.172,0.053,0.265,0.05c0.061-0.007,0.122-0.014,0.183-0.021c0.113-0.026,0.214-0.075,0.304-0.149
				c0.076-0.081,0.158-0.154,0.188-0.268c0.015-0.056,0.023-0.122,0.026-0.18l0.005-0.087c0.003-0.058,0.006-0.116,0.01-0.173
				c0.006-0.116,0.013-0.232,0.019-0.347C155.725,372.127,155.704,372.048,155.659,371.976z"/>
			<path style="fill:#D7E5FF;" d="M84.351,318.2c-0.041-0.026-0.081-0.053-0.122-0.079c-0.096-0.046-0.197-0.069-0.304-0.069
				c-0.064-0.006-0.125-0.008-0.189-0.004c-0.061,0.004-0.121,0.007-0.182,0.01c-0.124,0.007-0.247,0.014-0.371,0.021
				c-0.145,0.008-0.289,0.044-0.403,0.14c-0.092,0.078-0.174,0.213-0.167,0.339c0.007,0.13,0.062,0.257,0.167,0.339
				c0.038,0.025,0.077,0.05,0.115,0.075c0.091,0.044,0.187,0.066,0.288,0.065c0.124,0.007,0.247,0.014,0.371,0.021
				c0.061,0.003,0.121,0.007,0.182,0.01c0.064,0.004,0.125,0.001,0.189-0.004c0.081,0.003,0.159-0.011,0.232-0.043
				c0.072-0.019,0.137-0.054,0.194-0.105c0.097-0.082,0.184-0.225,0.176-0.358C84.52,318.42,84.462,318.286,84.351,318.2z"/>
			<path style="fill:#D7E5FF;" d="M56.355,357.407c-0.906,0-0.908,1.208,0,1.208C57.261,358.614,57.263,357.407,56.355,357.407z"/>
			<path style="fill:#D7E5FF;" d="M42.278,397.154c-0.037-0.106-0.098-0.194-0.184-0.266c-0.184-0.171-0.42-0.235-0.665-0.228
				c-0.068,0.002-0.137,0.004-0.205,0.006c-0.137,0.004-0.273,0.008-0.41,0.012c-0.19,0.005-0.389,0.061-0.536,0.186
				c-0.072,0.055-0.124,0.123-0.157,0.205c-0.047,0.074-0.068,0.155-0.065,0.245c0.009,0.173,0.082,0.341,0.222,0.45
				c0.156,0.122,0.337,0.181,0.536,0.186c0.137,0.004,0.274,0.008,0.41,0.012c0.068,0.002,0.137,0.004,0.205,0.006
				c0.243,0.007,0.483-0.06,0.665-0.229c0.068-0.052,0.118-0.116,0.148-0.194c0.044-0.07,0.065-0.147,0.062-0.232
				C42.295,397.261,42.286,397.207,42.278,397.154z"/>
			<path style="fill:#D7E5FF;" d="M11.996,419.09c-0.116-0.081-0.225-0.165-0.367-0.198c-0.103-0.024-0.22-0.021-0.327-0.026
				l-0.426-0.019c-0.279-0.012-0.558-0.024-0.837-0.037c-0.169-0.008-0.374,0.065-0.503,0.175c-0.115,0.097-0.217,0.266-0.208,0.422
				c0.019,0.356,0.363,0.613,0.711,0.597c0.279-0.012,0.558-0.024,0.837-0.037c0.137-0.006,0.273-0.012,0.41-0.018
				c0.111-0.005,0.236-0.002,0.343-0.027c0.142-0.033,0.251-0.117,0.367-0.198C12.2,419.583,12.201,419.234,11.996,419.09z"/>
			<path style="fill:#D7E5FF;" d="M43.007,487.664c-0.068,0.002-0.137,0.004-0.205,0.006c-0.137,0.004-0.274,0.008-0.41,0.013
				c-0.111,0.003-0.228,0.036-0.315,0.109c-0.072,0.061-0.136,0.166-0.13,0.264c0.013,0.236,0.227,0.367,0.445,0.374
				c0.137,0.004,0.274,0.008,0.41,0.012c0.068,0.002,0.137,0.004,0.205,0.006c0.07,0.002,0.14-0.007,0.206-0.03
				c0.104-0.036,0.211-0.074,0.273-0.174c0.036-0.058,0.062-0.119,0.062-0.188C43.547,487.79,43.238,487.657,43.007,487.664z"/>
			<path style="fill:#D7E5FF;" d="M98.581,377.35c-0.08-0.033-0.16-0.072-0.245-0.085c-0.083-0.012-0.166-0.026-0.249-0.035
				c-0.152-0.017-0.307-0.015-0.46-0.02c-0.108-0.004-0.235,0.041-0.318,0.111c-0.072,0.061-0.137,0.168-0.132,0.267
				c0.012,0.227,0.229,0.385,0.449,0.377c0.153-0.005,0.308-0.003,0.46-0.02c0.081-0.009,0.161-0.022,0.242-0.034
				c0.089-0.013,0.17-0.052,0.253-0.086c0.092-0.038,0.162-0.138,0.162-0.238S98.673,377.387,98.581,377.35z"/>
			<path style="fill:#D7E5FF;" d="M299.977,392.285c-0.033-0.022-0.067-0.043-0.1-0.065c-0.079-0.038-0.162-0.057-0.25-0.057
				c-0.263-0.026-0.526-0.052-0.789-0.079c-0.08-0.003-0.155,0.011-0.227,0.043c-0.071,0.019-0.134,0.053-0.19,0.102
				c-0.095,0.081-0.18,0.22-0.173,0.35c0.007,0.135,0.064,0.266,0.173,0.35c0.04,0.026,0.08,0.052,0.119,0.077
				c0.094,0.045,0.193,0.068,0.298,0.068c0.263-0.026,0.526-0.052,0.789-0.079c0.067,0.003,0.131-0.009,0.191-0.036
				c0.06-0.016,0.113-0.045,0.16-0.086c0.08-0.068,0.151-0.185,0.145-0.295C300.117,392.466,300.069,392.357,299.977,392.285z"/>
			<path style="fill:#D7E5FF;" d="M272.445,418.587c-0.044-0.115-0.123-0.184-0.226-0.247c-0.248-0.153-0.496-0.306-0.745-0.459
				c-0.248-0.153-0.526-0.268-0.787-0.398c-0.133-0.066-0.305-0.083-0.448-0.049c-0.126,0.029-0.277,0.111-0.348,0.225
				c-0.157,0.253-0.049,0.538,0.209,0.669c0.26,0.132,0.519,0.285,0.79,0.394c0.277,0.111,0.555,0.222,0.832,0.333
				c0.123,0.049,0.248,0.073,0.379,0.042c0.106-0.025,0.234-0.094,0.294-0.19C272.453,418.812,272.486,418.695,272.445,418.587z"/>
			<path style="fill:#D7E5FF;" d="M323.92,435.758c-0.029-0.073-0.076-0.135-0.141-0.184c-0.064-0.057-0.137-0.096-0.219-0.118
				c-0.083-0.036-0.17-0.053-0.262-0.049c-0.169,0.006-0.352,0.049-0.481,0.167c-0.109,0.101-0.213,0.246-0.199,0.404
				c0.012,0.132,0.023,0.263,0.035,0.395c0.009,0.103,0.007,0.219,0.052,0.311c0.007,0.014,0.014,0.028,0.021,0.042
				c0.005,0.009,0.009,0.019,0.014,0.028c0.019,0.039,0.039,0.077,0.058,0.116c0.02,0.027,0.046,0.051,0.069,0.076
				c0.047,0.065,0.106,0.115,0.179,0.15c0.079,0.038,0.163,0.057,0.251,0.057c0.088,0,0.172-0.019,0.251-0.057
				c0.072-0.035,0.132-0.085,0.179-0.15c0.022-0.024,0.044-0.047,0.064-0.071c0.037-0.044,0.066-0.127,0.095-0.185
				c0.034-0.069,0.04-0.147,0.047-0.223c0.003-0.032,0.005-0.063,0.008-0.095c0.012-0.132,0.023-0.263,0.035-0.395
				C323.981,435.898,323.962,435.824,323.92,435.758z"/>
			<path style="fill:#D7E5FF;" d="M42.273,442.842c-0.031-0.079-0.082-0.146-0.152-0.198c-0.069-0.061-0.148-0.104-0.236-0.128
				c-0.089-0.039-0.184-0.057-0.283-0.053c-0.183,0.007-0.381,0.053-0.519,0.181c-0.12,0.111-0.225,0.264-0.215,0.436
				c0.006,0.116,0.013,0.232,0.019,0.347l0.009,0.174c0.001,0.026,0.003,0.053,0.004,0.079c0.004,0.062,0.005,0.132,0.027,0.188
				c0.023,0.047,0.047,0.094,0.07,0.14c0.039,0.043,0.078,0.086,0.118,0.128c0.065,0.058,0.139,0.097,0.221,0.12
				c0.084,0.037,0.172,0.053,0.265,0.05c0.061-0.007,0.122-0.014,0.183-0.021c0.113-0.026,0.214-0.075,0.304-0.149
				c0.076-0.081,0.158-0.154,0.188-0.268c0.015-0.056,0.023-0.122,0.026-0.18l0.005-0.087c0.003-0.058,0.006-0.116,0.01-0.174
				c0.006-0.116,0.013-0.231,0.019-0.347C42.34,442.993,42.319,442.914,42.273,442.842z"/>
			<path style="fill:#D7E5FF;" d="M131.803,430.239c-0.023-0.06-0.069-0.102-0.109-0.149c-0.003-0.015-0.006-0.03-0.01-0.045
				c-0.018-0.146-0.036-0.292-0.054-0.439c0.002-0.051-0.011-0.098-0.037-0.14c-0.019-0.047-0.048-0.086-0.09-0.117
				c-0.079-0.067-0.203-0.11-0.307-0.107c-0.108,0.004-0.225,0.031-0.307,0.107c-0.023,0.025-0.045,0.049-0.068,0.074
				c-0.039,0.055-0.058,0.116-0.059,0.184c-0.018,0.146-0.036,0.292-0.054,0.438c-0.001,0.002-0.001,0.004-0.001,0.006
				c-0.052,0.055-0.095,0.118-0.117,0.188c-0.03,0.094-0.03,0.187,0,0.281c0.021,0.071,0.059,0.131,0.112,0.18
				c0.047,0.06,0.106,0.105,0.177,0.136c0.1,0.048,0.206,0.072,0.317,0.072c0.163,0,0.317-0.055,0.445-0.155
				C131.788,430.638,131.871,430.418,131.803,430.239z"/>
			<path style="fill:#D7E5FF;" d="M212.356,425.501c-0.037-0.106-0.098-0.194-0.184-0.266c-0.184-0.171-0.419-0.236-0.665-0.228
				c-0.068,0.002-0.137,0.004-0.205,0.006c-0.137,0.004-0.273,0.008-0.41,0.012c-0.19,0.005-0.389,0.061-0.536,0.186
				c-0.072,0.055-0.124,0.123-0.157,0.205c-0.047,0.074-0.068,0.155-0.065,0.245c0.009,0.173,0.082,0.341,0.222,0.45
				c0.156,0.122,0.337,0.181,0.536,0.186c0.137,0.004,0.273,0.008,0.41,0.012c0.068,0.002,0.137,0.004,0.205,0.006
				c0.243,0.007,0.483-0.06,0.665-0.229c0.068-0.052,0.118-0.116,0.148-0.194c0.044-0.07,0.065-0.147,0.062-0.232
				C212.373,425.607,212.365,425.554,212.356,425.501z"/>
			<path style="fill:#D7E5FF;" d="M65.169,453.065c-0.11-0.085-0.22-0.17-0.335-0.247c-0.116-0.078-0.237-0.152-0.349-0.236
				c-0.221-0.164-0.434-0.341-0.651-0.51c-0.319-0.25-0.86-0.235-1.104,0.12c-0.089,0.13-0.12,0.304-0.071,0.455
				c0.072,0.224,0.276,0.352,0.491,0.413c0.14,0.039,0.28,0.079,0.42,0.118c0.039,0.011,0.413,0.132,0.421,0.118
				c-0.07-0.026-0.08-0.03-0.029-0.012c0.01,0.004,0.02,0.007,0.03,0.011c0.041,0.014,0.081,0.029,0.122,0.043
				c0.071,0.025,0.142,0.051,0.213,0.076c0.163,0.058,0.327,0.107,0.492,0.156c0.133,0.039,0.329-0.016,0.406-0.139
				C65.298,453.313,65.285,453.153,65.169,453.065z"/>
			<path style="fill:#D7E5FF;" d="M182.075,447.437c-0.116-0.081-0.225-0.165-0.367-0.198c-0.103-0.024-0.221-0.021-0.327-0.026
				l-0.426-0.019c-0.279-0.012-0.558-0.025-0.836-0.037c-0.169-0.007-0.374,0.066-0.503,0.175c-0.115,0.097-0.217,0.266-0.208,0.422
				c0.019,0.356,0.363,0.612,0.711,0.597c0.279-0.012,0.558-0.025,0.836-0.037c0.137-0.006,0.273-0.012,0.41-0.018
				c0.111-0.005,0.236-0.002,0.343-0.027c0.142-0.033,0.251-0.117,0.367-0.198C182.279,447.929,182.279,447.58,182.075,447.437z"/>
			<path style="fill:#D7E5FF;" d="M268.659,405.696c-0.08-0.033-0.16-0.072-0.245-0.085c-0.083-0.012-0.166-0.026-0.249-0.035
				c-0.152-0.017-0.307-0.015-0.46-0.02c-0.108-0.004-0.235,0.041-0.318,0.111c-0.073,0.061-0.137,0.168-0.132,0.267
				c0.012,0.227,0.229,0.385,0.449,0.377c0.153-0.005,0.308-0.003,0.46-0.02c0.081-0.009,0.161-0.022,0.242-0.034
				c0.089-0.013,0.17-0.052,0.253-0.086c0.092-0.038,0.163-0.138,0.163-0.238C268.822,405.834,268.752,405.734,268.659,405.696z"/>
			<path style="fill:#D7E5FF;" d="M470.056,420.632c-0.034-0.022-0.067-0.043-0.1-0.065c-0.079-0.038-0.163-0.057-0.25-0.057
				c-0.263-0.026-0.526-0.053-0.789-0.079c-0.08-0.003-0.155,0.011-0.227,0.043c-0.071,0.019-0.134,0.053-0.19,0.102
				c-0.095,0.081-0.18,0.22-0.173,0.35c0.007,0.135,0.064,0.266,0.173,0.35c0.04,0.026,0.08,0.052,0.119,0.077
				c0.094,0.045,0.193,0.068,0.298,0.068c0.263-0.026,0.526-0.052,0.789-0.079c0.067,0.003,0.131-0.009,0.191-0.036
				c0.06-0.016,0.113-0.045,0.16-0.086c0.08-0.068,0.151-0.185,0.145-0.295C470.196,420.813,470.148,420.703,470.056,420.632z"/>
			<path style="fill:#D7E5FF;" d="M442.524,446.934c-0.044-0.115-0.123-0.184-0.226-0.247c-0.248-0.153-0.496-0.306-0.745-0.459
				c-0.248-0.153-0.526-0.268-0.787-0.398c-0.133-0.066-0.305-0.083-0.449-0.049c-0.125,0.029-0.277,0.111-0.348,0.225
				c-0.157,0.253-0.049,0.538,0.209,0.669c0.26,0.132,0.519,0.285,0.79,0.394c0.277,0.111,0.555,0.222,0.832,0.333
				c0.123,0.049,0.248,0.072,0.379,0.042c0.106-0.025,0.234-0.094,0.294-0.19C442.532,447.159,442.565,447.042,442.524,446.934z"/>
			<path style="fill:#D7E5FF;" d="M493.999,464.105c-0.029-0.073-0.076-0.135-0.14-0.184c-0.064-0.057-0.137-0.096-0.219-0.118
				c-0.083-0.036-0.17-0.053-0.262-0.049c-0.169,0.006-0.353,0.049-0.48,0.167c-0.109,0.101-0.213,0.246-0.199,0.404
				c0.012,0.132,0.023,0.263,0.035,0.395c0.009,0.102,0.007,0.219,0.052,0.311c0.007,0.014,0.014,0.028,0.021,0.042
				c0.005,0.009,0.009,0.019,0.014,0.028c0.019,0.039,0.039,0.077,0.058,0.116c0.02,0.027,0.047,0.051,0.069,0.076
				c0.047,0.065,0.106,0.115,0.179,0.15c0.079,0.038,0.163,0.057,0.251,0.057c0.088,0,0.172-0.019,0.251-0.057
				c0.072-0.035,0.132-0.085,0.179-0.15c0.021-0.024,0.044-0.047,0.064-0.071c0.038-0.044,0.066-0.127,0.095-0.185
				c0.034-0.069,0.04-0.147,0.047-0.223c0.003-0.032,0.006-0.063,0.008-0.095c0.012-0.132,0.023-0.263,0.035-0.395
				C494.06,464.244,494.04,464.171,493.999,464.105z"/>
			<path style="fill:#D7E5FF;" d="M212.352,471.189c-0.031-0.079-0.082-0.146-0.152-0.199c-0.07-0.061-0.148-0.104-0.236-0.128
				c-0.089-0.039-0.184-0.057-0.283-0.053c-0.183,0.007-0.381,0.053-0.519,0.181c-0.12,0.111-0.225,0.264-0.215,0.436
				c0.006,0.116,0.013,0.232,0.019,0.347l0.009,0.173c0.002,0.026,0.003,0.053,0.004,0.079c0.003,0.062,0.005,0.131,0.027,0.188
				c0.023,0.047,0.047,0.094,0.071,0.14c0.039,0.043,0.078,0.086,0.118,0.128c0.065,0.058,0.139,0.097,0.221,0.12
				c0.084,0.037,0.172,0.053,0.265,0.05c0.061-0.007,0.122-0.014,0.183-0.021c0.113-0.026,0.214-0.075,0.303-0.149
				c0.077-0.081,0.158-0.154,0.188-0.268c0.015-0.056,0.023-0.122,0.026-0.18l0.005-0.087c0.003-0.058,0.006-0.116,0.01-0.173
				c0.006-0.116,0.013-0.232,0.019-0.347C212.418,471.339,212.397,471.26,212.352,471.189z"/>
			<path style="fill:#D7E5FF;" d="M141.044,417.412c-0.041-0.026-0.081-0.053-0.122-0.079c-0.096-0.046-0.197-0.069-0.304-0.069
				c-0.064-0.006-0.125-0.008-0.189-0.004c-0.06,0.004-0.121,0.007-0.181,0.01c-0.124,0.007-0.247,0.014-0.371,0.021
				c-0.145,0.008-0.289,0.044-0.403,0.14c-0.092,0.078-0.174,0.213-0.167,0.339c0.007,0.13,0.062,0.257,0.167,0.339
				c0.038,0.025,0.077,0.05,0.115,0.075c0.091,0.044,0.187,0.066,0.288,0.066c0.124,0.007,0.247,0.014,0.371,0.021
				c0.061,0.003,0.121,0.007,0.181,0.01c0.064,0.004,0.125,0.001,0.189-0.004c0.081,0.003,0.159-0.012,0.232-0.043
				c0.072-0.019,0.137-0.054,0.194-0.105c0.097-0.083,0.184-0.225,0.176-0.358C141.213,417.632,141.155,417.499,141.044,417.412z"/>
			<path style="fill:#D7E5FF;" d="M113.048,456.62c-0.906,0-0.908,1.207,0,1.207C113.954,457.827,113.956,456.62,113.048,456.62z"/>
			<path style="fill:#D7E5FF;" d="M86.448,33.388c-0.023-0.06-0.069-0.102-0.109-0.149c-0.003-0.015-0.007-0.03-0.01-0.045
				c-0.018-0.146-0.036-0.292-0.054-0.438c0.002-0.051-0.011-0.098-0.037-0.14c-0.019-0.047-0.048-0.086-0.09-0.117
				c-0.079-0.067-0.203-0.111-0.307-0.107c-0.108,0.004-0.225,0.031-0.307,0.107c-0.022,0.025-0.045,0.049-0.068,0.074
				c-0.039,0.055-0.059,0.116-0.059,0.184c-0.018,0.146-0.036,0.292-0.054,0.438c-0.001,0.002-0.001,0.004-0.001,0.006
				c-0.052,0.055-0.095,0.118-0.117,0.188c-0.03,0.094-0.03,0.187,0,0.281c0.021,0.071,0.059,0.131,0.113,0.18
				c0.047,0.06,0.105,0.105,0.176,0.136c0.1,0.048,0.206,0.072,0.317,0.072c0.163,0,0.317-0.055,0.445-0.155
				C86.434,33.788,86.517,33.568,86.448,33.388z"/>
			<path style="fill:#D7E5FF;" d="M167.002,28.65c-0.037-0.106-0.098-0.194-0.184-0.266c-0.184-0.171-0.42-0.236-0.665-0.229
				c-0.068,0.002-0.137,0.004-0.205,0.006c-0.137,0.004-0.274,0.008-0.41,0.012c-0.19,0.005-0.389,0.061-0.536,0.186
				c-0.072,0.055-0.124,0.123-0.157,0.205c-0.047,0.074-0.068,0.156-0.065,0.245c0.009,0.173,0.082,0.341,0.222,0.45
				c0.156,0.122,0.337,0.181,0.536,0.186c0.137,0.004,0.273,0.008,0.41,0.012c0.068,0.002,0.137,0.004,0.205,0.006
				c0.243,0.007,0.483-0.06,0.665-0.229c0.068-0.052,0.117-0.116,0.148-0.194c0.044-0.07,0.065-0.147,0.062-0.232
				C167.019,28.757,167.011,28.704,167.002,28.65z"/>
			<path style="fill:#D7E5FF;" d="M19.815,56.214c-0.11-0.084-0.22-0.17-0.335-0.247c-0.116-0.078-0.237-0.152-0.349-0.236
				c-0.221-0.164-0.434-0.341-0.651-0.51c-0.319-0.25-0.86-0.235-1.104,0.119c-0.089,0.13-0.12,0.304-0.071,0.455
				c0.073,0.224,0.276,0.352,0.491,0.412c0.14,0.039,0.28,0.079,0.421,0.118c0.039,0.011,0.413,0.132,0.42,0.118
				c-0.07-0.026-0.08-0.03-0.029-0.012c0.01,0.004,0.02,0.007,0.03,0.011c0.041,0.014,0.081,0.029,0.122,0.043
				c0.071,0.025,0.142,0.051,0.213,0.076c0.163,0.058,0.326,0.107,0.492,0.156c0.133,0.039,0.329-0.016,0.406-0.139
				C19.944,56.462,19.93,56.303,19.815,56.214z"/>
			<path style="fill:#D7E5FF;" d="M136.721,50.586c-0.115-0.081-0.225-0.165-0.367-0.198c-0.103-0.024-0.22-0.021-0.327-0.026
				l-0.426-0.019c-0.279-0.012-0.558-0.025-0.837-0.037c-0.169-0.007-0.374,0.066-0.503,0.175c-0.115,0.097-0.217,0.266-0.208,0.422
				c0.019,0.356,0.363,0.612,0.711,0.597c0.279-0.012,0.558-0.025,0.837-0.037c0.137-0.006,0.273-0.012,0.41-0.018
				c0.111-0.005,0.236-0.002,0.343-0.027c0.142-0.033,0.251-0.117,0.367-0.198C136.925,51.079,136.925,50.73,136.721,50.586z"/>
			<path style="fill:#D7E5FF;" d="M167.731,119.16c-0.068,0.002-0.137,0.004-0.205,0.006c-0.137,0.004-0.273,0.008-0.41,0.013
				c-0.111,0.003-0.228,0.036-0.315,0.109c-0.072,0.061-0.136,0.166-0.13,0.265c0.013,0.236,0.227,0.367,0.445,0.374
				c0.137,0.004,0.274,0.008,0.41,0.012c0.068,0.002,0.137,0.004,0.205,0.006c0.07,0.002,0.14-0.007,0.206-0.03
				c0.104-0.036,0.21-0.074,0.273-0.174c0.036-0.058,0.062-0.119,0.062-0.188C168.271,119.287,167.962,119.153,167.731,119.16z"/>
			<path style="fill:#D7E5FF;" d="M223.305,8.846c-0.08-0.033-0.16-0.072-0.245-0.085c-0.083-0.012-0.166-0.026-0.249-0.035
				c-0.152-0.017-0.307-0.015-0.46-0.02c-0.108-0.004-0.235,0.041-0.318,0.111c-0.073,0.061-0.137,0.168-0.132,0.267
				c0.012,0.227,0.229,0.384,0.449,0.377c0.153-0.005,0.308-0.003,0.46-0.02c0.081-0.009,0.161-0.022,0.242-0.034
				c0.089-0.013,0.17-0.052,0.253-0.086c0.092-0.038,0.163-0.138,0.163-0.238S223.397,8.884,223.305,8.846z"/>
			<path style="fill:#D7E5FF;" d="M424.702,23.781c-0.033-0.022-0.067-0.043-0.1-0.065c-0.079-0.038-0.162-0.057-0.25-0.057
				c-0.263-0.026-0.526-0.052-0.789-0.079c-0.08-0.003-0.155,0.011-0.227,0.043c-0.071,0.019-0.134,0.053-0.19,0.102
				c-0.095,0.081-0.18,0.22-0.173,0.35c0.007,0.135,0.064,0.266,0.173,0.35c0.04,0.026,0.08,0.052,0.119,0.077
				c0.094,0.045,0.193,0.068,0.298,0.068c0.263-0.026,0.526-0.052,0.789-0.079c0.067,0.003,0.131-0.009,0.191-0.036
				c0.06-0.016,0.113-0.045,0.16-0.086c0.08-0.068,0.151-0.185,0.145-0.295C424.841,23.962,424.794,23.853,424.702,23.781z"/>
			<path style="fill:#D7E5FF;" d="M438.232,140.465c-0.062-0.055-0.133-0.093-0.212-0.115c-0.08-0.035-0.165-0.051-0.254-0.048
				c-0.164,0.006-0.342,0.048-0.467,0.162c-0.112,0.103-0.194,0.234-0.193,0.392l0.002,0.395c0,0.063,0.001,0.126,0.001,0.189
				c0,0.032,0,0.063,0,0.095c0,0.083,0.014,0.156,0.027,0.24c0.022,0.044,0.044,0.087,0.066,0.131
				c0.044,0.066,0.1,0.117,0.168,0.154c0.042,0.035,0.09,0.058,0.144,0.071c0.079,0.035,0.163,0.05,0.251,0.047
				c0.114-0.004,0.225-0.028,0.329-0.075c0.074-0.032,0.135-0.079,0.183-0.141c0.056-0.051,0.095-0.113,0.117-0.186
				c0.013-0.081,0.027-0.153,0.028-0.232c0-0.032,0-0.063,0-0.095c0-0.066,0.001-0.132,0.001-0.197
				c0.001-0.132,0.001-0.263,0.002-0.395C438.426,140.708,438.344,140.56,438.232,140.465z"/>
			<path style="fill:#D7E5FF;" d="M397.169,50.083c-0.044-0.115-0.123-0.184-0.226-0.247c-0.248-0.153-0.496-0.306-0.745-0.459
				c-0.248-0.153-0.526-0.269-0.787-0.398c-0.133-0.066-0.305-0.083-0.448-0.049c-0.126,0.029-0.277,0.111-0.348,0.225
				c-0.157,0.253-0.049,0.538,0.209,0.669c0.26,0.132,0.519,0.285,0.79,0.394c0.277,0.111,0.555,0.222,0.832,0.333
				c0.123,0.049,0.248,0.073,0.379,0.042c0.106-0.025,0.235-0.094,0.294-0.19C397.178,50.308,397.21,50.191,397.169,50.083z"/>
			<path style="fill:#D7E5FF;" d="M448.644,67.255c-0.029-0.074-0.076-0.135-0.141-0.184c-0.064-0.057-0.137-0.096-0.219-0.118
				c-0.083-0.036-0.17-0.053-0.262-0.049c-0.169,0.006-0.352,0.049-0.481,0.167c-0.109,0.101-0.213,0.246-0.199,0.404
				c0.012,0.132,0.023,0.263,0.035,0.395c0.009,0.102,0.007,0.219,0.052,0.311c0.007,0.014,0.014,0.028,0.021,0.042
				c0.005,0.009,0.009,0.019,0.014,0.028c0.019,0.039,0.039,0.077,0.058,0.116c0.02,0.027,0.047,0.051,0.069,0.076
				c0.047,0.065,0.106,0.115,0.179,0.15c0.079,0.038,0.163,0.057,0.251,0.057c0.088,0,0.172-0.019,0.251-0.057
				c0.072-0.035,0.132-0.085,0.179-0.15c0.021-0.024,0.044-0.047,0.064-0.071c0.037-0.044,0.066-0.127,0.095-0.185
				c0.034-0.069,0.04-0.147,0.047-0.223c0.003-0.032,0.006-0.063,0.008-0.095c0.012-0.132,0.023-0.263,0.035-0.395
				C448.706,67.394,448.686,67.321,448.644,67.255z"/>
			<path style="fill:#D7E5FF;" d="M418.218,180.923c-0.064-0.047-0.127-0.076-0.199-0.106c-0.039-0.017-0.08-0.032-0.12-0.044
				c-0.047-0.014-0.097-0.016-0.146-0.018c-0.034-0.001-0.067-0.002-0.101-0.003c-0.134-0.004-0.268-0.008-0.402-0.012
				c-0.103-0.003-0.225,0.039-0.304,0.106c-0.069,0.059-0.131,0.161-0.126,0.255c0.012,0.217,0.219,0.368,0.43,0.361
				c0.134-0.004,0.268-0.008,0.402-0.013c0.031-0.001,0.062-0.002,0.093-0.003c0.049-0.001,0.099-0.004,0.147-0.016
				c0.044-0.011,0.086-0.029,0.127-0.047c0.072-0.031,0.135-0.059,0.199-0.106C418.331,181.193,418.332,181.007,418.218,180.923z"/>
			<path style="fill:#D7E5FF;" d="M462.539,217.917c-0.027-0.039-0.063-0.075-0.094-0.112c-0.082-0.097-0.173-0.187-0.261-0.279
				c-0.134-0.14-0.268-0.28-0.402-0.419c-0.046-0.041-0.099-0.069-0.157-0.085c-0.059-0.026-0.122-0.038-0.188-0.035
				c-0.114,0-0.259,0.04-0.345,0.12c-0.08,0.074-0.149,0.175-0.143,0.29c0.006,0.118,0.058,0.208,0.143,0.29
				c0.138,0.132,0.277,0.265,0.415,0.398c0.068,0.065,0.134,0.134,0.206,0.195c0.036,0.031,0.072,0.063,0.109,0.092
				c0.069,0.054,0.148,0.089,0.233,0.109c0.023,0.005,0.046,0.01,0.069,0.015c0.116,0.026,0.234,0.007,0.334-0.058
				c0.08-0.052,0.162-0.148,0.151-0.253C462.599,218.093,462.594,217.996,462.539,217.917z"/>
			<path style="fill:#D7E5FF;" d="M407.342,360.712c-0.09-0.077-0.232-0.126-0.351-0.122c-0.123,0.005-0.257,0.036-0.351,0.122
				c-0.079,0.073-0.157,0.18-0.145,0.295c0.026,0.263,0.052,0.526,0.078,0.789c0.01,0.1,0.044,0.182,0.122,0.248
				c0.076,0.065,0.196,0.107,0.296,0.103c0.104-0.004,0.217-0.03,0.296-0.103l0.065-0.071c0.037-0.053,0.056-0.112,0.057-0.177
				c0.026-0.263,0.052-0.526,0.078-0.789C407.498,360.9,407.419,360.777,407.342,360.712z"/>
			<path style="fill:#D7E5FF;" d="M305.575,363.075c-0.047-0.066-0.107-0.125-0.161-0.186c-0.082-0.093-0.17-0.177-0.259-0.263
				c-0.122-0.119-0.245-0.238-0.367-0.356c-0.05-0.044-0.107-0.075-0.171-0.092c-0.065-0.028-0.133-0.041-0.205-0.038
				c-0.124,0-0.282,0.044-0.376,0.131c-0.087,0.081-0.162,0.191-0.156,0.315c0.006,0.04,0.013,0.079,0.019,0.119
				c0.027,0.078,0.073,0.144,0.137,0.197l0.443,0.456c0.074,0.076,0.153,0.144,0.232,0.214c0.01,0.009,0.02,0.018,0.03,0.026
				c0.058,0.046,0.113,0.076,0.181,0.1c0.064,0.028,0.131,0.04,0.201,0.038c0.046-0.005,0.093-0.01,0.139-0.016
				c0.006-0.002,0.011-0.004,0.017-0.006c0.006-0.002,0.011-0.004,0.017-0.006c0.035-0.012,0.07-0.025,0.105-0.037
				c0.049-0.022,0.091-0.053,0.123-0.095c0.018-0.02,0.034-0.037,0.05-0.058C305.672,363.39,305.667,363.203,305.575,363.075z"/>
			<path style="fill:#D7E5FF;" d="M207.144,252.026c-0.001-0.047-0.014-0.09-0.042-0.129c-0.011-0.023-0.022-0.045-0.034-0.068
				c-0.011-0.019-0.023-0.039-0.036-0.057c-0.039-0.056-0.092-0.104-0.14-0.153c-0.016-0.017-0.033-0.034-0.049-0.051
				c-0.067-0.069-0.135-0.139-0.202-0.208c-0.135-0.139-0.27-0.278-0.405-0.417c-0.061-0.054-0.13-0.091-0.207-0.112
				c-0.078-0.034-0.161-0.05-0.248-0.047c-0.087-0.003-0.17,0.012-0.248,0.047c-0.077,0.021-0.146,0.058-0.207,0.112
				c-0.106,0.098-0.197,0.231-0.189,0.383c0.008,0.048,0.015,0.096,0.023,0.144c0.033,0.095,0.088,0.175,0.166,0.239
				c0.137,0.133,0.275,0.267,0.412,0.4c0.068,0.066,0.135,0.132,0.203,0.197c0.033,0.032,0.066,0.07,0.103,0.098
				c0.019,0.015,0.04,0.027,0.061,0.041c0.044,0.03,0.09,0.063,0.137,0.088c0.071,0.038,0.147,0.058,0.226,0.061
				c0.031,0.008,0.061,0.01,0.092,0.009c0.053-0.006,0.105-0.012,0.158-0.018c0.075-0.014,0.142-0.044,0.202-0.089
				c0.043-0.021,0.079-0.051,0.107-0.089c0.051-0.046,0.086-0.103,0.106-0.17C207.154,252.149,207.156,252.106,207.144,252.026z"/>
			<path style="fill:#D7E5FF;" d="M166.998,74.338c-0.031-0.079-0.082-0.146-0.152-0.199c-0.07-0.062-0.148-0.104-0.236-0.128
				c-0.089-0.039-0.184-0.057-0.283-0.053c-0.183,0.007-0.381,0.053-0.519,0.181c-0.12,0.111-0.225,0.263-0.215,0.436
				c0.006,0.116,0.013,0.232,0.019,0.347l0.01,0.174c0.001,0.026,0.003,0.053,0.004,0.079c0.003,0.062,0.005,0.131,0.027,0.188
				c0.023,0.047,0.047,0.093,0.071,0.14c0.039,0.043,0.078,0.086,0.118,0.128c0.065,0.058,0.139,0.097,0.221,0.119
				c0.084,0.037,0.172,0.053,0.265,0.05c0.061-0.007,0.122-0.014,0.183-0.021c0.113-0.026,0.214-0.075,0.304-0.149
				c0.076-0.081,0.158-0.154,0.188-0.268c0.015-0.056,0.023-0.122,0.026-0.18l0.005-0.087c0.003-0.058,0.006-0.116,0.01-0.174
				c0.006-0.116,0.013-0.231,0.019-0.347C167.064,74.489,167.043,74.41,166.998,74.338z"/>
			<path style="fill:#D7E5FF;" d="M95.689,20.562c-0.041-0.026-0.081-0.053-0.122-0.079c-0.096-0.046-0.197-0.069-0.304-0.069
				c-0.064-0.006-0.125-0.008-0.189-0.004c-0.06,0.003-0.121,0.007-0.181,0.01c-0.124,0.007-0.247,0.014-0.371,0.021
				c-0.145,0.008-0.289,0.044-0.403,0.14c-0.092,0.078-0.174,0.213-0.167,0.339c0.007,0.13,0.062,0.257,0.167,0.339
				c0.039,0.025,0.077,0.05,0.115,0.075c0.091,0.044,0.187,0.066,0.288,0.066c0.124,0.007,0.247,0.014,0.371,0.021
				c0.061,0.003,0.121,0.007,0.181,0.01c0.064,0.004,0.125,0.001,0.189-0.004c0.082,0.003,0.159-0.011,0.232-0.044
				c0.072-0.019,0.137-0.054,0.194-0.105c0.097-0.082,0.184-0.225,0.176-0.358C95.859,20.782,95.801,20.648,95.689,20.562z"/>
			<path style="fill:#D7E5FF;" d="M67.694,59.769c-0.906,0-0.908,1.208,0,1.208C68.6,60.977,68.602,59.769,67.694,59.769z"/>
		</g>
	</g>
</g>
<g id="OBJECTS">
	<g>
		<rect x="105.325" y="30.857" style="fill:#FA6784;" width="92.804" height="371.774"/>
		<circle style="fill:#E25A1E;" cx="320.03" cy="326.456" r="77.267"/>
		<g>
			<g>
				
					<ellipse transform="matrix(0.7071 -0.7071 0.7071 0.7071 -38.7791 131.6472)" style="fill:#2B292E;" cx="139.523" cy="112.634" rx="44.859" ry="44.859"/>
				<circle style="fill:none;stroke:#FFFFFD;stroke-miterlimit:10;" cx="139.523" cy="112.634" r="35.503"/>
				<circle style="fill:none;stroke:#FFFFFD;stroke-miterlimit:10;" cx="139.523" cy="112.634" r="26.715"/>
				<circle style="fill:none;stroke:#FFFFFD;stroke-miterlimit:10;" cx="139.523" cy="112.634" r="15.977"/>
			</g>
			<g>
				
					<ellipse transform="matrix(0.7071 -0.7071 0.7071 0.7071 -98.6659 153.3274)" style="fill:#2B292E;" cx="135.75" cy="195.764" rx="44.859" ry="44.859"/>
				<circle style="fill:none;stroke:#FFFFFD;stroke-miterlimit:10;" cx="135.75" cy="195.764" r="35.503"/>
				<circle style="fill:none;stroke:#FFFFFD;stroke-miterlimit:10;" cx="135.75" cy="195.764" r="26.715"/>
				<circle style="fill:none;stroke:#FFFFFD;stroke-miterlimit:10;" cx="135.75" cy="195.764" r="15.977"/>
			</g>
			<path style="fill:#FFFFFD;" d="M154.085,374.678c0.684,53.779,44.484,97.167,98.426,97.167c53.942,0,97.742-43.387,98.426-97.167
				H154.085z"/>
			<path style="fill:#49BDCC;" d="M208.82,328.23h87.381v52.57c0,21.884-17.741,39.625-39.625,39.625h-8.13
				c-21.884,0-39.625-17.741-39.625-39.625V328.23z"/>
			<polygon style="fill:#2B292E;" points="190.882,404.552 296.572,372.013 295.063,331.146 200.178,331.146 			"/>
			<circle style="fill:#49BDCC;" cx="357.853" cy="195.108" r="25.58"/>
			
				<rect x="160.739" y="83.971" transform="matrix(0.9758 -0.2186 0.2186 0.9758 -40.4139 54.7459)" style="fill:#FEE066;" width="132.855" height="252.03"/>
			<g>
				
					<ellipse transform="matrix(0.2254 -0.9743 0.9743 0.2254 92.4559 262.3188)" style="fill:#2B292E;" cx="211.199" cy="73.014" rx="44.859" ry="44.859"/>
				<circle style="fill:none;stroke:#FFFFFD;stroke-miterlimit:10;" cx="211.199" cy="73.014" r="35.503"/>
				<circle style="fill:none;stroke:#FFFFFD;stroke-miterlimit:10;" cx="211.199" cy="73.014" r="26.715"/>
				<circle style="fill:none;stroke:#FFFFFD;stroke-miterlimit:10;" cx="211.199" cy="73.014" r="15.977"/>
			</g>
			<polygon style="fill:#49BDCC;" points="195.354,102.495 357.853,109.48 356.085,339.104 324.95,369.099 238.553,370.768 			"/>
			<path style="fill:#FA6784;" d="M244.708,333.012c0.531,0,1.053-0.026,1.574-0.054v0.108
				C245.761,333.038,245.239,333.012,244.708,333.012c-11.044,0-19.997,6.102-19.997,13.63s8.953,13.629,19.997,13.629
				c0.531,0,1.053-0.026,1.574-0.054v0.027c0.636,0.013,1.272,0.027,1.915,0.027c27.797,0,50.33-12.21,50.33-27.272
				c0-15.062-22.534-27.272-50.33-27.272c-0.642,0-1.278,0.013-1.915,0.026v0.054c-0.521-0.028-1.042-0.054-1.574-0.054
				c-11.044,0-19.997,6.102-19.997,13.63C224.711,326.909,233.664,333.012,244.708,333.012z"/>
			
				<ellipse transform="matrix(0.9422 -0.3351 0.3351 0.9422 -59.6997 79.5962)" style="fill:#FFA6BB;" cx="200.838" cy="212.821" rx="28.615" ry="28.615"/>
			
				<ellipse transform="matrix(0.1616 -0.9869 0.9869 0.1616 14.4891 521.1007)" style="fill:#FFA6BB;" cx="313.938" cy="252.023" rx="28.615" ry="28.615"/>
			<g>
				
					<ellipse transform="matrix(0.7071 -0.7071 0.7071 0.7071 -54.331 190.9492)" style="fill:#FFFFFD;" cx="203.331" cy="161.058" rx="33.394" ry="33.394"/>
				<circle style="fill:#49BDCC;" cx="203.331" cy="161.058" r="22.38"/>
				<circle style="fill:#49BDCC;" cx="203.331" cy="161.058" r="22.38"/>
				<circle style="fill:#2B292E;" cx="203.331" cy="161.058" r="14.722"/>
				<path style="fill:#2B292E;" d="M234.789,149.842c-4.609-12.925-16.95-22.179-31.458-22.179
					c-14.284,0-26.468,8.971-31.239,21.585C198.488,139.403,222.325,145.184,234.789,149.842z"/>
				<circle style="fill:#FFA6BB;" cx="181.74" cy="140.813" r="2.059"/>
				<circle style="fill:#FFA6BB;" cx="198.779" cy="140.413" r="2.059"/>
				<circle style="fill:#FFA6BB;" cx="201.271" cy="133.016" r="2.059"/>
				<circle style="fill:#FFA6BB;" cx="213.258" cy="133.016" r="2.059"/>
				<circle style="fill:#FFA6BB;" cx="208.33" cy="139.673" r="2.059"/>
				<circle style="fill:#FFA6BB;" cx="227.551" cy="144.276" r="2.059"/>
				<path style="fill:#FFA6BB;" d="M190.005,132.024c1.077-0.366,2.247,0.21,2.613,1.287c0.366,1.077-0.21,2.247-1.287,2.613
					c-1.077,0.366-2.247-0.21-2.613-1.287C188.352,133.56,188.928,132.39,190.005,132.024z"/>
				<path style="fill:#FFA6BB;" d="M216.347,139.782c1.077-0.366,2.247,0.21,2.613,1.287c0.366,1.077-0.21,2.247-1.287,2.613
					c-1.077,0.366-2.247-0.21-2.613-1.287C214.693,141.318,215.27,140.148,216.347,139.782z"/>
				<path style="fill:#FFA6BB;" d="M221.988,136.803c1.077-0.366,2.247,0.21,2.613,1.287c0.366,1.077-0.21,2.247-1.287,2.613
					c-1.077,0.366-2.247-0.21-2.613-1.287C220.335,138.339,220.912,137.169,221.988,136.803z"/>
				<circle style="fill:#FFA6BB;" cx="190.025" cy="141.732" r="2.059"/>
				
					<ellipse transform="matrix(0.9117 -0.4109 0.4109 0.9117 -50.0263 91.4237)" style="fill:#FFFFFD;" cx="187.664" cy="162.087" rx="12.245" ry="12.245"/>
			</g>
			<g>
				
					<ellipse transform="matrix(0.1619 -0.9868 0.9868 0.1619 60.4092 481.9692)" style="fill:#FFFFFD;" cx="313.938" cy="205.422" rx="33.394" ry="33.394"/>
				
					<ellipse transform="matrix(0.1613 -0.9869 0.9869 0.1613 60.5658 482.1127)" style="fill:#49BDCC;" cx="313.938" cy="205.422" rx="22.38" ry="22.38"/>
				
					<ellipse transform="matrix(0.1613 -0.9869 0.9869 0.1613 60.5658 482.1127)" style="fill:#49BDCC;" cx="313.938" cy="205.422" rx="22.38" ry="22.38"/>
				
					<ellipse transform="matrix(0.1609 -0.987 0.987 0.1609 60.674 482.2118)" style="fill:#2B292E;" cx="313.938" cy="205.422" rx="14.722" ry="14.723"/>
				<path style="fill:#2B292E;" d="M345.396,194.207c-4.609-12.925-16.95-22.179-31.458-22.179
					c-14.284,0-26.468,8.971-31.239,21.585C309.095,183.767,332.932,189.548,345.396,194.207z"/>
				<path style="fill:#FA6784;" d="M282.699,216.713c4.609,12.925,16.95,22.179,31.458,22.179c14.284,0,26.468-8.971,31.239-21.585
					C318.999,227.152,295.163,221.371,282.699,216.713z"/>
				<circle style="fill:#FFFFFD;" cx="298.271" cy="206.451" r="12.245"/>
			</g>
			
				<ellipse transform="matrix(0.55 -0.8352 0.8352 0.55 -120.5677 338.0597)" style="fill:none;stroke:#FEE066;stroke-width:7;stroke-linecap:round;stroke-linejoin:round;stroke-miterlimit:10;" cx="253.401" cy="280.904" rx="18.348" ry="18.348"/>
			<polygon style="fill:#2B292E;" points="253.424,106.263 278.428,285.265 226.594,285.265 			"/>
			<circle style="fill:#FEE066;" cx="149.84" cy="195.108" r="25.58"/>
			<path style="fill:#FFFFFD;" d="M150.982,237.425c0.288-1.151-8.928-41.661-8.928-41.661l-9.714,41.355l-26.803-7.886
				l13.961,26.309l-20.045,26.326l30.12-8.583l16.408,30.906l5.711-33.819l32.002,5.993l-20.729-20.823l14.681-31.927
				L150.982,237.425z"/>
			<path style="fill:#FFFFFD;" d="M376.396,247.891c0.288-1.152-8.928-41.661-8.928-41.661l-9.714,41.355l-26.803-7.886
				l13.962,26.309l-20.045,26.326l30.12-8.583l16.408,30.906l5.711-33.819l32.002,5.993l-20.729-20.823l14.681-31.927
				L376.396,247.891z"/>
			<g>
				
					<ellipse transform="matrix(0.7071 -0.7071 0.7071 0.7071 10.1869 286.5059)" style="fill:#2B292E;" cx="350.937" cy="130.956" rx="44.859" ry="44.859"/>
				<circle style="fill:none;stroke:#FFFFFD;stroke-miterlimit:10;" cx="350.937" cy="130.956" r="35.503"/>
				<circle style="fill:none;stroke:#FFFFFD;stroke-miterlimit:10;" cx="350.937" cy="130.956" r="26.715"/>
				<circle style="fill:none;stroke:#FFFFFD;stroke-miterlimit:10;" cx="350.937" cy="130.956" r="15.977"/>
			</g>
			<g>
				<path style="fill:#E25A1E;" d="M374.635,146.335l-14.719-35.481l-0.13-0.03c0.769-3.707,1.18-7.544,1.18-11.48
					c0-31.121-25.229-56.35-56.35-56.35c-27.262,0-50,19.36-55.221,45.081l-36.136,16.224L374.635,146.335z"/>
				<g>
					<polygon style="fill:#FFFFFD;" points="229.015,97.225 235.044,109.974 242.434,111.899 234.359,94.826 					"/>
					<path style="fill:#FFFFFD;" d="M250.537,83.472l16.47,34.828l7.389,1.925l-20.993-44.391
						C252.274,78.291,251.308,80.84,250.537,83.472z"/>
					<path style="fill:#FFFFFD;" d="M266.464,57.889l32.506,68.737l7.389,1.925l-35.238-74.513
						C269.5,55.239,267.946,56.524,266.464,57.889z"/>
					<path style="fill:#FFFFFD;" d="M288.551,45.331l42.382,89.621l7.389,1.925L294.368,43.93
						C292.39,44.293,290.451,44.767,288.551,45.331z"/>
					<path style="fill:#FFFFFD;" d="M323.488,46.244c-2.419-0.86-4.911-1.568-7.469-2.094l46.878,99.128l7.389,1.925L323.488,46.244
						z"/>
				</g>
			</g>
		</g>
	</g>
</g>
</svg>
