<?xml version="1.0" encoding="utf-8"?>
<!-- Generator: Adobe Illustrator 27.5.0, SVG Export Plug-In . SVG Version: 6.00 Build 0)  -->
<svg version="1.1" xmlns="http://www.w3.org/2000/svg" xmlns:xlink="http://www.w3.org/1999/xlink" x="0px" y="0px"
	 viewBox="0 0 750 500" style="enable-background:new 0 0 750 500;" xml:space="preserve">
<g id="BACKGROUND">
</g>
<g id="OBJECTS">
	<g>
		<g>
			<rect x="84.109" y="78.89" style="fill:#FFDFE6;" width="150.62" height="342.22"/>
			<g>
				<path style="opacity:0.62;fill:#FFA830;" d="M154.599,101.75c-1.01,8.09-2.64,16.23-6.4,23.47
					c-3.76,7.23-9.89,13.52-17.65,16.01c-6.62,2.13-14.87,1.92-18.92,7.57c-3.03,4.23-2.26,9.96-1.65,15.13
					c1.26,10.69,1.29,21.53,0.09,32.22c-0.85,7.52-2.92,15.9-9.46,19.72c-5.06,2.96-11.35,2.07-16.5-0.95v-92.96
					c2.94-2.03,6.19-3.57,9.71-4.48c5.76-1.49,12.33-1.41,16.82-5.32c6.48-5.65,4.87-15.82,4.27-24.4c-0.2-2.88-0.13-5.91,0.29-8.87
					h38.75C155.919,86.17,155.549,94.16,154.599,101.75z"/>
				<path style="fill:#AAD0C2;" d="M234.729,180.17v150.14c-2.86-3.65-5.55-7.47-8.3-9.47c-10.64-7.71-22.51-2.1-34.01-5.95
					c-8.53-2.86-14.07-11.57-15.56-20.44c-1.49-8.87,0.38-17.94,2.61-26.66c1.44-5.61,3.55-11.82,8.78-14.31
					c4.42-2.1,9.71-0.83,14.46-2.01c8.54-2.14,13.26-11.98,12.64-20.76c-0.47-6.64-3.25-12.93-3.95-19.55
					c-0.78-7.34,1.12-14.94,5.27-21.06C220.719,184.14,227.689,179.48,234.729,180.17z"/>
				<path style="fill:#F2BACA;" d="M160.549,393c-0.59,9.46-4.14,18.82-5.81,28.11h-70.63v-89.63c0.69,0.6,1.4,1.15,2.15,1.63
					c0.93,0.6,2.08,1.11,3.11,0.71c0.78-0.29,1.29-1.02,1.72-1.72c2.22-3.58,3.82-7.54,6.41-10.86c2.59-3.31,6.57-5.98,10.74-5.5
					c3.15,0.36,5.88,2.48,7.69,5.07c3.42,4.92,3.86,11.36,3.05,17.29c-0.81,5.94-2.74,11.67-3.66,17.59
					c-0.88,5.67-0.8,11.5,0.22,17.15c0.43,2.41,1.08,4.87,2.66,6.75c4.2,4.99,12.2,3.3,18.2,0.71c5.99-2.58,13.1-5.6,18.64-2.14
					C159.739,381.1,160.889,387.46,160.549,393z"/>
			</g>
			<g style="opacity:0.62;">
				<path style="fill:#FFFFFF;" d="M207.879,255.2c-10.8-9.29-22.49-17.4-34.13-25.57c15.58,14.01,32.15,27.13,45.43,43.46
					c6.16,7.58,11.6,15.98,15.55,24.97v1.53c-5.6-12.92-14.3-24.59-23.91-34.74c-13.45-14.22-28.94-26.26-43.25-39.57
					c-7.49-5.32-14.9-10.75-21.96-16.63c-9.36-7.81-18.13-16.4-25.36-26.25c-7.22-9.84-12.64-20.89-15.94-32.65
					c-6.41-22.81-4.86-47.57,4.9-69.21c0.25-0.55,0.5-1.1,0.77-1.65h1.13c-1.71,3.55-3.21,7.21-4.48,10.95
					c-7.82,23.02-6.68,48.75,2.62,71.16c9.66,23.27,28.26,40.78,48.03,55.66c1.82,1.36,3.66,2.71,5.5,4.05
					c-0.25-0.25-0.51-0.5-0.77-0.75c-7.64-7.52-14.82-15.57-20.77-24.51c-5.9-8.85-10.46-18.57-13.54-28.76
					c-6.02-19.91-6.33-41.41-0.58-61.41c2.66-9.24,6.54-18.16,11.52-26.39h1.26c-6.55,10.78-11.27,22.67-13.79,35.04
					c-4.23,20.82-1.94,42.81,6.12,62.44c7.82,19.06,21.35,34.51,36.22,48.42c17.26,12.27,35.01,23.97,49.94,39.1
					c6.08,6.16,11.68,12.99,16.34,20.38v1.29C227.549,274.1,218.049,263.95,207.879,255.2z"/>
			</g>
		</g>
		<g>
			<path style="fill:#8C3A46;" d="M140.509,198.614c-0.092-8.699-7.22-9.666-9.183-8.286
				c-14.659,10.312-34.104,70.237-35.086,79.539s7.424,19.609,21.225-1.801C131.267,246.656,140.602,207.313,140.509,198.614z"/>
			<g>
				<path style="fill:#C0AE8E;" d="M223.569,421.11H99.329c3.17-19.78,14.48-85.35,33.77-144.88c0.36-1.12,0.73-2.24,1.1-3.35
					c0.65-2,1.32-3.98,2-5.96l0.27,0.02l13.03,0.96l4.05,0.3l2.59,0.19l10.16,0.75l9.74,0.72l14.28,1.06c0,0,0,0.01,0.01,0.04
					c0.03,0.09,0.11,0.31,0.23,0.67c0.15,0.47,0.38,1.18,0.68,2.09c0.08,0.27,0.17,0.54,0.27,0.84c0.09,0.3,0.19,0.61,0.3,0.94
					c0.32,0.99,0.68,2.13,1.08,3.42c0.2,0.64,0.4,1.3,0.62,2.01c0.49,1.57,1.02,3.31,1.59,5.21
					C202.909,312.07,218.059,367.23,223.569,421.11z"/>
				<g style="opacity:0.42;">
					<path style="fill:#62311D;" d="M136.599,296.73c-0.43,1.19-0.85,2.4-1.28,3.6c-3.46,9.83-6.46,19.82-9.1,29.9
						c-2.65,10.09-4.88,20.28-6.85,30.52c-1.98,10.27-3.65,20.6-5.13,30.95c-1.4,9.79-2.62,19.59-3.75,29.41h-1.15
						c0.09-0.83,0.18-1.65,0.28-2.48c1.22-10.36,2.55-20.7,4.11-31.01c1.56-10.34,3.32-20.64,5.41-30.88
						c2.09-10.22,4.5-20.36,7.3-30.41c2.8-10.04,6.03-19.98,9.8-29.7C136.319,296.4,136.679,296.5,136.599,296.73z"/>
					<path style="fill:#62311D;" d="M144.129,351.3c-1.06,8.18-2.14,16.37-3.18,24.55c-1.86,14.5-3.56,29.03-5.07,43.57
						c-0.06,0.56-0.12,1.13-0.17,1.69h-0.65c0.88-8.78,1.84-17.55,2.87-26.32c1.69-14.54,3.54-29.08,5.78-43.55
						C143.749,351.01,144.159,351.06,144.129,351.3z"/>
					<path style="fill:#62311D;" d="M208.219,421.11h-0.97c-0.03-0.45-0.06-0.91-0.09-1.36c-0.78-11.64-1.85-23.27-3.21-34.87
						c-1.37-11.73-3.04-23.43-4.99-35.07c-1.94-11.57-4.09-23.13-6.6-34.59c-0.05-0.22,0.28-0.31,0.33-0.09
						c0.32,1.41,0.63,2.83,0.97,4.24c2.69,11.47,4.88,23.08,6.81,34.69c1.91,11.5,3.53,23.05,4.85,34.63
						C206.539,399.47,207.509,410.28,208.219,421.11z"/>
					<path style="fill:#62311D;" d="M172.389,299.4c-0.3,14.36-0.66,28.72-1.04,43.07c-0.68,25.58-1.68,51.15-2.79,76.71
						c-0.03,0.64-0.06,1.29-0.09,1.93h-1.21c0.68-14.99,1.32-29.98,1.91-44.97c1-25.58,1.93-51.15,2.67-76.74
						C171.849,299.05,172.399,299.05,172.389,299.4z"/>
				</g>
				<g>
					<path style="fill:#62311D;" d="M142.814,278.2c12.208,2.371,24.503,3.53,36.945,3.414c4.599-0.043,9.185-0.287,13.758-0.682
						c-1.977-6.4-3.194-10.015-3.194-10.015l-54.123-4.001c-1.056,3.084-2.088,6.193-3.101,9.318
						C136.362,276.849,139.608,277.578,142.814,278.2z"/>
					<path style="fill:#FFA830;" d="M166.379,269.21c-0.02-0.02-0.05-0.04-0.08-0.07c-0.73-0.49-4.15-0.96-7.73-1.24
						c-2.1-0.17-4.25-0.27-5.94-0.27c-1.56,0-2.73,0.08-3.13,0.27c-0.05,0.02-0.08,0.05-0.11,0.07c-0.21,0.2-0.38,0.91-0.52,1.91
						c-0.02,0.18-0.04,0.37-0.07,0.58c-0.28,2.58-0.36,6.52-0.27,8.76c0.04,0.89,0.1,1.52,0.2,1.68c0.45,0.76,15.6,1.93,16.73,1.29
						c0.17-0.1,0.34-0.45,0.5-0.98c0.39-1.31,0.71-3.72,0.85-6.05c0.06-1.01,0.09-2,0.07-2.88
						C166.859,270.73,166.709,269.53,166.379,269.21z M164.779,275.44l-0.18-0.03c-0.24-0.04-0.47-0.07-0.71-0.11
						c-0.47-0.06-0.94-0.12-1.41-0.17c-0.46-0.04-0.93-0.1-1.39,0.02c-0.25,0.07-0.45,0.43-0.27,0.66c0.53,0.71,1.29,1,2.15,1.09
						c0.43,0.05,0.87,0.05,1.31,0.04c0.11,0,0.23,0,0.34-0.01c-0.2,1.63-0.53,3-0.87,3.18c-0.88,0.45-12.7-0.38-13.05-0.92
						c-0.3-0.46-0.24-6.24,0.22-8.41c0.09-0.4,0.19-0.68,0.3-0.78c0.31-0.27,2.57-0.29,5.15-0.17c3.51,0.17,7.58,0.61,8.09,1.06
						c0.18,0.16,0.3,0.62,0.35,1.27c0.06,0.57,0.07,1.29,0.03,2.06C164.829,274.62,164.809,275.03,164.779,275.44z"/>
				</g>
			</g>
			<g>
				<path style="fill:#B23A62;" d="M138.832,267.985c-4.088-1.882-10.234-3.828-9.996-9.077c0.238-5.249-14.898-54.305,2.491-68.58
					c5.758-4.727,35.586-1.704,45.122-0.999c9.537,0.704,32.256,7.589,35.927,13.47c2.277,3.648-15.347,53.985-15.482,60.935
					c-0.135,6.95-3.872,7.014-8.025,8.436C184.717,273.591,148.138,272.268,138.832,267.985z"/>
				<path style="fill:#FFA830;" d="M159.617,187.299c-1.188,0.557-2.284,1.282-3.225,2.209c-1.757,1.732-2.838,4.035-3.641,6.368
					c-0.612,1.778-1.426,4.252-0.583,6.07c0.47,1.013,1.497,1.684,2.576,1.97c1.508,0.399,3.273,0.291,4.75-0.197
					c0.719-0.238,1.408-0.57,2.039-0.991c0.327-0.218,1.563-0.978,1.595-1.401c-0.094,1.251,0.195,2.203,0.749,3.328
					c0.331,0.672,0.784,1.305,1.411,1.714c1.448,0.945,3.377,0.479,4.975-0.181c6.005-2.479,11.096-7.239,13.537-13.306
					c0.48-1.192,0.856-2.542,0.392-3.739c-0.492-1.267-1.813-2.028-3.129-2.366c-4.715-1.211-9.955-1.319-14.786-1.034
					C163.997,185.878,161.669,186.337,159.617,187.299z"/>
				<path style="opacity:0.64;fill:#B23A62;" d="M202.15,212.867c-2.43,0.808-5.499,1.34-6.875,3.759
					c-0.928,1.63-1.128,3.69-1.439,5.507c-0.369,2.162-0.714,4.337-1.425,6.419c-1.235,3.622-3.477,6.511-6.195,9.15
					c-2.651,2.575-5.596,4.723-5.776,8.716c-0.152,3.366,0.724,6.681,0.387,10.057c-0.367,3.674-1.515,7.169-3.165,10.46
					c-0.989,1.972-2.15,3.846-3.369,5.682c7.236,0.221,13.062,0.069,14.575-0.448c4.152-1.421,7.89-1.485,8.025-8.436
					c0.108-5.593,11.54-39.276,14.815-54.122C208.851,211.287,204.882,211.959,202.15,212.867z"/>
				<g>
					<path style="fill:#F5BE9C;" d="M158.121,193.625c0,0,0.504,5.498,7.768,5.806c6.412,0.272,12.733-3.866,13.736-8.663
						l-1.467-14.884l-21.576,2.126L158.121,193.625z"/>
					<path style="fill:#D5311D;" d="M157.863,191.002l-1.28-12.992l21.576-2.126l0.64,6.497
						C175.773,186.803,165.663,196.646,157.863,191.002z"/>
				</g>
			</g>
			<g>
				<g>
					<path style="fill:#62311D;" d="M202.169,116.54c-0.4-1.59-1.19-3.04-2.16-4.37c-0.33-0.78-0.71-1.54-1.11-2.28
						c-1.28-2.37-2.81-4.66-4.85-6.42c-0.55-0.48-1.15-0.9-1.77-1.3c-0.2-0.17-0.4-0.34-0.61-0.5c-2.76-2.08-6.12-3.17-9.52-3.63
						c-3.08-0.42-6.59-0.44-9.2,1.52c-2.16,1.62-3.41,4.51-3,7.2c-0.05,0.21-0.1,0.42-0.13,0.64h-0.01
						c-0.01,0.05-0.02,0.11-0.02,0.16c-0.03,0.12-0.05,0.24-0.06,0.37c-0.01,0.1-0.02,0.21-0.03,0.31
						c-0.02,0.28-0.03,0.56-0.01,0.84c0,0.09,0.01,0.18,0.01,0.28c0.21,2.91,2.42,5.59,4.3,7.68c1.5,1.67,3.24,3.15,5.14,4.39
						c2,1.32,4.18,2.37,6.43,3.13c1.14,0.38,2.36,0.71,3.61,0.91c1.56,0.26,3.17,0.35,4.72,0.14c0.18-0.01,0.36-0.02,0.53-0.04
						c0.32-0.01,0.64-0.05,0.96-0.09c0.33-0.05,0.66-0.1,1-0.18c0.54-0.1,1.07-0.24,1.59-0.42c0.75-0.26,1.46-0.6,2.09-1.08
						C202.259,122.14,202.809,119.09,202.169,116.54z M172.939,100.41c2.32-2.02,5.67-2.07,8.57-1.72c0.87,0.11,1.75,0.26,2.62,0.46
						c-2.8-0.42-5.68-0.24-8.26,0.89c-2.35,1.03-4.36,2.97-5.41,5.28C170.659,103.46,171.479,101.68,172.939,100.41z M200.399,122.7
						c-0.68,0.78-1.59,1.28-2.55,1.62c-0.09,0.04-0.19,0.07-0.28,0.1c0.28-0.16,0.55-0.33,0.82-0.52c2.07-1.5,3.01-4.22,2.88-6.78
						c-0.03-0.66-0.13-1.32-0.27-1.97C202.059,117.56,202.229,120.61,200.399,122.7z"/>
					<path style="opacity:0.33;fill:#62311D;" d="M197.854,124.313c-0.095,0.034-0.188,0.075-0.284,0.107
						c0.09-0.051,0.175-0.114,0.264-0.167c-0.12-0.416-0.257-0.829-0.42-1.238c-2.255-5.676-7.742-10.012-13.007-12.76
						c-2.375-1.239-4.866-2.293-7.46-2.975c-2.262-0.595-4.973-0.944-7.137,0.123c-0.117,0.641-0.159,1.297-0.111,1.959
						c0.215,2.914,2.424,5.592,4.298,7.679c3.083,3.433,7.197,6.053,11.568,7.52c2.564,0.861,5.557,1.425,8.339,1.051
						c0.495-0.024,0.99-0.064,1.483-0.133c0.863-0.121,1.75-0.309,2.596-0.602C197.938,124.689,197.906,124.499,197.854,124.313z"/>
				</g>
				<path style="fill:#F5BE9C;" d="M134.66,160.781c5.068,18.603,16.413,31.648,31.269,27.601
					c14.856-4.047,27.597-23.654,22.53-42.257c-5.068-18.603-21.219-30.402-36.075-26.355
					C137.528,123.817,129.593,142.178,134.66,160.781z"/>
				<g style="opacity:0.08;">
					<path style="fill:#D5311D;" d="M167.823,187.214c-2.213-6.265-1.826-14.957,3.53-19.641c3.915-3.423,11.902-4.416,16.002-0.657
						c-3.561,9.697-10.985,17.65-19.344,20.781C167.949,187.536,167.88,187.376,167.823,187.214z"/>
					<path style="fill:#D5311D;" d="M145.917,173.265c3.687,3.304,6.15,8.529,5.861,13.573c-5.871-3.151-10.676-9.393-14.11-17.402
						C140.646,169.548,143.606,171.195,145.917,173.265z"/>
				</g>
				<g>
					<g>
						<path d="M166.234,159.256c0.484,1.801,0.002,3.497-1.077,3.787c-1.079,0.29-2.347-0.935-2.831-2.737
							c-0.484-1.801-0.002-3.497,1.077-3.787C164.482,156.229,165.749,157.454,166.234,159.256z"/>
						<path style="fill:#D5311D;" d="M149.218,166.976c-0.043-0.13-0.118-0.288-0.125-0.427c-0.01-0.2-0.093-0.153,0.167-0.12
							c0.356,0.046,0.795,0.007,1.146-0.057c0.59-0.107,1.094-0.425,1.403-0.945c0.641-1.078,0.372-2.528,0.026-3.654
							c-0.438-1.423-1.215-2.848-2.342-3.838c-0.157-0.138-0.488-0.008-0.392,0.228c0.588,1.443,1.444,2.754,1.833,4.282
							c0.173,0.678,0.328,1.473,0.096,2.156c-0.294,0.867-1.109,0.76-1.87,0.816c-0.554,0.041-1.112,0.265-1.112,0.914
							c0,0.605,0.368,1.31,0.67,1.817c0.695,1.164,1.715,2.004,3.005,2.413c0.294,0.093,0.484-0.352,0.211-0.5
							C150.707,169.401,149.658,168.313,149.218,166.976z"/>
						<path style="fill:#D5311D;" d="M162.275,168.674c-1.854,1.468-3.564,2.974-5.856,3.735c-2.522,0.837-5.158,0.796-7.721,0.183
							c-0.426-0.102-0.563,0.483-0.177,0.64c2.605,1.062,5.626,1.08,8.289,0.218c2.304-0.746,4.802-2.171,5.986-4.373
							C162.985,168.726,162.562,168.447,162.275,168.674z"/>
						<path d="M145.422,161.153c0.432,1.605,0.073,3.097-0.801,3.332c-0.874,0.235-1.932-0.876-2.364-2.481
							c-0.432-1.605-0.073-3.097,0.801-3.332C143.932,158.437,144.99,159.548,145.422,161.153z"/>
					</g>
					<path style="fill:#62311D;" d="M156.012,150.578c0.077-0.407,0.416-0.808,0.749-1.081c1.776-1.455,4.264-1.605,6.501-1.048
						c1.131,0.282,2.21,0.725,3.202,1.277c0.874,0.486,2.371,1.206,2.524,2.227c0.036,0.239-0.111,0.518-0.378,0.566
						c-0.202,0.036-0.398-0.064-0.575-0.156c-2.949-1.543-6.838-2.23-10.068-0.948c-0.558,0.221-1.233,0.391-1.706-0.073
						C156.022,151.106,155.963,150.84,156.012,150.578z"/>
					<path style="fill:#62311D;" d="M143.582,150.574c-0.378-0.156-0.765-0.244-1.084-0.31c-0.916-0.19-1.821-0.144-2.638,0.146
						c-1.249,0.443-2.287,1.454-2.917,2.84c-0.163,0.358-0.424,0.901-0.389,1.38c0.03,0.415,0.34,0.861,0.604,0.536
						c0.932-1.144,2.068-2.095,3.385-2.539c1.019-0.344,2.141-0.356,3.281,0.042c0.382,0.133,0.838,0.292,1.065-0.028
						c0.185-0.261,0.108-0.751-0.102-1.098C144.495,151.06,144.046,150.766,143.582,150.574z"/>
				</g>
				<g>
					<path style="fill:#62311D;" d="M194.429,125.57c-0.09-0.21-0.18-0.41-0.27-0.61c-0.58-1.27-1.2-2.49-1.84-3.62
						c-0.1-0.19-0.2-0.37-0.31-0.55c-0.48-0.82-0.96-1.58-1.44-2.27c-0.51-0.73-1.07-1.36-1.66-1.9c-1.07-1-2.22-1.72-3.36-2.23
						c-0.74-0.34-1.47-0.6-2.16-0.79c-2.32-0.64-4.12-0.55-4.12-0.55c-0.79-2.72-3.92-3.64-7.14-3.9c-0.82-0.06-1.64-0.08-2.44-0.07
						c-1.1,0.01-2.14,0.08-3.03,0.13c-9.55,0.62-18.22,5.33-25.21,11.65c-1.2,1.07-2.34,2.21-3.39,3.42
						c-0.01,0.01-0.01,0.01-0.02,0.02c-0.06,0.07-0.13,0.15-0.19,0.22c-2.23,2.6-4.11,5.61-5.18,8.87
						c-0.04,0.13-0.08,0.25-0.13,0.38c-0.47,1.51-0.77,3.09-0.85,4.69c-0.08,1.5-0.03,3.06,0.85,4.33c0.28,0.42,0.63,0.73,1.01,0.96
						c0.7,0.44,1.53,0.63,2.39,0.77c0.79,0.13,1.83,0.27,2.05,0.09c0.23-0.19,0.22-0.46,0.25-1.02c0.15-2.5,0.34-4.59,0.98-7.03
						c0.11-0.4,0.22-0.8,0.34-1.19c0.02-0.07,0.04-0.14,0.07-0.21c0.21-0.68,0.44-1.36,0.69-2.02c0,0.03,0.01,0.05,0,0.08
						c-0.17,0.65-0.35,1.31-0.51,1.98c-0.01,0.06-0.03,0.12-0.04,0.18c-0.7,2.94-1.17,5.98-0.87,8.97c0.03,0.33,0.3,0.59,0.64,0.62
						c0.29,0.03,0.58,0.05,0.87,0.07c0.45,0.04,0.81-0.36,0.74-0.8c-0.06-0.4-0.11-0.8-0.15-1.18c-0.17-1.6-0.24-3.2-0.1-4.8
						c0.07-0.75,0.17-1.47,0.31-2.19v-0.01c0.01-0.03,0.01-0.06,0.02-0.09c0.41-2.04,1.1-3.99,1.94-5.92
						c-0.5,1.54-0.86,3.12-1.06,4.72c-0.08,0.63-0.14,1.25-0.17,1.88c0,0.07-0.01,0.15-0.01,0.22c-0.06,1.01-0.04,2.01,0.03,3.01
						c0.08,1.02,0.2,2.12,0.46,3.17c0.03,0.47,0.08,0.93,0.14,1.39c0.05,0.43,0.42,0.75,0.85,0.76c1.55,0.03,5.16,0.05,7.27-0.35
						c0.87-0.17,1.36-1.04,1.14-1.9c-0.63-2.44-0.97-4.89-1.02-7.35c0-0.12-0.01-0.24-0.01-0.36c-0.02-0.74,0-1.49,0.04-2.23
						c0.04,0.45,0.09,0.9,0.16,1.35c0.04,0.28,0.09,0.55,0.15,0.83c0.02,0.1,0.04,0.21,0.06,0.31c0.24,1.25,0.57,2.47,0.96,3.68
						c0.27,0.84,0.54,1.7,0.86,2.54c0.12,0.4,0.24,0.8,0.37,1.2c0.24,0.74,1.03,1.17,1.77,0.91c0.24-0.09,0.47-0.18,0.71-0.28
						c1.59-0.69,3.06-1.77,3.99-3.25c0.9-1.43,1.23-3.17,1.21-4.87c-0.03-2.08-0.57-4.09-1.05-6.1c-0.16-0.7-1.07-2.74-0.2-3.29
						c0.93,0.99,1.72,2.11,2.3,3.34c0.94,1.99,1.71,4.05,2.82,5.97c1.01,1.74,2.28,3.35,3.88,4.58c1.37,1.07,3.02,1.69,4.64,2.27
						c1.54,0.54,3.38,0.96,4.54,2.19c0.79,0.84,1.01,2.08,0.96,3.24c-0.05,1.59-0.41,3.16-0.4,4.76c0.01,3.01,3.59,3.19,4.21-0.53
						c0.15-0.91,0.46-1.68,0.93-2.33c0.94-1.36,2.56-2.23,4.9-2.85c1.67-0.43,3.7-0.75,6.11-1.02c0.76-0.08,1.38-0.35,1.87-0.77
						C199.789,142.18,197.779,133.09,194.429,125.57z M168.969,138.55c-1.56-1.37-2.72-3.12-3.7-4.93
						c-0.99-1.85-1.72-3.84-2.83-5.61c-0.29-0.47-0.62-0.9-0.97-1.3c1.21,1.12,2.54,3.13,2.94,3.68c1.16,1.57,2.14,3.05,2.95,4.84
						c0.53,1.16,1.05,2.36,1.76,3.43C169.069,138.62,169.019,138.59,168.969,138.55z"/>
					<path style="opacity:0.47;fill:#62311D;" d="M194.159,124.96c-0.62,0.12-1.25,0.17-1.87,0.17c-1.15-0.01-2.41-0.16-3.38,0.5
						c-1.5,1.02-1.59,3.55-3.25,4.31c-1.52,0.7-3.18-0.63-4.86-0.79c-1.03-0.11-2.1,0.27-2.85,1.01c-0.69,0.68-1.08,1.59-1.61,2.4
						c-0.52,0.81-1.29,1.56-2.23,1.63c-1,0.07-1.87-0.66-2.56-1.39c-1.47-1.57-2.65-3.43-3.45-5.45c-0.28-0.71-0.52-1.52-0.26-2.25
						c0.42-1.17,1.83-1.52,3.03-1.74c5.37-0.94,10.75-2.3,15.51-5.02c0.88-0.5,1.74-1.05,2.53-1.72c0.59,0.54,1.15,1.17,1.66,1.9
						c0.48,0.69,0.96,1.45,1.44,2.27c0.11,0.18,0.21,0.36,0.31,0.55C192.959,122.47,193.579,123.69,194.159,124.96z"/>
					<path style="opacity:0.47;fill:#62311D;" d="M157.479,129.69c0.03,1.04-0.06,2.08-0.27,3.09c-0.18,0.94-0.54,1.94-1.37,2.4
						c-1.02,0.58-2.28,0.09-3.45-0.02c-0.42-0.04-0.83-0.03-1.25,0.03c-0.06-0.28-0.11-0.55-0.15-0.83
						c-0.07-0.45-0.12-0.9-0.16-1.35c-0.04,0.74-0.06,1.49-0.04,2.23h-0.01c-0.13,0.03-0.27,0.06-0.4,0.1
						c-0.48,0.14-0.95,0.34-1.38,0.61c-0.82,0.52-1.49,1.25-2.28,1.83c-0.79,0.57-1.79,0.99-2.73,0.74
						c-0.87-0.23-1.46-0.94-2.06-1.65c0-0.07,0.01-0.15,0.01-0.22c0.03-0.63,0.09-1.25,0.17-1.88c0.2-1.6,0.56-3.18,1.06-4.72
						c-0.84,1.93-1.53,3.88-1.94,5.92c-0.01,0.03-0.01,0.06-0.02,0.09c-0.13-0.13-0.26-0.25-0.4-0.35
						c-0.22-0.18-0.47-0.33-0.74-0.43c-0.08-0.03-0.17-0.06-0.26-0.08c0.16-0.67,0.34-1.33,0.51-1.98c0.01-0.03,0-0.05,0-0.08
						c-0.25,0.66-0.48,1.34-0.69,2.02c-0.09-0.02-0.19-0.03-0.28-0.04c-0.07,0-0.14-0.01-0.21-0.01c-1.4-0.02-2.89,0.81-4.31,0.52
						c-1-0.2-1.8-0.95-2.29-1.86c0.05-0.13,0.09-0.25,0.13-0.38c1.07-3.26,2.95-6.27,5.18-8.87c0.06-0.07,0.13-0.15,0.19-0.22
						c0.01-0.01,0.01-0.01,0.02-0.02c0.38,0.19,0.79,0.36,1.21,0.51c2.03,0.72,4.19,1.16,6.31,1.45c2.38,0.34,4.8,0.45,7.2,0.32
						c1.53-0.08,3.36-0.12,4.21,1.15C157.379,128.28,157.459,129,157.479,129.69z"/>
				</g>
				<g>
					<path style="fill:#F5BE9C;" d="M188.471,163.572c5.996,1.351,10.726-7.716,10.471-13.561
						c-0.255-5.845-7.284-9.907-12.639-4.792C180.949,150.334,182.475,162.221,188.471,163.572z"/>
					<g>
						<path style="fill:#FFA830;" d="M189.961,160.957c-0.581,0.021-4.456,9.075,0.416,9.075
							C195.249,170.032,191.251,160.91,189.961,160.957z"/>
						<path style="fill:#D5311D;" d="M188.964,167.458c0.028,0.233,0.097,0.461,0.211,0.666c0.184,0.332,0.476,0.613,0.833,0.742
							c0.873,0.314,1.483-0.359,1.664-1.145c0.199-0.864,0.006-1.831-0.943-2.101C189.528,165.278,188.839,166.419,188.964,167.458z
							"/>
					</g>
					<path style="fill:#D5311D;" d="M189.365,158.803c-0.751-1.145-1.358-2.271-1.616-3.637c-0.257-1.356-0.264-2.747,0.02-4.1
						c0.297-1.414,0.979-2.809,2.136-3.711c0.512-0.399,1.089-0.703,1.727-0.845c0.583-0.13,1.53-0.2,1.957,0.292
						c0.251,0.29,0.214,0.711-0.124,0.92c-0.403,0.249-0.965,0.175-1.423,0.296c-0.465,0.122-0.928,0.359-1.302,0.66
						c-0.232,0.187-0.433,0.4-0.611,0.63c0.909,0.101,1.767,0.46,2.469,1.09c0.423,0.379,0.786,0.856,1.039,1.364
						c0.14,0.281,0.247,0.581,0.32,0.886c0.033,0.138,0.059,0.278,0.077,0.418c0.029,0.228-0.028,0.392-0.118,0.599
						c-0.128,0.292-0.622,0.355-0.821,0.108c-0.097-0.12-0.194-0.229-0.244-0.378c-0.042-0.122-0.064-0.251-0.102-0.375
						c-0.06-0.198-0.139-0.382-0.228-0.568c-0.202-0.425-0.459-0.8-0.8-1.124c-0.582-0.554-1.368-0.923-2.173-1.029
						c-0.231,0.522-0.388,1.081-0.489,1.634c-0.38,2.083-0.02,4.6,1.013,6.465C190.325,158.858,189.651,159.238,189.365,158.803z"/>
				</g>
			</g>
			<g>
				<path style="fill:#FFE8C2;" d="M115.554,224.413l-20.575-25.894c0,0,1.691-1.67,1.979-1.766
					c0.288-0.096,17.637,23.147,17.637,23.147l-16.583-24.057l17.541,24.057c0,0,38.246-9.242,44.86-9.772
					c6.614-0.53,7.277,1.962,7.277,1.962L115.554,224.413z"/>
				<path style="fill:#C68CD4;" d="M177.019,263.18c0.07,0.52-0.28,1.01-0.79,1.11l-42.73,8.73l-2.18,0.45l-1.81,0.37
					c-0.07,0.02-0.13,0.02-0.2,0.02c-0.34,0-0.67-0.17-0.85-0.47l-16.17-26.25c-0.04-0.05-0.06-0.11-0.09-0.17l-18.88-49.77
					c-0.18-0.47,0.01-0.99,0.45-1.23c0.43-0.24,0.97-0.13,1.28,0.26l20.28,26.17l53.63-11.27c0.27-0.06,0.56,0,0.78,0.16
					c0.23,0.16,0.38,0.41,0.42,0.69L177.019,263.18z"/>
				<path style="opacity:0.43;fill:#C68CD4;" d="M122.099,251.408c-2.03-8.098-5.693-18.805-7.4-26.995
					c-0.311-0.968-20.256-27.009-21.206-28.219c-0.23,0.271-0.306,0.653-0.174,1.002l18.883,49.777
					c0.023,0.06,0.05,0.116,0.083,0.17l15.658,25.41C126.002,265.503,123.878,258.503,122.099,251.408z"/>
				<path style="opacity:0.43;fill:#C68CD4;" d="M133.499,273.02l-2.18,0.45c-1.66-5.54-13.91-46.73-13.2-47.78
					C118.809,224.66,131.339,265.9,133.499,273.02z"/>
			</g>
			<g>
				<path style="fill:#B23A62;" d="M106.19,234.469c-1.83-1.808-3.768-3.554-5.947-4.936c-0.727-0.461-1.639-0.97-2.519-1.16
					c-0.081,0.006-0.168,0-0.247,0.009c-1.651,0.185-1.787,2.628-2.108,3.964c-1.968,8.196-3.105,16.722-3.409,25.141
					c-0.163,4.498-0.093,9.09,0.806,13.517c0.635,3.127,1.739,6.685,4.399,8.696c0.287,0.217,0.582,0.415,0.903,0.575
					c0.634,0.349,1.33,0.585,2.094,0.707c1.442,0.236,2.798,0.066,4.058-0.434c1.972-0.774,3.564-2.277,4.858-3.917
					c3.726-4.725,7.283-28.827,5.634-31.919C113.063,241.62,110.782,239.007,106.19,234.469z"/>
				<path style="fill:#FFA830;" d="M91.871,232.302c-0.436,1.419-0.097,3.133,1.071,4.049c1.048,0.822,2.593,0.929,3.453,1.946
					c0.795,0.939,0.723,2.307,1.043,3.495c0.521,1.929,2.404,3.517,4.395,3.339c0.88-0.079,1.754-0.473,2.617-0.285
					c0.869,0.189,1.497,0.916,2.111,1.558c0.691,0.722,1.467,1.398,2.401,1.751c0.934,0.353,2.057,0.335,2.864-0.255
					c1.092-0.799,1.327-2.371,2.312-3.299c0.875-0.824,2.377-1.238,2.505-2.434c0.084-0.78-0.528-1.469-1.199-1.876
					c-0.67-0.407-1.443-0.651-2.044-1.154c-1.706-1.428-1.345-4.213-2.611-6.042c-1.33-1.921-4.115-2.34-5.545-4.187
					c-0.649-0.839-0.958-1.901-1.609-2.738c-0.826-1.062-2.223-1.676-3.556-1.486c-1.332,0.19-2.528,1.215-2.845,2.523
					c-0.087,0.36-0.117,0.747-0.315,1.059c-0.563,0.885-1.86,0.436-2.679,0.883C93.173,229.732,92.218,231.174,91.871,232.302z"/>
				<path id="XMLID_2_" style="fill:#F5BE9C;" d="M109.846,222.524c-0.981,0.289-5.817,3.564-7.939,5.501
					c1.317-1.236,2.258-2.247,3.582-3.349c1.473-1.226,4.257-2.994,3.507-4.138c-0.75-1.144-3.173-0.977-6.026,0.16
					c-3.377,1.345-5.638,3.273-6.702,4.082c-1.133,0.861-2.596,3.007-1.653,5.307c1.695,4.135,3.957,8.093,6.889,11.144
					c3.252,3.386,5.024,1.987,7.618,1.065c3.256-1.158,6.786-7.401,5.549-9.28c-1.237-1.879-3.535,3.243-7.353,4.497
					c2.823-0.934,7.519-7.535,6.628-10.166c-0.469-1.386-1.82-0.338-2.474,0.283c-1.952,1.856-3.563,4.306-6.135,5.264
					c1.717-1.376,6.123-5.639,6.739-7.897C112.656,222.879,110.969,222.194,109.846,222.524z"/>
			</g>
			<g>
				<path style="fill:#F5BE9C;" d="M146.986,259.486c-5.311-1.483-12.688-5.043-16.296-7.286c-3.825-2.374-3.762-3.652-0.676-2.641
					c2.934,0.961,6.058,2.523,6.303,1.975c0.128-0.278-2.341-0.977-5.307-2.896c-3.439-2.225-5.915-4.203-4.906-5.183
					c1.009-0.98,8.486,2.981,11.089,3.935c2.367,1.335-5.958-4.051-8.477-6.92c-2.959-2.975-2.167-5.038,2.021-2.122
					c4.27,2.825,7.572,4.805,8.921,4.961c-0.664-1.093-1.867-1.907-6.127-5.941c-3.055-3.141-1.649-4.812,1.862-2.478
					c4.21,2.845,9.943,7.884,11.299,6.85c0.565-1.107-1.142-2.094-2.629-6.495c-1.459-4.451,2.547-0.017,5.624,3.284
					c3.137,3.517,7.765,5.905,10.466,8.047c3.627,2.921,5.88,3.544,4.377,7.776c-0.877,2.469-1.629,6.635-5.065,7.607
					C156.708,262.738,151.782,260.756,146.986,259.486z"/>
				<path style="fill:#B23A62;" d="M220.387,272.052c-0.393,3.509-0.944,7.054-2.116,10.387c-0.707,1.998-1.715,4.411-3.732,5.516
					c-10.959,6.02-66.991-19.828-67.989-25.556c-0.217-1.246-0.012-2.908,0.457-4.756c0.056-0.203,0.113-0.407,0.169-0.61
					c1.88-6.541,6.947-14.904,9.279-14.904c8.134,0,39.859,17.291,40.163,16.955c1.121-1.185-4.789-35.112-4.126-47.62
					c0.231-4.358,2.39-8.513,6.417-10.705c3.357-1.83,7.675-1.998,11.039,0c0.232,0.141,0.465,0.292,0.688,0.451
					c0.369,0.265,0.731,0.566,1.075,0.893c3.552,3.412,4.373,8.981,5.34,13.428c1.995,9.202,3.011,18.581,3.61,27.889
					C221.274,252.958,221.465,262.603,220.387,272.052z"/>
				<path style="fill:#FFA830;" d="M140.918,262.018c-0.57-0.55-1.079-1.397-0.698-2.092c0.414-0.755,1.495-0.703,2.286-1.043
					c1.258-0.541,1.728-2.128,1.588-3.489c-0.14-1.362-0.723-2.642-0.934-3.994c-0.063-0.407-0.077-0.87,0.199-1.176
					c0.404-0.447,1.146-0.275,1.666,0.03c0.52,0.305,1.044,0.723,1.644,0.667c0.879-0.082,1.32-1.095,1.485-1.962
					c0.303-1.59,0.295-3.238-0.024-4.825c-0.07-0.348-0.132-0.77,0.134-1.006c0.144-0.128,0.349-0.16,0.542-0.166
					c0.742-0.024,1.457,0.246,2.19,0.363c0.733,0.116,1.581,0.035,2.059-0.533c0.301-0.357,0.398-0.842,0.439-1.307
					c0.126-1.435-0.156-2.991,0.568-4.237c0.079-0.137,0.177-0.273,0.322-0.337c0.362-0.161,0.728,0.202,0.959,0.524
					c0.981,1.365,1.992,2.803,2.223,4.468c0.201,1.447-0.212,2.905-0.678,4.29c-1.678,4.985-4.091,9.684-6.495,14.362
					c-0.891,1.734-1.645,3.578-3.77,3.647C144.542,264.269,142.415,263.465,140.918,262.018z"/>
			</g>
		</g>
	</g>
	<g>
		<g>
			<path style="fill:#FFDFE6;" d="M448.857,78.89v342.22h-150.61V230.13c0-0.01,0-0.02,0-0.02V78.89H448.857z"/>
			<g>
				<path style="opacity:0.62;fill:#FFA830;" d="M448.857,346.01v75.1h-94.44c-2.76-7.9-2.13-17.71,0.41-26.07
					c1.31-4.33,3.45-8.69,7.27-11.14c7.11-4.55,16.37-0.73,24.1,2.68c7.73,3.4,17.91,5.88,23.7-0.27c3.61-3.85,3.93-9.62,4.46-14.87
					c0.61-6.01,1.78-12.07,4.64-17.4c2.86-5.32,7.6-9.86,13.45-11.37C438.057,341.22,443.967,342.77,448.857,346.01z"/>
				<path style="fill:#AAD0C2;" d="M396.607,121.64c-0.11,3.25-1.3,6.37-2.67,9.32c-2.55,5.52-6.33,11.17-12.21,12.71
					c-6.85,1.79-13.91-2.84-17.99-8.64c-4.07-5.79-6.17-12.74-9.75-18.85c-1.51-2.59-3.41-5.12-6.12-6.41
					c-3.9-1.85-8.52-0.71-12.59,0.72c-6.03,2.11-11.85,4.83-17.35,8.1c-5.88,3.48-13.03,7.96-19.68,4.23V78.89h89.48
					c-1.29,8.62-0.16,17.58,3.23,25.61C393.317,110.1,396.817,115.57,396.607,121.64z"/>
				<path style="fill:#F2BACA;" d="M448.857,137.65v159.82c-1.92-0.87-3.77-1.96-5.55-3.06c-11.06-6.82-21.83-14.56-29.75-24.87
					c-7.91-10.32-12.72-23.58-10.58-36.41c0.73-4.39,2.55-9.01,6.41-11.23c2.99-1.73,6.62-1.71,9.98-2.47
					c8.16-1.87,14.84-9.03,16.14-17.29c1.34-8.49-2.54-16.83-4.2-25.26c-1.74-8.88-0.99-18.24,2.15-26.72
					c1.58-4.25,3.93-8.49,7.83-10.79C443.587,138.01,446.217,137.49,448.857,137.65z"/>
			</g>
			<g style="opacity:0.62;">
				<path style="fill:#FFFFFF;" d="M386.087,271.75c-13.64,23.34-35.27,41.25-59.45,52.92c-9.14,4.41-18.65,7.98-28.39,10.82v-1.29
					c12.98-3.8,25.55-8.9,37.36-15.66c23.76-13.59,44.52-33.83,55.4-59.26c10.96-25.64,11.56-55.81-1.51-80.79
					c-6.48-12.36-15.32-23.28-22.11-35.46c-5.79-10.41-9.46-21.54-9.82-33.43c-0.52,1.01-1.05,2.02-1.54,3.05
					c-5.55,11.58-9.04,24.3-8.74,37.21c0.3,13.24,4.98,25.6,10.47,37.47c5.55,12.01,11.83,23.78,15.06,36.68
					c3.04,12.15,2.94,24.78-2.52,36.24c-5.32,11.18-14.45,20.2-24.38,27.38c-9.83,7.11-20.69,12.73-32.04,16.99
					c-5.12,1.92-10.34,3.58-15.63,4.99v-1.34c8.32-2.22,16.48-5.05,24.37-8.64c11.33-5.16,22.24-11.82,31.44-20.26
					c9.3-8.53,16.96-19.35,19.03-32.03c2.18-13.3-1.78-26.76-6.89-38.94c-5.04-12-11.51-23.38-15.76-35.72
					c-4.15-12.08-5.42-24.66-3.13-37.26c1.79-9.86,5.44-19.3,10.24-28.09c0.06-9.75,2.12-19.48,5.94-28.44h0.98
					c-3.56,8.37-5.57,17.41-5.84,26.5c0.95-1.67,1.94-3.32,2.96-4.93c4.86-7.65,10.5-14.98,16.83-21.57h1.29
					c-0.46,0.48-0.91,0.97-1.36,1.45c-7.61,8.27-14.39,17.4-19.75,27.3c0.01,4.09,0.37,8.18,1.12,12.21
					c2.53,13.62,9.94,25.44,17.51,36.8c7.72,11.58,15.53,23.13,19.55,36.6C404.577,219.38,399.737,248.4,386.087,271.75z"/>
			</g>
		</g>
		<g>
			<g>
				<path style="fill:#A23D35;" d="M378.058,143.638c-0.739-1.244-1.67-2.374-2.797-3.285c-2.01-1.623-4.494-2.54-7.005-1.864
					c-3.867,1.04-5.686,5.108-8.866,7.19c-4.26,2.789-9.679,3.679-14.649,2.57c-1.891-0.422-3.726-1.115-5.561-1.777
					c-1.15-0.738-2.279-1.491-3.418-2.065c-3.809-1.921-8.001-1.585-11.883-0.039c-3.396,1.352-6.491,3.547-8.589,6.572
					c-2.148,3.098-3.122,7.107-2.283,10.815c0.236,1.043,0.635,2.058,1.163,3.006c-3.828-2.373-8.773-2.718-13.107-1.301
					c-3.063,1.001-5.835,2.761-8.232,4.897c-3.585,3.195-5.964,7.412-7.534,11.905c-1.35,3.865-2.186,8.717,1.101,11.876
					c1.916,1.841,4.723,2.3,7.188,3.292c2.465,0.992,4.957,3.18,4.539,5.804c-0.396,2.485-3.094,3.797-4.664,5.764
					c-2.633,3.299-1.75,8.395,0.903,11.679c3.134,3.879,8.495,5.817,13.385,4.837c4.89-0.98,9.091-4.833,10.488-9.62
					c2.923,2.622,7.225,3.36,11.06,2.515c3.835-0.845,7.235-3.109,10.057-5.84c2.884-2.791,5.307-6.223,6.143-10.148
					c0.602-2.827,0.355-5.757,0.54-8.641c0.185-2.884,0.905-5.925,3-7.916c2.919-2.775,7.422-2.658,11.403-3.269
					c5.265-0.808,9.895-3.246,13.708-6.919c3.871-3.729,5.79-9.065,6.375-14.315C381.092,154.24,380.747,148.168,378.058,143.638z
					 M297.065,167.604c-3.034,1.378-5.725,3.468-7.869,6.018c1.077-1.695,2.536-3.198,3.958-4.512
					c4.277-3.953,10.028-6.635,15.946-5.602c2.039,0.356,4.023,1.123,5.719,2.302c0.337,0.744,0.768,1.442,1.331,2.045
					C310.24,164.981,303.049,164.887,297.065,167.604z M331.725,144.731c-5.54-0.082-10.54,3.542-13.934,7.922
					c-1.702,2.196-3.138,4.678-3.626,7.413c-0.134,0.751-0.179,1.522-0.147,2.289c-0.012-0.039-0.03-0.075-0.042-0.114
					c-1.076-3.599-0.188-7.544,1.827-10.644c1.967-3.027,5.03-5.255,8.351-6.594c1.915-0.772,3.974-1.277,6.046-1.285
					c2.07-0.008,3.982,0.572,5.79,1.555c0.182,0.099,0.364,0.202,0.546,0.307C334.965,145.104,333.373,144.756,331.725,144.731z"/>
				<path style="opacity:0.33;fill:#A23D35;" d="M378.058,143.638c-0.739-1.244-1.67-2.374-2.797-3.285
					c-2.01-1.623-4.494-2.54-7.005-1.864c-3.867,1.04-5.686,5.108-8.866,7.19c-0.884,0.579-1.828,1.056-2.798,1.471
					c0.001,0.124,0.003,0.253,0.001,0.371c-0.046,2.706,0.008,5.411-0.028,8.117c-0.06,4.549-0.718,9.099-2.373,13.355
					c-2.498,6.424-7.119,11.52-13.065,14.959c-6.753,3.905-14.253,6.424-20.258,11.568c-6.195,5.307-9.867,12.701-9.354,20.935
					c0.109,1.757,0.402,3.483,0.829,5.175c2.788-1.787,4.962-4.552,5.892-7.737c2.923,2.622,7.225,3.36,11.06,2.515
					c3.835-0.845,7.235-3.109,10.057-5.84c2.884-2.791,5.307-6.223,6.143-10.148c0.602-2.827,0.355-5.757,0.54-8.641
					c0.185-2.884,0.905-5.925,3-7.916c2.919-2.775,7.422-2.658,11.403-3.269c5.265-0.808,9.895-3.246,13.708-6.919
					c3.871-3.729,5.79-9.065,6.375-14.315C381.092,154.24,380.747,148.168,378.058,143.638z"/>
			</g>
			<g>
				<path style="fill:#F5BE9C;" d="M371.303,198.743c-3.066,7.848,13.714,68.6,32.94,78.79
					c19.227,10.191,39.217-49.387,39.217-49.387l-18.423-9.208c0,0-12.256,35.192-15.047,35.184
					c-2.791-0.007-10.287-37.415-15.853-47.263c-5.566-9.848-17.7-19.066-22.59-8.7L371.303,198.743z"/>
				<path style="fill:#D5311D;" d="M390.293,252.932c0.703-5.218,1.417-10.497,1.473-15.767c0.059-5.589-0.353-11.228-1.254-16.743
					c-1.347-8.247-3.716-16.253-5.941-24.294c-4.985-3.405-10.207-3.94-13.024,2.033l-0.245,0.583
					c-2.212,5.661,5.904,38.848,17.815,60.73C389.597,257.324,389.995,255.15,390.293,252.932z"/>
				<path style="fill:#A23D35;" d="M428.242,236.615l-1.317,0.721c-0.36,0.197-0.811,0.062-1.004-0.3l-22.551-42.372
					c-0.189-0.356-0.057-0.798,0.296-0.992l0,0c0.352-0.193,0.793-0.068,0.992,0.28l23.868,41.65
					C428.732,235.961,428.603,236.417,428.242,236.615z"/>
			</g>
			<g>
				<g>
					<path style="fill:#FFFFFF;" d="M388.052,198.767c-7.738-12.521-43.29-31.152-48.06-30.641
						c-7.002,0.75-18.13,16.074-22.167,32.885c-4.037,16.812,0.972,44.059-1.917,47.865c-2.889,3.806-5.386,9.347,0,12.079
						c1.905,0.966,4.075,1.523,6.108,2.143c3.589,1.096,7.208,2.094,10.833,3.059c8.259,2.198,16.574,4.253,24.959,5.915
						c1.696,0.336,3.4,0.637,5.109,0.899c1.321,0.203,2.805,0.917,4.149,0.498c1.437-0.448,1.806-1.955,1.845-3.295
						c0.065-2.196-0.248-4.329,0.338-6.476c0.581-2.127,1.663-4.092,2.921-5.892c2.753-3.936,5.999-7.593,9.414-10.959
						c1.083-1.068,2.188-2.139,3.398-3.065C388.447,241.132,395.79,211.289,388.052,198.767z"/>
					<path style="fill:#F5BE9C;" d="M318.175,213.624c2.222,1.82,5.094,1.094,7.412-0.135c4.6-2.441,8.47-6.575,11.808-10.49
						c3.851-4.517,7.149-9.664,8.965-15.348c1.529-4.786,2.081-10.055,1.169-15.02c-0.147-0.803-0.351-1.581-0.579-2.347
						c-3.387-1.462-5.912-2.27-6.958-2.158c-7.003,0.75-18.13,16.073-22.167,32.885c-0.775,3.225-1.214,6.836-1.442,10.59
						C316.944,212.43,317.599,213.153,318.175,213.624z"/>
				</g>
				<g>
					<path style="fill:#7486C2;" d="M424.267,421.11h-46.57c-6.49-23.63-30.28-91.32-34.43-88.45c-4.02,2.78-1.73,64.03-2.24,88.45
						h-42.54c-1.48-20.67-7.91-67.86-5.53-95.85c1.92-22.59,12.05-40.08,17.03-51.72v-0.01c0.24-0.56,0.48-1.1,0.71-1.63
						c2.86-6.47,5.12-10.23,5.52-10.47c0.11-0.06,0.22-0.13,0.33-0.17c4.39-2.28,7.86,1.39,11.95-3.25
						c1.65-1.88,3.98-9.37,6.68-17.97c4.14-13.16,9.15-28.91,13.95-31.09c0.66-0.3,1.47-0.45,2.41-0.46
						c2.02-0.05,4.63,0.52,7.54,1.48c4.34,1.42,9.36,3.72,14.09,6.16c5.03,2.58,9.75,5.33,13.02,7.35c2.1,1.3,3.61,2.31,4.22,2.78
						c0.03,0.03,0.07,0.05,0.1,0.1c0.6,0.52,0.89,1.49,0.94,2.72v0.01c0.01,0.13,0.01,0.25,0.01,0.38c0.01,1.26-0.2,2.76-0.52,4.37
						c-0.04,0.16-0.07,0.32-0.11,0.49c-1.1,5.03-3.38,10.89-4.45,13.3c-0.31,0.7-0.94,1.6-1.77,2.65
						c-4.12,5.18-13.36,13.87-14.56,19.27c-1.11,4.99,10.67,14.12,19.31,35.09C398.947,327.89,418.787,404.36,424.267,421.11z"/>
					<g>
						<path d="M389.577,421.11h-0.99c-0.52-1.43-1.05-2.86-1.58-4.29c-5.7-15.27-11.55-30.48-17.61-45.61
							c-3.04-7.57-6.11-15.12-9.22-22.65c-1.56-3.76-3.13-7.52-4.71-11.27c-1.5-3.6-3.08-7.18-4.46-10.83
							c-0.14,0.09-0.29,0.17-0.44,0.25c-2.87,1.73-5.63,3.64-8.34,5.61c-0.31,0.22-0.7-0.28-0.41-0.52
							c2.63-2.14,5.44-4.05,8.33-5.81c2.87-1.75,5.87-3.46,9.03-4.64c0.32-0.13,0.53,0.39,0.23,0.55c-2.66,1.47-5.38,2.82-8.01,4.34
							c0.38,0.78,0.76,1.56,1.11,2.35c3.27,7.41,6.42,14.88,9.54,22.35c3.14,7.53,6.22,15.07,9.25,22.64
							c3.05,7.6,6.04,15.23,8.99,22.87c2.93,7.6,5.81,15.23,8.63,22.87C389.137,419.92,389.357,420.52,389.577,421.11z"/>
						<path d="M314.407,266.3c-0.49,1.27-0.97,2.54-1.47,3.81c-3.99,10.31-6.94,21.01-8.99,31.87c-2.06,10.91-3.18,21.98-3.53,33.07
							c-0.35,11.29,0.13,22.6,1.25,33.83c1.16,11.63,3.02,23.18,5.37,34.62c1.21,5.9,2.59,11.76,4.04,17.61h-0.98
							c-1.82-7.31-3.44-14.67-4.87-22.07c-2.2-11.38-3.88-22.87-4.86-34.43c-0.96-11.29-1.24-22.65-0.67-33.97
							c0.56-11.1,1.94-22.18,4.27-33.05c2.29-10.75,5.45-21.45,9.93-31.5C314.027,265.8,314.527,266.01,314.407,266.3z"/>
					</g>
					<path style="fill:#363150;" d="M358.351,225.661l22.405,9.557c0,0-6.364,20.421-20.214,15.757
						C346.691,246.312,358.351,225.661,358.351,225.661z"/>
					<path style="fill:#363150;" d="M350.572,213.475c-0.378-0.98,4.009-13.185,2.382-25.122s-4.633-17.265-4.968-17.895
						c-0.335-0.63,7.84,1.895,8.733,4.617s3.409,6.976,3.783,17.617c0.375,10.641-2.069,21.903-3.071,22.63
						C356.43,216.047,350.951,214.455,350.572,213.475z"/>
					<path style="fill:#363150;" d="M385.296,228.293c-0.366-0.816,3.311-11.053,1.737-20.994
						c-1.574-9.941-4.925-14.901-5.248-15.426c-0.324-0.524,5.047,3.208,6.452,5.185c1.43,2.012,3.446,6.389,4.08,14.074
						c0.729,8.839-0.587,19.15-1.557,19.755C389.79,231.492,385.661,229.109,385.296,228.293z"/>
					<path style="fill:#FFA830;" d="M348.45,213.27l-0.423,1.612c-0.233,0.888,0.271,1.804,1.147,2.081l7.491,2.37
						c0.909,0.288,1.88-0.218,2.165-1.128l0.447-1.426c0.28-0.893-0.204-1.846-1.09-2.147l-7.514-2.556
						C349.725,211.754,348.703,212.303,348.45,213.27z"/>
					<path style="fill:#FFA830;" d="M383.907,227.93l-0.274,1.337c-0.156,0.761,0.217,1.533,0.91,1.884l5.094,2.58
						c0.99,0.501,2.188-0.049,2.452-1.127l0.288-1.171c0.188-0.763-0.165-1.557-0.858-1.929l-5.107-2.745
						C385.395,226.211,384.139,226.799,383.907,227.93z"/>
				</g>
				<g>
					<path style="fill:#F5BE9C;" d="M379.388,192.277c0,0-3.034,4.613-9.587,1.463c-5.784-2.78-9.412-9.407-8.037-14.112
						l8.303-12.439l18.033,12.037L379.388,192.277z"/>
					<path style="fill:#D5311D;" d="M381.502,189.111l6.598-9.884l-18.032-12.037l-3.3,4.943
						C367.558,177.153,372.28,189.941,381.502,189.111z"/>
				</g>
			</g>
			<g>
				<path style="fill:#F5BE9C;" d="M418.147,168.394c-9.41,16.828-23.57,26.748-37.009,19.233
					c-13.439-7.515-21.068-29.619-11.658-46.447c9.41-16.828,27.933-24.378,41.372-16.863
					C424.292,131.831,427.558,151.566,418.147,168.394z"/>
				<g style="opacity:0.08;">
					<path style="fill:#D5311D;" d="M379.583,186.036c3.66-5.545,5.384-14.074,1.318-19.912c-2.972-4.268-10.483-7.16-15.37-4.502
						c1.114,10.27,6.397,19.78,13.753,24.837C379.382,186.318,379.488,186.18,379.583,186.036z"/>
					<path style="fill:#D5311D;" d="M404.21,177.79c-4.376,2.316-8.028,6.792-8.965,11.756c6.458-1.64,12.629-6.537,17.894-13.479
						C410.221,175.456,406.952,176.339,404.21,177.79z"/>
				</g>
				<g>
					<g>
						<path d="M387.877,159.289c-0.905,1.631-0.847,3.393,0.131,3.935c0.977,0.542,2.503-0.34,3.408-1.972
							c0.905-1.631,0.847-3.393-0.131-3.935C390.308,156.775,388.782,157.658,387.877,159.289z"/>
						<path d="M407.268,167.328c-0.807,1.454-0.819,2.988-0.027,3.427c0.791,0.439,2.086-0.383,2.893-1.837
							c0.806-1.453,0.819-2.988,0.027-3.427C409.369,165.052,408.074,165.875,407.268,167.328z"/>
					</g>
					<path style="fill:#A23D35;" d="M399.425,152.106c-2.077-2.788-6.07-3.33-9.242-2.529c-0.442,0.112-0.877,0.252-1.3,0.424
						c-0.744,0.303-1.475,0.748-1.886,1.465c-0.332,0.579,0.321,0.814,0.796,0.699c3.234-0.785,6.602,0.969,9.761,2.417
						c1.625,0.745,2.225-0.457,2.338-1.246C399.95,152.926,399.683,152.452,399.425,152.106z"/>
					<path style="fill:#A23D35;" d="M411.554,158.131c0.436-0.046,0.881-0.02,1.31,0.07c2.351,0.494,4.037,2.678,4.103,5.053
						c0.014,0.49-0.002,1.049-0.392,1.404c-0.383,0.349-0.636-0.376-0.775-0.621c-0.18-0.318-0.36-0.637-0.585-0.926
						c-0.354-0.456-0.76-0.871-1.206-1.238c-0.892-0.735-1.943-1.277-3.06-1.571c-0.441-0.116-1.212-0.205-1.309-0.761
						c-0.044-0.254,0.059-0.518,0.228-0.712c0.17-0.194,0.4-0.326,0.637-0.428C410.839,158.258,411.193,158.17,411.554,158.131z"/>
					<path style="fill:#D5311D;" d="M401.694,168.567c-0.355-0.215-0.78-0.362-1.094-0.639c-0.478-0.423-0.164-1.08,0.032-1.577
						c0.235-0.596,0.528-1.171,0.861-1.719c0.342-0.562,0.816-1.083,1.057-1.695c0.144-0.367-0.34-0.687-0.648-0.499
						c-0.502,0.307-0.859,0.861-1.176,1.347c-0.345,0.528-0.642,1.09-0.897,1.666c-0.422,0.956-0.948,2.17-0.131,3.073
						c0.288,0.318,0.677,0.516,1.056,0.705c0.358,0.179,0.834,0.365,1.021,0.748c0.245,0.501-0.06,1.123-0.417,1.48
						c-0.43,0.43-1.006,0.681-1.556,0.92c-0.344,0.149-0.099,0.727,0.256,0.607c1.026-0.347,2.142-0.81,2.57-1.892
						C403.035,170.065,402.603,169.117,401.694,168.567z"/>
					<path style="fill:#D5311D;" d="M394.328,174.967c-1.157-0.852-2.223-1.961-2.9-3.236c-0.334-0.628-0.58-1.305-0.738-1.999
						c-0.081-0.357-0.134-0.718-0.213-1.075c-0.079-0.352-0.042-0.717-0.137-1.065c-0.086-0.316-0.48-0.261-0.587,0
						c-0.153,0.37-0.117,0.79-0.141,1.183c-0.026,0.412,0.046,0.814,0.138,1.217c0.181,0.793,0.49,1.557,0.897,2.261
						c0.816,1.412,1.976,2.544,3.524,3.093C394.406,175.43,394.502,175.096,394.328,174.967z"/>
				</g>
				<g>
					<path style="fill:#A23D35;" d="M422.597,181.13c-1.78-0.71-2.67-2.71-3.01-4.59c-0.68-3.82,0.28-7.6,2.34-10.84
						c3.49-5.5,5.3-12.11,5.27-18.69c0-0.66-0.02-1.32-0.07-1.98c-0.15-2.62-0.61-5.22-1.37-7.72c-0.51-1.68-1.16-3.31-1.95-4.87
						c-0.04-0.09-0.09-0.18-0.13-0.26c0-0.02,0-0.02-0.01-0.03c-0.73-1.43-1.56-2.81-2.47-4.13c-5.25-7.83-12.53-14.49-21.65-17.4
						c-1.48-0.47-3.38-1.05-5.29-1.38c-3.19-0.52-6.45-0.39-7.87,2.06c0,0-1.73-0.52-4.13-0.46c-0.46,0.01-0.93,0.05-1.42,0.12
						c-0.29,0.03-0.58,0.07-0.87,0.13c-1.23,0.22-2.52,0.64-3.8,1.35c-0.7,0.38-1.4,0.86-2.07,1.44c-0.63,0.56-1.28,1.18-1.94,1.86
						c-0.05,0.05-0.09,0.09-0.13,0.14c-0.11,0.1-0.21,0.21-0.31,0.32c-0.89,0.94-1.79,1.97-2.66,3.06
						c-6.03,7.55-11,17.92-5.53,19.96c2.89,1.08,6.21,2.13,8.37,4.44c1.07,1.14,1.81,2.64,1.81,4.2c0.01,0.39-0.03,0.8,0.12,1.16
						c0.76,1.79,3.62-1.86,4.22-2.47c0.3-0.31,0.63-0.61,0.96-0.89c1.01,0,2.03-0.11,2.97-0.31c2.1-0.44,4.09-1.33,5.8-2.63
						c3.13-2.37,5.17-5.83,8.18-8.32c0.56-0.47,1.19-0.93,1.86-1.31c1.28-0.35,2.83-0.73,2.89-0.5c0.51,1.93,1.16,3.82,1.97,5.65
						c0.16,0.65,0.34,1.29,0.55,1.91c1.83,5.46,5.56,10.3,10.65,13.07c1.59,0.86,3.34,1.57,4.64,2.86c0.31,0.3,0.58,0.64,0.81,1.01
						c0.35,1.07,0.01,2.25-0.38,3.32c-0.7,1.89-1.55,3.72-2.54,5.47c-0.95,1.68-2.03,3.3-2.76,5.08c-0.74,1.79-1.1,3.8-0.56,5.65
						c0.53,1.81,1.9,3.29,3.53,4.22c1.63,0.93,3.51,1.35,5.39,1.5c0.29,0.03,0.59,0.04,0.85-0.09c0.26-0.13,0.45-0.45,0.33-0.71
						C423.077,181.3,422.817,181.22,422.597,181.13z M393.057,136.25c-1.38,1.46-2.66,3-4.12,4.38c-1.63,1.52-3.5,2.71-5.63,3.4
						c-0.85,0.28-1.69,0.45-2.53,0.55c0.18-0.07,0.36-0.16,0.56-0.21c1.77-0.43,3.23-1.26,4.56-2.29c0.27-0.16,0.55-0.31,0.81-0.48
						c2.93-1.86,4.89-4.84,7.5-7.05c0.46-0.28,0.96-0.52,1.47-0.75C394.737,134.55,393.867,135.38,393.057,136.25z M413.297,152.04
						c-1.27-0.8-2.45-1.75-3.52-2.8c-1.79-1.77-3.23-3.82-4.35-6.03c2.55,3.79,5.76,6.87,9.37,9.71
						C414.287,152.64,413.787,152.36,413.297,152.04z"/>
					<g>
						<path style="opacity:0.47;fill:#A23D35;" d="M395.317,129.91c0.04,0.67-0.64,1.15-1.23,1.47c-0.78,0.42-1.56,0.85-2.34,1.27
							c-0.98,0.53-1.98,1.07-3.06,1.29c-1.09,0.23-2.31,0.1-3.17-0.6c-1.49-1.19-1.51-3.6-3-4.78c-0.83-0.66-1.95-0.79-3.01-0.96
							c-1.1-0.17-2.24-0.42-3.15-1.06c-0.92-0.65-1.57-1.78-1.36-2.88c0.19-0.96,0.99-1.77,0.95-2.74c-0.05-0.92-0.82-1.6-1.5-2.21
							c-0.93-0.83-1.82-1.76-2.42-2.83c0.04-0.05,0.08-0.09,0.13-0.14c0.66-0.68,1.31-1.3,1.94-1.86c0.67-0.58,1.37-1.06,2.07-1.44
							c1.28-0.71,2.57-1.13,3.8-1.35c0.29-0.06,0.58-0.1,0.87-0.13c0.85,2.62,1.89,5.1,3.55,7.52c1.41,2.07,3.08,3.96,4.98,5.61
							c1.86,1.61,3.94,3.01,5.5,4.93C395.077,129.28,395.287,129.57,395.317,129.91z"/>
						<path style="opacity:0.47;fill:#A23D35;" d="M427.127,145.03c-0.41,0.36-0.84,0.66-1.27,0.88c-1.91,0.98-4.51,1.11-6.01-0.44
							c-0.65-0.67-1-1.56-1.49-2.36c-0.49-0.79-1.21-1.55-2.13-1.64c-1.01-0.1-1.91,0.61-2.9,0.86c-1.72,0.44-3.58-0.63-4.49-2.16
							c-0.92-1.53-1.05-3.41-0.89-5.18c0.12-1.39,0.82-3.11,2.21-3.04c0.48,0.02,0.91,0.27,1.32,0.52c2.58,1.56,5.18,3.15,8.04,4.1
							c2.04,0.67,3.97,0.78,6.1,0.74h0.14C426.517,139.81,426.977,142.41,427.127,145.03z"/>
					</g>
				</g>
				<g>
					<path style="fill:#F5BE9C;" d="M365.256,158.107c-6.145-0.137-8.546-10.078-6.887-15.688c1.659-5.611,9.461-7.854,13.422-1.598
						C375.752,147.078,371.4,158.245,365.256,158.107z"/>
					<path style="fill:#D5311D;" d="M365.54,153.263c1.005-0.929,1.866-1.876,2.447-3.139c0.577-1.254,0.92-2.602,0.971-3.984
						c0.054-1.444-0.271-2.962-1.177-4.117c-0.401-0.511-0.888-0.945-1.472-1.237c-0.534-0.267-1.437-0.563-1.969-0.189
						c-0.314,0.221-0.379,0.638-0.102,0.923c0.33,0.339,0.894,0.402,1.31,0.63c0.421,0.231,0.814,0.572,1.104,0.955
						c0.18,0.237,0.323,0.492,0.441,0.759c-0.906-0.122-1.826,0.02-2.659,0.461c-0.502,0.266-0.969,0.641-1.338,1.073
						c-0.204,0.238-0.38,0.505-0.524,0.783c-0.065,0.126-0.125,0.255-0.176,0.387c-0.083,0.214-0.068,0.387-0.03,0.61
						c0.054,0.314,0.517,0.494,0.77,0.303c0.123-0.093,0.243-0.175,0.328-0.307c0.07-0.109,0.123-0.228,0.19-0.339
						c0.106-0.177,0.228-0.337,0.358-0.496c0.298-0.364,0.639-0.665,1.048-0.898c0.699-0.397,1.551-0.566,2.357-0.474
						c0.098,0.563,0.116,1.143,0.08,1.704c-0.134,2.114-1.092,4.469-2.544,6.029C364.595,153.085,365.157,153.617,365.54,153.263z"
						/>
				</g>
			</g>
			<g>
				<g>
					<path style="fill:#F5BE9C;" d="M340.548,168.178c-8.296-1.471-64.59,26.871-70.822,47.72
						c-6.232,20.849,42.041,41.514,42.041,41.514l5.425-19.869c0,0-23.069-14.394-23.384-20.589
						c-0.315-6.196,34.679-17.409,43.247-24.795c8.569-7.386,15.234-21.088,4.112-23.855L340.548,168.178z"/>
					<path style="fill:#D5311D;" d="M332.593,197.086c-2.681,0.211-5.348,0.998-7.876,1.882c-2.554,0.893-5.06,2.003-7.37,3.416
						c-0.334,0.204-0.042,0.687,0.303,0.519c2.418-1.173,4.856-2.278,7.395-3.168c0.908-0.318,1.828-0.589,2.75-0.846
						c0.668,0.047,1.325,0.163,1.967,0.36c0.35,0.108,0.692,0.239,1.025,0.392c0.342,0.157,0.669,0.371,1.028,0.48
						c0.254,0.077,0.423-0.249,0.251-0.431c-0.272-0.287-0.671-0.468-1.03-0.625c-0.361-0.159-0.732-0.297-1.111-0.408
						c-0.237-0.069-0.483-0.106-0.726-0.152c1.153-0.304,2.309-0.596,3.46-0.918C332.928,197.51,332.887,197.063,332.593,197.086z"
						/>
				</g>
				<g>
					<path style="fill:#F0C284;" d="M357.806,272.07c-1.35-9.66-12.1-22.43-22.63-32.03c-4.8-4.39-9.56-8.11-13.36-10.59
						c-2.66-1.72-4.36-2.45-5.49-2.65c-1.3-0.22-1.85,0.23-2.22,0.64c-0.71,0.78,0.7,3.22-0.78,3.55
						c-1.48,0.32-3.61-2.31-11.02-5.42c-0.91-0.38-1.83-0.69-2.73-0.92c-5.01-1.32-9.67-0.29-12.11,3.35
						c-0.14,0.21-0.28,0.43-0.4,0.66c-0.07,0.11-0.13,0.22-0.19,0.34c0,0,0,0,0,0.01c-0.06,0.12-0.12,0.23-0.17,0.35c0,0,0,0,0,0.01
						c-0.12,0.24-0.22,0.48-0.31,0.74c0,0,0,0.01,0,0.02c-0.09,0.26-0.18,0.53-0.25,0.81c-0.45,1.64-0.6,3.58-0.37,5.83
						c0.03,0.23,0.05,0.47,0.09,0.71c0.02,0.19,0.05,0.38,0.08,0.58c0.11,0.74,0.26,1.5,0.45,2.3c0.2,0.86,0.45,1.75,0.75,2.69
						c0.07,0.24,0.15,0.47,0.24,0.71v0.01c0.08,0.22,0.15,0.45,0.24,0.68c0.36,1.03,0.78,2.09,1.26,3.2
						c0.56,1.3,1.23,2.63,1.98,3.98c0.3,0.54,0.62,1.08,0.95,1.63c1.65,2.73,3.66,5.52,5.93,8.26c0.38,0.46,0.77,0.91,1.16,1.37
						c0.15,0.18,0.31,0.35,0.46,0.52c0.37,0.42,0.75,0.85,1.14,1.27c2.01,2.19,4.19,4.33,6.49,6.35c0.4,0.35,0.8,0.7,1.21,1.04
						c0.58,0.5,1.18,0.99,1.78,1.46v0.01c2.22,1.77,4.53,3.43,6.89,4.92c0.32,0.2,0.63,0.4,0.95,0.59
						c4.76,2.91,9.74,5.13,14.66,6.32c0.62,0.14,1.23,0.28,1.84,0.39c0.33,0.06,0.65,0.12,0.98,0.17c1.91,0.3,3.81,0.44,5.68,0.38
						c0.58-0.02,1.15-0.06,1.73-0.11c0.57-0.06,1.14-0.14,1.7-0.23c0.57-0.09,1.13-0.21,1.68-0.34c0.28-0.07,0.56-0.14,0.84-0.22
						c1.1-0.31,2.19-0.7,3.25-1.18c1.06-0.48,2.1-1.05,3.12-1.71c0.4-0.27,0.78-0.55,1.13-0.84c0.17-0.14,0.34-0.29,0.5-0.44
						c0.16-0.15,0.31-0.31,0.46-0.46c0.15-0.16,0.29-0.32,0.42-0.48c0.08-0.08,0.15-0.17,0.21-0.26c0.05-0.08,0.11-0.16,0.17-0.24
						c0.25-0.33,0.47-0.68,0.65-1.04c0.11-0.2,0.2-0.4,0.28-0.61l0.01-0.01C357.926,276.33,358.116,274.29,357.806,272.07z
						 M317.696,233.95c0.54-0.48,1.33-0.56,2.05-0.48c1.45,0.16,2.81,0.84,4.01,1.68c1.07,0.76,2.07,1.67,2.78,2.78
						c0.55,0.85,1.35,2.44,0.97,3.49c-0.36,1.02-1.82,0.84-2.64,0.64c-2.53-0.63-4.86-2.05-6.57-4.01
						c-0.51-0.58-0.97-1.23-1.15-1.98C316.966,235.33,317.116,234.46,317.696,233.95z"/>
					<g>
						<path d="M351.218,265.463c-0.296-0.365-0.633-0.688-0.929-0.942c-1.052-0.902-2.289-1.588-3.609-2.01
							c-0.496-0.158-2.992-0.756-2.184,0.611c0.401,0.678,0.609,1.449,0.886,2.187c0.737,1.963,2.562,3.264,4.643,3.488
							c0.782,0.084,1.6-0.234,1.874-1.024C352.177,266.974,351.77,266.145,351.218,265.463z"/>
						<path style="fill:#FFA830;" d="M345.475,275.224c-0.385-0.892-0.945-1.719-1.532-2.489c-0.286-0.376-0.589-0.74-0.903-1.093
							c-0.273-0.306-0.58-0.665-1.03-0.656c-0.473,0.01-0.767,0.39-0.819,0.827c-0.034,0.287,0.056,0.468-0.326,0.317
							c-0.356-0.141-0.613-0.539-0.897-0.781c-0.255-0.217-0.685-0.538-1.019-0.395c0.035-0.015,0.204,2.114,0.209,2.247
							c0.036,0.87,0.124,1.743,0.37,2.582c0.371,1.264,1.151,2.468,2.335,3.047c0.992,0.485,2.342,0.439,3.206-0.297
							C345.953,277.781,345.896,276.202,345.475,275.224z"/>
						<path style="fill:#D5741D;" d="M328.592,269.239c-0.176,0.051-0.412,0.221-0.575,0.136c-0.176-0.091-0.201-0.528-0.258-0.699
							c-0.157-0.469-0.469-0.925-0.995-1.076c0.032,0.395,0.02,0.793-0.082,1.196c-0.237,0.942-0.796,1.825-1.306,2.656
							c-0.449,0.731-0.89,1.476-1.176,2.279c-0.053,0.149-0.103,0.303-0.155,0.454c-0.003,0.027-0.014,0.051-0.016,0.078
							c-0.136,1.85,1.868,3.158,3.51,3.726c1.03,0.357,1.887-0.029,2.257-0.989c0.398-1.037,0.593-2.171,0.689-3.266
							C330.584,272.589,330.911,268.565,328.592,269.239z"/>
						<path style="fill:#FFFFFF;" d="M318.499,262.241c-0.35-0.123-0.417-0.197-0.427-0.581c-0.015-0.574,0.044-1.144-0.176-1.622
							c-0.234,0.332-0.506,0.638-0.814,0.896c-0.681,0.572-1.457,1.009-2.303,1.285c-1.482,0.484-2.762,0.911-3.493,2.401
							c-0.595,1.212-0.606,2.75,0.42,3.736c1.388,1.335,3.474,1.151,4.939,0.053c0.827-0.619,1.447-1.462,1.898-2.386
							c0.21-0.43,0.39-0.877,0.551-1.328c0.156-0.439,0.337-0.905,0.3-1.381C319.35,262.762,319.001,262.418,318.499,262.241z"/>
						<path style="fill:#D5311D;" d="M307.483,251.317c-1.09-0.129-2.181-0.247-3.273-0.368c0.169-0.166,0.338-0.331,0.508-0.497
							c0.088-0.086,0.137-0.17,0.094-0.276c-0.054-0.133-1.396-0.056-1.545-0.058c-1.27-0.016-2.693-0.121-3.902,0.33
							c-1.175,0.439-2.214,1.665-1.749,2.942c0.213,0.585,0.718,0.992,1.235,1.326c0.658,0.426,1.355,0.827,2.076,1.143
							c1.322,0.581,2.854,0.864,4.231,0.275c0.769-0.329,1.314-0.94,1.853-1.542c0.599-0.669,1.293-1.244,2.077-1.703
							c0.088-0.051,0.178-0.103,0.242-0.181c0.26-0.323-0.281-0.852-0.537-1.014C308.411,251.452,307.928,251.37,307.483,251.317z"
							/>
						<path style="fill:#62311D;" d="M303.33,240.859c-0.027-0.026-0.051-0.048-0.072-0.065c-0.165-0.135-1.481-0.985-1.619-0.933
							c0.213-0.081,0.427-0.162,0.64-0.243c0.155-0.059,0.261-0.162,0.272-0.313c0.005-0.068-1.033-0.44-1.132-0.49
							c-0.461-0.231-0.898-0.51-1.303-0.83c-0.382-0.302-0.735-0.641-1.125-0.934c-1.507-1.127-3.864-2.241-5.777-1.767
							c-1.723,0.426-1.914,2.195-1.181,3.576c0.748,1.408,2.13,2.369,3.61,2.881c0.975,0.338,2.012,0.461,3.04,0.451
							c0.531-0.005,1.087-0.031,1.637-0.1c0.577-0.133,1.149-0.276,1.711-0.405c0.402-0.092,0.83-0.115,1.226-0.215
							C303.692,241.363,303.578,241.102,303.33,240.859z"/>
					</g>
					<path style="fill:#F5BE9C;" d="M332.367,240.99c-0.63,0.76-1.52,1.3-2.48,1.51c-1.32,0.29-2.69-0.03-4.02-0.3
						c-0.04,0-0.08-0.01-0.12-0.02c-0.44-0.09-0.88-0.17-1.32-0.25c-2.36-0.67-4.52-2.03-6.13-3.88c-0.25-0.29-0.49-0.59-0.69-0.92
						c0.65-0.36,1.73-0.33,2.31-0.38c1.19-0.13,2.39-0.26,3.58-0.09c0.9,0.12,1.77,0.41,2.63,0.69c0.55,0.18,1.09,0.35,1.65,0.49
						c1.34,0.33,2.74,0.41,4.02,0.9c0.39,0.14,0.8,0.36,0.97,0.74C332.997,239.98,332.717,240.57,332.367,240.99z"/>
					<path style="fill:#E2BC3E;" d="M357.172,278.09c-0.73,1.7-1.99,3.2-3.87,4.43c-21.79,14.19-55.56-14.45-64.42-34.87
						c-4.11-9.48-3.93-15.94-1.42-19.65c-1.65,3.86-1.34,9.83,2.26,18.12c8.86,20.42,42.63,49.06,64.42,34.87
						C355.432,280.14,356.432,279.17,357.172,278.09z"/>
				</g>
			</g>
		</g>
		<g>
			<defs>
				<rect id="SVGID_1_" x="298.247" y="78.89" width="150.61" height="342.22"/>
			</defs>
			<clipPath id="SVGID_00000073704524020683263960000015459306779889119650_">
				<use xlink:href="#SVGID_1_"  style="overflow:visible;"/>
			</clipPath>
			<g style="clip-path:url(#SVGID_00000073704524020683263960000015459306779889119650_);">
				<g>
					<polygon style="fill:#D5741D;" points="378.778,316.292 378.778,310.692 448.927,299.01 456.961,303.085 455.726,309.921 
						392.197,323.94 					"/>
					<polygon style="opacity:0.3;fill:#D5741D;" points="378.778,310.692 448.927,299.01 456.961,303.085 392.259,317.354 					"/>
					<polygon style="fill:#D5741D;" points="392.259,317.354 456.961,303.085 455.726,309.921 392.197,323.94 					"/>
				</g>
				<g>
					<path style="fill:#FFFFFF;" d="M481.436,190.005c-0.778-1.171-1.582-2.326-2.365-3.493l-54.882,2.79l-39.092,122.414
						l6.58,3.607l0.222,0.12l55.392-9.751l35.807-113.137l0.022-0.081l0.005-0.02C482.555,191.642,481.984,190.83,481.436,190.005z"
						/>
					<polygon style="opacity:0.34;fill:#C0AE8E;" points="483.119,192.475 447.289,305.693 391.897,315.444 391.675,315.323 
						430.054,195.171 					"/>
					<path style="opacity:0.25;fill:#E2E2DA;" d="M481.436,190.005c-0.778-1.171-1.582-2.326-2.365-3.493l-54.882,2.79l5.866,5.869
						l53.042-2.615l0.022-0.081l0.005-0.02C482.555,191.642,481.984,190.83,481.436,190.005z"/>
				</g>
				<g>
					<polygon style="fill:#D5741D;" points="467.896,147.387 376.186,438.123 369.937,436.712 366.602,435.966 456.327,147.936 
						459.607,147.78 					"/>
					<polygon style="fill:#D5741D;" points="467.896,147.387 376.186,438.123 369.937,436.712 459.607,147.78 					"/>
				</g>
				<g>
					<polygon style="fill:#D5741D;" points="482.817,145.552 427.625,436.584 421.263,435.173 417.869,434.426 471.426,146.103 
						474.656,145.947 					"/>
					<polygon style="fill:#D5741D;" points="482.817,145.552 427.625,436.584 421.263,435.173 474.656,145.947 					"/>
				</g>
			</g>
		</g>
	</g>
	<g>
		<g>
			<rect x="512.379" y="78.89" style="fill:#FFDFE6;" width="150.61" height="342.22"/>
			<g>
				<path style="fill:#AAD0C2;" d="M593.179,421.11h-80.8V309.82c0.2-0.02,0.39-0.03,0.59-0.04c4.55-0.29,9.18-0.57,13.58,0.55
					c4.41,1.13,8.64,3.92,10.32,8.15c1.39,3.49,0.88,7.4,0.36,11.11c-1.09,7.73-2.18,15.45-3.27,23.18
					c-1.45,10.34-2.26,22.57,5.58,29.46c8.43,7.4,21.27,4.05,32.47,3.32c2.97-0.2,6.1-0.14,8.7,1.32
					C588.029,390.99,593.359,407.72,593.179,421.11z"/>
				<path style="opacity:0.62;fill:#FFA830;" d="M662.989,210.265v118.05c-25.26-0.26-49.65-16.93-58.92-40.45
					c-1.1-2.78-2.01-5.75-1.61-8.7c0.69-5.13,5.12-8.92,9.61-11.5c4.49-2.57,9.49-4.56,12.96-8.4c6.17-6.81,5.73-17.2,4.27-26.27
					c-1.45-9.07-3.47-18.83,0.54-27.1c0.96-1.96,2.31-3.84,4.25-4.83c4.54-2.32,9.85,0.96,13.74,4.27c3.88,3.3,8.62,7.05,13.51,5.62
					C661.909,210.785,662.459,210.555,662.989,210.265z"/>
				<path style="fill:#F2BACA;" d="M629.246,87.101c-0.648,14.486-5.338,28.643-13.089,39.572c-2.167,3.034-4.691,5.932-7.863,6.948
					c-5.74,1.854-11.425-2.883-15.837-7.758c-4.423-4.861-9.125-10.463-15.044-10.765c-8.187-0.426-14.195,9.406-17.088,18.825
					c-3.898,12.701-5.015,26.528-9.292,39.037c-4.289,12.495-13.224,24.208-24.258,24.125c-5.361-0.041-10.253-2.815-14.396-6.865
					V78.89h116.722C629.346,81.622,629.369,84.382,629.246,87.101z"/>
			</g>
			<g style="opacity:0.62;">
				<path style="fill:#FFFFFF;" d="M662.989,290.89v1.28c-9.77-4.4-20.43-6.68-30.71-9.58c-23.76-6.71-46.59-17.93-64.79-34.82
					c-17.69-16.42-30.72-38.48-34.33-62.52c-3.97-26.51,5.17-52.1,11.47-77.47c1.63-6.54,3.07-13.14,4.06-19.81
					c0.45-3,0.81-6.04,0.99-9.08h1.02c-0.49,11.33-3.31,22.67-6.09,33.54c-3.39,13.22-7.34,26.34-9.57,39.83
					c-2.2,13.26-2.41,26.71,0.64,39.85c5.68,24.5,20.81,45.95,40.38,61.44c10.12,8,21.4,14.5,33.21,19.64
					c5.91,2.57,11.97,4.79,18.11,6.71c6.28,1.95,12.66,3.51,18.99,5.28C651.969,286.74,657.629,288.51,662.989,290.89z"/>
				<path style="fill:#FFFFFF;" d="M662.989,271.44v1.28c-2.5-0.79-5.02-1.51-7.55-2.18c-25.95-6.87-54.01-8.82-77.39-23.16
					c-10.64-6.52-19.42-15.55-25.2-26.64c-5.63-10.78-8.42-23.07-7.74-35.23c1.59-28.39,21.09-51.09,33.97-75.11
					c5.3-9.87,9.71-20.41,11.31-31.51h0.95c-1.77,13.29-7.55,25.65-14.11,37.19c-13.58,23.91-32.58,47.73-30.9,76.79
					c0.73,12.61,5.13,24.97,12.47,35.25c7.69,10.78,18.64,18.52,30.66,23.85C612.829,262.34,638.759,263.89,662.989,271.44z"/>
			</g>
		</g>
		<g>
			<path style="fill:#AD9B7D;" d="M605.815,196.869c0.004-7.548,6.949-8.112,8.925-6.914c14.764,8.948,34.989,60.67,36.065,68.742
				s-7.225,17.015-21.243-1.563C615.544,238.556,605.811,204.417,605.815,196.869z"/>
			<g>
				<path style="fill:#FFA830;" d="M525.339,177.86l52.25-0.08l1.88-0.01h2.16c0,0,0,0.01,0.01,0l10.1-0.01l7.64-0.02l7.55-0.01
					h2.25c0.01,0,0.01,0,0.01,0l43.04-0.07c-2.9-0.21-5.7-0.93-7.85-2.32c0.01-0.03,0-0.07-0.03-0.11c-1.05-1.46-2.09-3.16-1.9-5.03
					c0.17-1.84,1.45-3.31,2.65-4.62c0.98-1.09,2.04-2.16,2.72-3.47c0.67-1.31,0.93-2.8,0.81-4.26c-0.24-2.89-1.9-5.47-4.09-7.29
					c-2.18-1.81-4.91-2.93-7.74-3.14c-1.13-0.08-2.25,0.08-3.38-0.05c-3.42-0.38-7.55-2.5-8.5-6.03c-0.13-0.47-0.2-0.97-0.2-1.49
					c-0.01-1.65,0.7-3.21,0.84-4.85c0.23-2.58-0.88-5.06-2.39-7.15c-0.34-0.47-0.71-0.93-1.08-1.36c-2.35-2.7-4.73-4.99-7.13-6.92
					c-1.39-1.12-2.79-2.11-4.18-3c-0.01-0.01-0.02-0.02-0.03-0.02c-1.19-0.75-2.38-1.43-3.57-2.02c-16.3-8.2-31.87-2.12-38.62,2.02
					c-4.19,2.57-7.49,6.72-9.34,11.51c-0.92,2.36-1.47,4.87-1.62,7.42c-0.05,0.78-0.06,1.57-0.12,2.36
					c-0.77,1.3-1.74,2.47-3.05,3.28c-4.3,2.66-9.77,1.17-14.48,2.25c-4.11,0.94-7.94,3.51-9.56,7.52
					c-1.65,4.11-0.18,8.47,2.49,11.77c0.09,0.11,0.19,0.21,0.28,0.31c0.04,0.13,0.08,0.26,0.12,0.38c0.94,2.78,2.08,5.65,1.7,8.58
					c-0.12,0.94-0.41,1.88-1,2.59c-0.56,0.68-1.34,1.09-2.11,1.45C529.819,176.9,527.549,177.58,525.339,177.86z M636.989,148.16
					c0.48,0.04,0.96,0.1,1.44,0.2c5.43,1.13,11.26,6.64,9.22,12.65c-0.96,2.83-3.75,4.47-5,7.14c-0.53,1.12-0.75,2.31-0.49,3.53
					c0.24,1.17,0.85,2.23,1.53,3.2c-0.72-0.56-1.35-1.2-1.85-1.96c-1.34-2.01-2-5.74,0.23-8.66c1.2-1.57,3.04-2.6,3.83-4.46
					c0.85-2,0.19-4.4-0.94-6.23c-1.15-1.85-2.79-3.35-4.67-4.28C639.239,148.77,638.119,148.43,636.989,148.16z M539.169,144.29
					c2.18-0.62,4.43-0.73,6.71-0.77c2.35-0.04,4.77-0.1,7.02-0.91c1.79-0.64,3.26-1.78,4.39-3.3c-0.15,0.78-0.39,1.51-0.81,2.17
					c-1.1,1.74-3.17,2.47-5.11,2.68c-2.75,0.31-5.51-0.15-8.27-0.21C541.789,143.92,540.449,144.01,539.169,144.29z M535.199,146.15
					c-2.27,1.88-3.42,5.03-3.55,8.11c-0.09,2.22,0.29,4.42,0.86,6.55c-0.08-0.12-0.17-0.23-0.25-0.36c-1.15-1.9-1.91-4.1-1.82-6.33
					c0.09-2.22,1.04-4.34,2.49-6C533.599,147.36,534.369,146.71,535.199,146.15z"/>
				<path style="opacity:0.21;fill:#FFA830;" d="M615.877,168.105c0.362-2.995,0.835-6.002,0.715-9.028
					c-0.13-3.295-1.165-6.314-2.754-9.182c-4.711-8.507-13.104-15.387-22.654-17.585c-9.17-2.111-18.462,1.232-25.087,7.74
					c-1.576,1.548-3.024,3.323-3.875,5.382c-0.406,0.983-0.704,2.068-0.707,3.138c-0.004,1.466,0.507,2.89,0.723,4.33
					c0.425,2.826-0.407,5.771-1.323,8.427c-0.859,2.489-1.873,4.927-3.169,7.222c-1.96,3.469-4.48,6.628-7.46,9.273l27.302-0.042
					l1.88-0.01h2.16c0,0,0,0.01,0.01,0l10.1-0.01l7.64-0.02l7.55-0.01h2.25c0.01,0,0.01,0,0.01,0l7.342-0.012
					C615.298,174.834,615.502,171.207,615.877,168.105z"/>
			</g>
			<g>
				<path style="fill:#B23A62;" d="M532.129,421.11h41.69c2.14-23.5,10.66-89.71,19.23-89.25c8.18,0.45-5.06,65.57-10.15,89.25
					h46.06c5.86-12.98,14.37-36.33,17.03-66.84c1.47-16.92-2.3-32.73-7.8-46.09c-0.05-0.11-0.09-0.22-0.14-0.33
					c-2.11-5.08-4.46-9.8-6.86-14.09c-4.44-7.92-9.05-14.39-12.63-18.95c-0.52-0.67-1.02-1.3-1.5-1.88
					c-0.42-0.52-0.82-1.01-1.2-1.46c-0.08-0.1-0.17-0.2-0.25-0.3c-0.6-0.71-1.14-1.33-1.6-1.85c-1.2-1.36-1.9-2.08-1.9-2.08
					l-19.36-1.28l-2.1-0.14l-2.44-0.17l-3.45-0.22l-0.22-0.02l-0.62-0.04h-0.01l-16.11-1.07c0,0-4.73,4.53-10.73,12.48
					c-0.59,0.78-1.19,1.59-1.8,2.44c-0.3,0.41-0.6,0.84-0.91,1.27c-5.6,7.94-11.8,18.45-16.16,30.75c-0.82,2.3-1.57,4.65-2.24,7.07
					C529.029,343.23,530.939,398.01,532.129,421.11z"/>
				<path style="opacity:0.55;fill:#B23A62;" d="M565.316,314.02c8.582-0.678,17.171-1.633,25.617-3.331
					c8.249-1.658,16.058-4.281,23.615-7.978c5.675-2.777,11.134-5.936,16.368-9.424c-4.356-7.7-8.851-14.009-12.357-18.476
					c-0.52-0.67-1.02-1.3-1.5-1.88c-0.42-0.52-0.82-1.01-1.2-1.46c-0.08-0.1-0.17-0.2-0.25-0.3c-0.6-0.71-1.14-1.33-1.6-1.85
					c-1.2-1.36-1.9-2.08-1.9-2.08l-19.36-1.28l-2.1-0.14l-2.44-0.17l-3.45-0.22l-0.22-0.02l-0.62-0.04h-0.01l-16.11-1.07
					c0,0-4.73,4.53-10.73,12.48c-0.59,0.78-1.19,1.59-1.8,2.44c-0.3,0.41-0.6,0.84-0.91,1.27c-5.6,7.94-11.8,18.45-16.16,30.75
					c-0.216,0.605-0.413,1.225-0.619,1.838C546.751,314.867,556.014,314.755,565.316,314.02z"/>
				<g>
					<path d="M534.329,410.81c0.25,3.43,0.55,6.86,0.9,10.3h0.85c-0.55-5.18-0.97-10.37-1.27-15.57
						c-0.82-14.24-0.71-28.52,0.33-42.72c1-13.74,2.82-27.45,5.64-40.92c0.74-3.52,1.55-7.03,2.46-10.52
						c2.15-8.23,4.85-16.31,8.36-24.06c1.27-2.81,2.66-5.57,4.17-8.27c0.42-0.76,0.86-1.52,1.3-2.27c-0.59,0.78-1.19,1.59-1.8,2.44
						c-0.3,0.41-0.6,0.84-0.91,1.27c-1.85,3.44-3.52,6.98-5.01,10.59c-2.74,6.59-4.96,13.39-6.79,20.3
						c-1.28,4.8-2.38,9.66-3.32,14.53c-2.67,13.78-4.39,27.77-5.22,41.79C533.179,382.05,533.279,396.46,534.329,410.81z"/>
					<path d="M588.249,421.11h0.81c1.12-4.76,2.19-9.54,3.21-14.32c1.8-8.44,3.48-16.91,4.76-25.44c1.26-8.38,2.16-16.83,2.19-25.31
						c0.02-4.25-0.17-8.51-0.63-12.74c-0.43-3.91-1.04-7.87-2.01-11.69c0.39,0.09,0.79,0.18,1.18,0.25c0.2,0.03,0.36-0.26,0.15-0.35
						c-0.46-0.19-2.24-0.55-2.48-0.59c-0.31-0.04-0.63-0.07-0.95-0.09c0.85-0.32,1.7-0.62,2.59-0.85c2.16-0.58,4.35-0.83,6.57-1.05
						c0.25-0.02,0.26-0.4,0-0.4c-2.25-0.07-4.55,0.34-6.72,0.92c-1.3,0.34-2.6,0.79-3.85,1.33c-0.06,0-0.13-0.01-0.2-0.01
						c-0.11,0-0.17,0.09-0.18,0.17c-0.7,0.32-1.39,0.67-2.05,1.07c-0.23,0.14-0.03,0.47,0.22,0.36c0.88-0.41,1.77-0.8,2.67-1.17
						c0.61,0.03,1.22,0.09,1.83,0.17c0.29,0.05,0.58,0.11,0.87,0.17c0.2,0.91,0.4,1.81,0.6,2.72c1.74,8.26,2.17,16.8,1.88,25.22
						c-0.29,8.52-1.34,17.01-2.79,25.41c-1.46,8.44-3.26,16.82-5.12,25.18C589.979,413.76,589.129,417.44,588.249,421.11z"/>
					<path d="M542.732,314.589c0.276-0.342,0.67-0.512,1.042-0.735c0.433-0.26,0.87-0.514,1.303-0.775
						c0.811-0.49,1.604-1.011,2.374-1.563c1.594-1.141,3.093-2.414,4.485-3.794c2.763-2.739,5.099-5.896,6.893-9.348
						c1.042-2.006,1.766-4.111,2.61-6.2c0.139-0.344,0.643-0.222,0.565,0.156c-0.397,1.93-1.235,3.814-2.099,5.577
						c-0.89,1.816-1.93,3.558-3.101,5.206c-2.308,3.249-5.114,6.124-8.312,8.503c-0.887,0.66-1.803,1.28-2.746,1.856
						c-0.485,0.297-0.974,0.589-1.484,0.842c-0.454,0.226-0.906,0.514-1.423,0.534C542.695,314.855,542.655,314.684,542.732,314.589
						z"/>
					<path d="M614.089,286.07c0.54,1.26,1.3,2.47,1.98,3.65c0.67,1.18,1.36,2.35,2.08,3.5c2.52,4,5.38,7.86,8.97,10.96
						c2.95,2.56,7.12,5.22,11.07,4c-0.05-0.11-0.09-0.22-0.14-0.33c-2.17,0.51-4.5-0.09-6.45-1.15c-4-2.18-7.28-5.79-9.95-9.41
						c-1.34-1.81-2.57-3.7-3.73-5.63c-0.58-0.95-1.15-1.9-1.71-2.86c-0.58-0.98-1.11-2.02-1.77-2.94
						C614.279,285.64,613.989,285.83,614.089,286.07z"/>
					<path d="M593.673,293.656c0.133-0.023,0.265-0.05,0.397-0.074c0.054,0.304,0.121,0.605,0.173,0.909
						c0.617,3.599,1.12,7.224,1.46,10.861c0.172,1.845,0.311,3.694,0.416,5.544c0.05,0.885,0.099,1.771,0.139,2.656
						c0.014,0.312-0.06,0.728,0.168,0.93c0.301,0.266,0.903,0.221,1.255,0.139c1.66-0.386,2.17-2.082,2.175-3.592
						c0.006-1.804-0.292-3.637-0.466-5.43c-0.417-4.304-0.82-8.609-1.227-12.914c0-0.003,0.003-0.004,0.002-0.007
						c0.135-0.037,0.271-0.068,0.405-0.107c0.026,0.034,0.056,0.064,0.061,0.114c0.407,4.139,0.818,8.277,1.215,12.417
						c0.188,1.958,0.516,3.958,0.508,5.927c-0.006,1.344-0.331,2.766-1.488,3.583c-0.456,0.322-1.008,0.539-1.57,0.559
						c-0.433,0.015-1.209-0.108-1.457-0.527c-0.15-0.253-0.061-0.801-0.074-1.091c-0.022-0.483-0.045-0.966-0.072-1.449
						c-0.057-1.047-0.133-2.092-0.218-3.137c-0.323-3.992-0.786-7.975-1.407-11.932c-0.176-1.118-0.364-2.235-0.564-3.349
						C593.56,293.675,593.617,293.666,593.673,293.656z"/>
				</g>
			</g>
			<g>
				<path style="fill:#62311D;" d="M632.299,292.93c-0.68,0.85-1.92,1.16-2.89,1.56c-1.52,0.63-3.04,1.27-4.57,1.88
					c-2.98,1.2-5.99,2.34-9.01,3.43c-9.63,3.46-19.5,6.56-29.57,8.45c-15.19,2.92-30.48,3.2-45.89,3.12c-1.72,0-3.38-0.04-4.66-1.37
					c-1.12-1.16-1.4-2.77-1.15-4.32c0.29-1.8,1.25-3.41,2.19-4.97c3.08-5.12,6.16-10.24,9.24-15.36c5.37-8.9,10.89-18.31,11.31-28.7
					c0.32-7.92-2.38-15.6-4.36-23.28c-3.37-13.04-4.75-26.8-2.07-40c0.18-0.89,0.39-1.81,0.98-2.49c0.69-0.81,1.77-1.15,2.79-1.44
					c1.95-0.55,3.91-1.04,5.89-1.47c10.12-2.23,20.55-3.04,30.92-3.02c6.42,0.01,13.22,0.48,19.05,2.88
					c2.41,0.98,4.66,2.3,6.64,4.04c0.13,0.1,0.24,0.21,0.36,0.32c3.79,3.48,6.24,8.32,7.58,13.24c1.65,6.08,2.58,12.49,3.4,18.73
					c0.45,3.42,0.81,6.86,0.57,10.3c-0.46,6.5-4.46,11.65-6.36,17.71c-1.44,4.56-1.51,9.44-1.14,14.18
					c0.39,4.87,1.89,9.65,4.23,13.93c1.36,2.48,3,4.78,4.79,6.96c0.54,0.42,1.04,0.88,1.44,1.43
					C632.829,289.8,633.239,291.76,632.299,292.93z"/>
				<path style="fill:#C0AE8E;" d="M596.449,202.89c-17.13,3.63-32.5-11.44-35.92-14.92c10.12-2.23,20.55-3.04,30.92-3.02
					c6.42,0.01,13.22,0.48,19.05,2.88C611.189,191.87,610.609,199.89,596.449,202.89z"/>
				<path style="fill:#B76F5C;" d="M604.315,197.104c0.762-0.442,1.471-0.966,2.084-1.597c2.181-2.244,2.502-5.754,1.449-8.612
					c-5.188-1.582-10.93-1.938-16.399-1.947c-9.7-0.015-19.442,0.698-28.939,2.612c0.137,0.119,0.275,0.238,0.411,0.355
					c3.761,3.244,7.939,6.058,12.423,8.206c7.778,3.726,17.525,5.005,25.842,2.331c0.298-0.096,0.594-0.198,0.888-0.308
					C602.844,197.857,603.603,197.517,604.315,197.104z"/>
				<g>
					<path style="fill:#B76F5C;" d="M598.304,188.617c0,0-0.562,6.081-7.836,6.497c-6.421,0.367-12.706-4.14-13.661-9.432
						l1.622-16.464l21.576,2.126L598.304,188.617z"/>
					<path style="fill:#D5311D;" d="M598.737,184.225l1.269-12.881l-21.576-2.126l-0.635,6.442
						C580.824,180.048,590.942,189.816,598.737,184.225z"/>
				</g>
				<path style="opacity:0.57;fill:#62311D;" d="M557.247,274.403c2.091-4.072,3.422-8.439,4.63-12.839
					c1.3-4.736,2.434-9.661,2.351-14.6c-0.086-5.106-2.716-9.443-4.967-13.864c-2.301-4.52-3.992-9.4-5.605-14.201
					c-1.765-5.255-3.145-10.594-4.034-16.011c-0.657,10.203,0.747,20.555,3.315,30.486c1.985,7.676,4.678,15.359,4.357,23.281
					c-0.42,10.389-5.938,19.792-11.301,28.699c-1.77,2.94-3.541,5.88-5.311,8.821C547.3,288.608,553.273,282.143,557.247,274.403z"
					/>
			</g>
			<g>
				<path style="fill:#B76F5C;" d="M622.2,151.478c-3.681,19.059-14.039,33.338-29.168,31.064
					c-15.129-2.274-29.3-20.241-25.62-39.299c3.681-19.059,18.929-32.665,34.058-30.391C616.6,115.126,625.88,132.419,622.2,151.478
					z"/>
				<g style="opacity:0.12;">
					<path style="fill:#D5311D;" d="M591.056,181.604c1.745-6.478,0.714-15.06-4.978-19.08c-4.161-2.939-12.208-2.987-16.022,1.225
						c4.273,9.207,12.272,16.23,20.849,18.357C590.953,181.939,591.01,181.772,591.056,181.604z"/>
					<path style="fill:#D5311D;" d="M611.889,165.189c-3.436,3.712-5.507,9.188-4.845,14.159
						c5.627-3.816,9.961-10.576,12.795-18.927C616.874,160.882,614.042,162.863,611.889,165.189z"/>
				</g>
				<g>
					<g>
						<path d="M589.155,154.303c-0.27,1.846,0.409,3.473,1.514,3.635s2.221-1.204,2.49-3.05s-0.408-3.473-1.514-3.635
							C590.54,151.092,589.425,152.458,589.155,154.303z"/>
						<g>
							<path style="fill:#FFFFFF;" d="M594.444,161.141c2.021-0.527,3.572,1.136,7.146,1.873c3.574,0.737,5.897,0.12,6.338,0.936
								c1.021,1.889-2.422,5.652-7.472,5.033C595.405,168.365,592.423,161.668,594.444,161.141z"/>
						</g>
						<path d="M610.136,154.964c-0.24,1.645,0.291,3.084,1.186,3.215s1.816-1.096,2.056-2.741c0.24-1.645-0.291-3.084-1.187-3.215
							C611.297,152.092,610.376,153.319,610.136,154.964z"/>
					</g>
					<path style="fill:#FFA830;" d="M597.558,143.876c-2.782-1.486-6.68-0.505-9.406,1.255c-0.38,0.245-0.745,0.511-1.088,0.798
						c-0.605,0.505-1.155,1.118-1.323,1.834c-0.136,0.578,0.545,0.535,0.955,0.275c2.788-1.769,6.467-1.563,9.858-1.528
						c1.744,0.018,1.944-1.151,1.811-1.819C598.296,144.343,597.903,144.06,597.558,143.876z"/>
					<path style="fill:#FFA830;" d="M610.892,144.845c0.391-0.198,0.817-0.331,1.25-0.398c2.374-0.37,4.723,1.077,5.625,3.275
						c0.186,0.454,0.369,0.982,0.13,1.452c-0.235,0.462-0.728-0.126-0.944-0.307c-0.281-0.234-0.562-0.468-0.875-0.66
						c-0.492-0.301-1.019-0.546-1.566-0.732c-1.094-0.372-2.269-0.508-3.418-0.387c-0.454,0.048-1.206,0.237-1.494-0.248
						c-0.131-0.222-0.128-0.506-0.038-0.747c0.09-0.242,0.259-0.446,0.444-0.625C610.268,145.217,610.568,145.009,610.892,144.845z"
						/>
					<path style="fill:#D5311D;" d="M601.111,157.795c0.201-0.1,0.394-0.122,0.614-0.151c0.209-0.028,0.408-0.08,0.62-0.079
						c0.215,0.001,0.431,0.015,0.645,0.039c-0.055-0.408-0.051-0.833-0.03-1.218c0.038-0.701,0.172-1.41,0.372-2.083
						c0.196-0.658,0.47-1.298,0.809-1.895c0.172-0.302,0.398-0.547,0.615-0.815c0.223-0.275,0.445-0.532,0.74-0.729
						c0.264-0.177,0.529,0.16,0.406,0.406c-0.136,0.271-0.321,0.507-0.482,0.765c-0.172,0.275-0.296,0.573-0.455,0.856
						c-0.306,0.546-0.553,1.121-0.743,1.717c-0.184,0.58-0.307,1.173-0.374,1.777c-0.05,0.451-0.031,0.917-0.059,1.372
						c0.585,0.158,1.139,0.425,1.6,0.821c0.951,0.817,1.263,2.472,0.211,3.35c-0.186,0.155-0.522-0.048-0.362-0.279
						c0.569-0.827,0.141-1.909-0.627-2.44c-0.447-0.309-0.967-0.478-1.503-0.555c-0.309-0.044-0.619-0.056-0.929-0.09
						c-0.181-0.02-0.356-0.071-0.538-0.094c-0.196-0.024-0.351-0.047-0.532-0.131C600.9,158.243,600.909,157.896,601.111,157.795z"
						/>
				</g>
				<path style="fill:#FFA830;" d="M561.589,143.43c0.28,0.07,0.58,0.1,0.9,0.1c0.63,0,1.29-0.01,1.95-0.01
					c0.95-0.01,1.92,0.01,2.88,0.09h0.03c1.37,0.11,2.73,0.35,3.97,0.87c0.2,0.07,0.38,0.16,0.57,0.25c1.4,0.69,2.62,1.82,3.18,3.28
					c0.14,0.36,0.25,0.76,0.52,1.04c0.4,0.43,0.81,0.32,1.2-0.06c0.96-0.49,1.59-1.52,1.91-2.53c0.28-0.89,0.32-1.83,0.42-2.75
					c0.19-0.57,0.4-1.13,0.68-1.66c0.63-1.22,1.58-2.07,2.79-2.71c1.03-0.55,2.13-0.96,3.15-1.51c0.99-0.54,1.89-1.22,2.68-2.02
					c1.54-1.59,2.64-3.61,3.24-5.74c0.48-1.71,0.63-3.51,0.52-5.3c0.03,0.08,0.05,0.17,0.08,0.24c0.48,1.37,1.22,2.6,2.15,3.72
					c1.62,1.95,3.74,3.46,5.92,4.73c2.32,1.34,4.78,2.44,7.32,3.28c2.6,0.86,5.26,1.4,7.97,1.73c0.38,0.05,0.76,0.1,1.14,0.14
					c0.21,0.06,0.43,0.13,0.64,0.19c1.24,0.36,2.87,0.78,3.71,1.82c0.49,0.6,0.7,1.39,1.24,1.96c0.19,0.19,0.41,0.36,0.66,0.42
					c0.83,0.2,1.5-0.87,1.91-1.66c0.09-0.17,0.17-0.33,0.23-0.46c1.02-2.05,0.98-4.5,0.79-6.72c-0.17-1.96-0.62-3.86-1.1-5.75
					c-0.02-0.03-0.03-0.07-0.04-0.11c-0.16-0.4-0.32-0.8-0.49-1.2c-1.42-3.35-3.36-6.46-5.78-9.15c-0.65-0.73-1.34-1.43-2.06-2.09
					c-0.06-0.06-0.14-0.13-0.21-0.19c-1.21-1.1-2.47-2.1-3.79-3.02c-7.68-5.46-16.85-9.11-26.4-8.61c-1.55,0.08-3.54,0.22-5.44,0.58
					c-3.17,0.64-6.17,1.92-6.64,4.71c0,0-1.79,0.13-4.02,1.03c-0.67,0.27-1.36,0.62-2.06,1.04c-0.55,0.33-1.09,0.71-1.62,1.16
					c-0.51,0.42-0.99,0.9-1.45,1.45c-0.52,0.61-1.01,1.3-1.43,2.08c-0.39,0.74-0.78,1.55-1.16,2.43c-0.09,0.19-0.17,0.38-0.24,0.58
					c-0.41,0.97-0.8,1.99-1.15,3.05c-0.09,0.25-0.17,0.5-0.25,0.76c-0.54,1.67-1.02,3.41-1.39,5.15
					C557.609,135.36,557.689,142.52,561.589,143.43z M593.069,123.18c0.05-0.02,0.09-0.02,0.14-0.04c0.07,0.13,0.13,0.25,0.2,0.37
					c1.14,1.78,2.61,3.32,4.17,4.72c1.57,1.4,3.22,2.73,4.9,3.98c1.14,0.85,2.37,1.66,3.7,2.2c0.47,0.27,0.95,0.52,1.44,0.76
					c-2.3-0.79-4.53-1.79-6.65-3.03c-2.11-1.23-4.15-2.64-5.71-4.55c-0.76-0.93-1.38-2-1.81-3.12
					C593.279,124.04,593.169,123.61,593.069,123.18z M584.989,136.66c0.07-0.06,0.15-0.11,0.22-0.17c2.06-1.71,3.72-3.94,4.82-6.38
					c-0.73,2.43-2.1,4.63-4.25,6.07C585.519,136.35,585.259,136.51,584.989,136.66z M580.069,138.45c0.57-0.96,1.29-1.85,2.15-2.68
					c1.16-1.13,2.5-2.07,3.59-3.27c1.21-1.32,2.06-2.88,2.96-4.41c0.16-0.28,0.35-0.61,0.56-0.97c-1.05,3.63-3.35,6.79-6.46,9.09
					C581.919,136.92,580.919,137.62,580.069,138.45z"/>
				<g style="opacity:0.39;">
					<path style="fill:#FFA830;" d="M560.859,122.15c0.15,0.07,0.3,0.13,0.45,0.19c1.39,0.5,3.06,0.56,4.01,1.68
						c0.81,0.97,1,2.61,2.22,2.92c0.4,0.11,0.83,0.02,1.21-0.14c1.25-0.55,2.26-1.95,3.6-1.72c0.45,0.08,0.85,0.35,1.2,0.66
						c1.01,0.87,1.71,2.04,2.57,3.07c0.86,1.03,1.98,1.97,3.32,2.07c0.78,0.06,1.56-0.18,2.28-0.51c2.41-1.12,4.37-3.77,3.72-6.36
						c-0.08-0.33-0.21-0.66-0.45-0.91c-0.43-0.44-1.1-0.52-1.71-0.59c-2.34-0.28-4.63-0.92-6.79-1.86
						c-3.79-1.66-7.18-4.26-9.75-7.51c-0.15-0.19-0.3-0.38-0.45-0.58c-0.51,0.42-0.99,0.9-1.45,1.45c-0.52,0.61-1.01,1.3-1.43,2.08
						c-0.39,0.74-0.78,1.55-1.16,2.43c-0.09,0.19-0.17,0.38-0.24,0.58C561.599,120.07,561.209,121.09,560.859,122.15z"/>
					<path style="fill:#FFA830;" d="M598.529,127c1.14,1.22,2.98,1.75,4.6,1.31c1.42-0.39,2.81-1.46,4.22-1.02
						c0.86,0.27,1.45,1.05,2.16,1.61c1.6,1.27,4.01,1.4,5.74,0.31c0.78-0.49,1.44-1.21,2.34-1.42c0.78-0.19,1.56,0.03,2.35,0.24
						c0.39,0.1,0.79,0.19,1.18,0.22c0.71,0.06,1.42-0.1,2.05-0.4c0.41-0.19,0.8-0.45,1.14-0.75c-1.42-3.35-3.36-6.46-5.78-9.15
						c-0.02,0-0.03,0.01-0.05,0.02c-1.14,0.6-2.31,1.14-3.52,1.6c-0.16,0.06-0.32,0.12-0.48,0.18c-0.81,0.28-1.64,0.54-2.48,0.75
						c-3.79,0.96-7.75,1.11-11.51,2.18c-1.21,0.35-2.57,1-2.76,2.24C597.609,125.68,597.999,126.43,598.529,127z"/>
				</g>
				<g>
					<path style="fill:#B76F5C;" d="M569.301,159.264c-3.939,2.045-7.855-6.403-8.149-12.238c-0.294-5.835,4.126-10.693,8.148-6.242
						C573.322,145.234,573.24,157.219,569.301,159.264z"/>
					<path style="fill:#D5311D;" d="M568.317,154.632c0.416-1.225,0.735-2.415,0.801-3.802c0.065-1.377-0.041-2.759-0.34-4.07
						c-0.313-1.37-0.885-2.675-1.738-3.434c-0.377-0.336-0.791-0.57-1.233-0.636c-0.404-0.061-1.049-0.019-1.297,0.52
						c-0.147,0.318-0.088,0.731,0.157,0.899c0.292,0.2,0.665,0.06,0.984,0.126c0.323,0.067,0.655,0.247,0.932,0.503
						c0.171,0.158,0.324,0.346,0.463,0.554c-0.605,0.207-1.156,0.665-1.579,1.372c-0.255,0.426-0.462,0.942-0.593,1.477
						c-0.072,0.295-0.12,0.606-0.145,0.918c-0.011,0.141-0.018,0.283-0.019,0.425c-0.002,0.23,0.05,0.386,0.128,0.581
						c0.11,0.275,0.448,0.279,0.563,0.011c0.056-0.131,0.113-0.25,0.135-0.404c0.018-0.126,0.023-0.257,0.039-0.384
						c0.025-0.203,0.064-0.395,0.109-0.591c0.102-0.445,0.246-0.848,0.45-1.21c0.349-0.618,0.85-1.078,1.384-1.277
						c0.198,0.492,0.348,1.028,0.461,1.565c0.423,2.024,0.38,4.566-0.168,6.539C567.673,154.8,568.159,155.098,568.317,154.632z"/>
				</g>
			</g>
			<g>
				<g>
					<path style="fill:#B76F5C;" d="M600.015,234.507c-0.099-0.123-0.237-0.223-0.389-0.292c-1.958-0.882-4.2-0.444-6,0.608
						c-1.727,1.01-3.466,2.188-4.997,3.466c-1.505,1.257-2.871,2.753-3.659,4.57c-0.637,1.47-0.832,3.52,1.321,3.497
						c1.963-0.021,3.816-1.367,5.287-2.532c1.743-1.38,3.372-2.898,4.915-4.498c0.761-0.79,1.502-1.599,2.226-2.423
						C599.165,236.396,600.62,235.259,600.015,234.507z"/>
					<g>
						<polygon style="fill:#B23A62;" points="588.484,226.658 590.679,224.158 611.482,242.249 612.834,245.045 609.842,244.058 
													"/>
						<polygon style="fill:#B23A62;" points="588.025,225.868 590.08,223.502 587.06,221.442 585.301,224.001 						"/>
						<polygon points="586.078,227.187 593.146,233.242 594.083,232.295 588.442,227.434 591.812,223.738 589.708,222.272 						"/>
					</g>
					<path style="fill:#B76F5C;" d="M590.77,251.411c-0.724-0.103-1.439-0.23-2.14-0.384c-1.357-0.298-2.475-1.179-3.23-2.328
						c-0.62-0.944-1.174-2.087-1.159-3.242c0.017-1.206,0.841-2.116,1.571-3.001c1.686-2.043,3.831-3.79,6.331-4.707
						c2.906-1.066,5.872-1.587,8.923-2.001c0.149-0.02,0.299-0.04,0.448-0.06c0.835-0.112,1.979-0.142,2.665-0.659
						c0.56-0.421,0.86-1.188,1.671-1.155c1.094,0.044,2.195,0.915,2.936,1.657c0.677,0.678,1.529,1.445,1.81,2.391
						c0.308,1.04-0.38,2.371-0.712,3.347c-0.36,1.058-0.75,2.104-1.17,3.139c-0.574,1.415-1.204,2.817-1.989,4.127
						c-0.68,0.716-1.39,1.4-2.271,1.863c-1.402,0.737-3.095,1.019-4.656,1.165C596.87,251.837,593.745,251.833,590.77,251.411z"/>
				</g>
				<path style="fill:#C0AE8E;" d="M598.859,254.27c-1.13,5.9-49.48,32.11-57.72,26.43c-8.22-5.68-8.16-23.25-5.72-46.75
					c2.41-23.27,9.21-37.91,15.19-42.62c0.32-0.25,0.66-0.47,1-0.65c0.19-0.11,0.39-0.2,0.59-0.29c2.45-1.04,5.27-0.52,7.41,1
					c3.15,2.23,4.65,6.42,4.58,10.82c-0.22,12.67-7.18,47.34-6.33,48.56c0.23,0.34,27.33-17.31,33.99-17.29
					c1.29,0.01,3.39,3.92,4.98,8.52c0.09,0.25,0.18,0.5,0.26,0.76c0.65,1.99,1.2,4.07,1.54,6c0.04,0.21,0.07,0.41,0.11,0.62
					C599.019,251.28,599.099,252.99,598.859,254.27z"/>
				<path style="fill:#62311D;" d="M597.089,242.76c-6.69,5.07-13.51,9.99-20.55,14.57c-4.5,2.93-9.1,5.71-13.84,8.26
					c-2.33,1.26-4.69,2.46-7.08,3.59c-2.4,1.14-4.84,2.35-7.44,2.94c-2.28,0.51-4.74,0.49-6.89-0.53c-1.89-0.91-3.19-2.59-3.95-4.51
					c-0.8-2.02-1.05-4.21-1.2-6.36c-0.18-2.74-0.24-5.49-0.19-8.23c0.19-10.87,2.11-21.65,4.98-32.11
					c2.79-10.14,6.5-20.05,10.68-29.7c0.19-0.11,0.39-0.2,0.59-0.29c-0.37,0.92-0.73,1.84-1.1,2.76
					c-3.99,9.95-7.59,20.09-10.24,30.48c-2.64,10.33-4.27,20.95-4.17,31.63c0.03,2.5,0.09,5.03,0.39,7.51
					c0.26,2.11,0.77,4.3,2.04,6.05c1.42,1.95,3.73,2.85,6.1,2.88c2.72,0.04,5.3-1.01,7.74-2.11c9.46-4.27,18.41-9.62,26.99-15.43
					c4.34-2.94,8.6-6,12.81-9.12c1.36-1.01,2.71-2.03,4.07-3.04C596.919,242.25,597.009,242.5,597.089,242.76z"/>
			</g>
			<g>
				<g>
					<polygon style="fill:#FFB4C0;" points="647.159,224.6 627.489,269.09 587.999,283.63 586.389,281.64 599.689,232.19 
						645.559,222.61 					"/>
					<polygon style="fill:#FFB4C0;" points="647.159,224.6 627.489,269.09 587.999,283.63 601.299,234.19 					"/>
				</g>
				<g>
					<path d="M641.759,222.036c0.306-0.407,0.74-0.699,1.231-0.878c1.018-0.373,2.184-0.066,2.992,0.562
						c1.618,1.257,1.909,3.858,0.638,5.447c-0.703,0.879-1.887,1.358-3.026,1.087c-0.381-0.09-0.288-0.612,0.091-0.632
						c0.928-0.049,1.778-0.629,2.196-1.402c0.424-0.784,0.374-1.753,0.051-2.55c-0.3-0.74-0.96-1.392-1.835-1.471
						c-0.384-0.035-0.779,0.062-1.08,0.299c-0.323,0.254-0.449,0.669-0.766,0.911c-0.224,0.171-0.538,0.172-0.701-0.076
						C641.289,222.932,641.49,222.393,641.759,222.036z"/>
					<path d="M635.493,223.296c0.306-0.408,0.74-0.699,1.231-0.878c1.018-0.373,2.184-0.066,2.992,0.562
						c1.618,1.257,1.909,3.858,0.638,5.447c-0.703,0.879-1.887,1.357-3.026,1.087c-0.381-0.09-0.288-0.612,0.091-0.632
						c0.928-0.049,1.778-0.629,2.196-1.402c0.424-0.784,0.374-1.753,0.051-2.551c-0.3-0.74-0.96-1.392-1.835-1.471
						c-0.384-0.035-0.779,0.062-1.08,0.299c-0.323,0.254-0.449,0.669-0.766,0.911c-0.224,0.171-0.538,0.172-0.701-0.076
						C635.023,224.192,635.225,223.653,635.493,223.296z"/>
					<path d="M629.228,224.591c0.306-0.407,0.74-0.699,1.231-0.878c1.018-0.373,2.184-0.066,2.992,0.562
						c1.618,1.257,1.909,3.858,0.638,5.447c-0.703,0.879-1.887,1.358-3.026,1.087c-0.381-0.09-0.288-0.612,0.091-0.632
						c0.928-0.049,1.778-0.629,2.196-1.402c0.424-0.784,0.374-1.753,0.051-2.55c-0.3-0.74-0.96-1.392-1.835-1.471
						c-0.384-0.035-0.779,0.062-1.08,0.299c-0.323,0.254-0.449,0.669-0.766,0.911c-0.224,0.171-0.538,0.172-0.701-0.076
						C628.758,225.487,628.96,224.948,629.228,224.591z"/>
					<path d="M622.703,225.921c0.307-0.408,0.74-0.699,1.231-0.878c1.018-0.373,2.184-0.066,2.992,0.562
						c1.618,1.257,1.909,3.858,0.638,5.447c-0.703,0.879-1.887,1.357-3.026,1.087c-0.381-0.09-0.288-0.612,0.091-0.632
						c0.928-0.049,1.778-0.629,2.196-1.402c0.424-0.784,0.374-1.753,0.051-2.551c-0.3-0.74-0.96-1.392-1.835-1.471
						c-0.384-0.035-0.779,0.062-1.08,0.299c-0.323,0.254-0.449,0.669-0.766,0.911c-0.224,0.171-0.538,0.172-0.701-0.076
						C622.233,226.816,622.435,226.278,622.703,225.921z"/>
					<path d="M616.438,227.18c0.307-0.407,0.74-0.699,1.231-0.878c1.018-0.373,2.184-0.066,2.992,0.562
						c1.618,1.257,1.909,3.858,0.638,5.447c-0.703,0.879-1.887,1.357-3.026,1.087c-0.381-0.09-0.288-0.612,0.091-0.632
						c0.928-0.049,1.778-0.629,2.196-1.402c0.424-0.784,0.374-1.753,0.051-2.551c-0.3-0.74-0.96-1.392-1.835-1.471
						c-0.384-0.035-0.779,0.062-1.08,0.299c-0.323,0.254-0.449,0.669-0.766,0.911c-0.224,0.171-0.538,0.172-0.7-0.076
						C615.968,228.076,616.169,227.537,616.438,227.18z"/>
					<path d="M610.173,228.475c0.306-0.407,0.74-0.699,1.231-0.878c1.018-0.373,2.184-0.066,2.992,0.561
						c1.618,1.257,1.909,3.858,0.638,5.447c-0.703,0.879-1.886,1.357-3.026,1.087c-0.381-0.09-0.288-0.612,0.091-0.632
						c0.928-0.049,1.778-0.629,2.196-1.402c0.424-0.784,0.374-1.753,0.051-2.551c-0.3-0.74-0.96-1.392-1.835-1.471
						c-0.384-0.035-0.779,0.062-1.08,0.299c-0.323,0.254-0.449,0.669-0.766,0.911c-0.224,0.171-0.538,0.172-0.701-0.076
						C609.703,229.371,609.904,228.832,610.173,228.475z"/>
					<path d="M603.869,229.82c0.306-0.407,0.74-0.699,1.231-0.878c1.018-0.373,2.184-0.066,2.992,0.562
						c1.618,1.257,1.909,3.858,0.638,5.447c-0.703,0.879-1.886,1.358-3.026,1.087c-0.381-0.09-0.288-0.612,0.091-0.632
						c0.928-0.049,1.778-0.629,2.196-1.402c0.424-0.784,0.374-1.753,0.051-2.55c-0.3-0.74-0.96-1.392-1.835-1.471
						c-0.384-0.035-0.779,0.062-1.08,0.299c-0.323,0.254-0.449,0.669-0.766,0.911c-0.224,0.171-0.538,0.172-0.701-0.076
						C603.399,230.716,603.601,230.177,603.869,229.82z"/>
				</g>
			</g>
			<g>
				<path style="fill:#B76F5C;" d="M604.029,273.185c-5.565,0.264-13.423-2.332-17.031-4.698c-3.859-2.448-3.739-3.853-0.768-2.757
					c2.844,0.997,5.996,2.26,6.184,1.662c0.106-0.306-2.359-0.704-5.255-2.644c-3.352-2.249-5.549-4.608-4.56-5.555
					c0.935-0.822,7.786,3.339,10.339,3.86c2.245,1.199-5.796-3.554-7.787-6.858c-2.456-3.29-1.519-5.301,1.933-2.156
					c3.614,2.978,6.696,4.584,7.904,4.575c-0.604-1.057-1.822-1.613-5.392-5.601c-2.463-3.219-1.054-4.865,1.741-2.594
					c3.338,2.808,8.614,6.815,9.744,5.44c0.428-1.214-1.191-1.809-2.458-5.956c-1.133-4.211,1.983-0.33,4.767,2.135
					c2.833,2.738,7.087,3.519,9.738,4.428c3.617,1.287,5.637,0.704,5.601,5.178c-0.047,2.592,0.732,6.641-2.11,9.116
					C614.318,272.759,608.985,273.054,604.029,273.185z"/>
				<g>
					<path style="fill:#C0AE8E;" d="M649.938,262.94c-0.08,0.24-0.18,0.47-0.28,0.69c-0.27,0.59-0.6,1.14-0.99,1.66
						c-0.7,0.98-1.57,1.85-2.49,2.63c-4.49,3.77-27.34,7.96-31.43,6.75c-0.04-0.06-0.08-0.12-0.16-0.17
						c-0.77-0.41-0.77-1.38-0.64-2.24c0.03-0.2,0.06-0.39,0.09-0.57c0.03-0.13,0.06-0.25,0.08-0.36c0.35-1.74,0.64-3.54,0.6-5.32
						c-0.08-3.3-1.41-6.54-3.44-9.12c-0.38-0.47-0.78-0.93-1.21-1.34c-0.71-0.68-0.37-1.88,0.59-2.06
						c5.24-1.02,10.56-1.71,15.84-2.07c4.49-0.31,9.08-0.39,13.54,0.37c3.14,0.54,6.73,1.53,8.83,4.12c0.22,0.28,0.43,0.57,0.6,0.89
						c0.37,0.62,0.63,1.31,0.77,2.07C650.528,260.3,650.398,261.66,649.938,262.94z"/>
				</g>
				<path style="fill:#62311D;" d="M649.658,263.63c-0.27,0.59-0.6,1.14-0.99,1.66c-3.84,2.47-8.29,4.03-12.74,5.03
					c-3.78,0.85-7.64,1.38-11.5,1.69c-2.02,0.17-4.04,0.26-6.07,0.29c-1.47,0.02-2.95,0.05-4.41-0.04c0.03-0.2,0.06-0.39,0.09-0.57
					c1.6-0.04,3.21-0.01,4.8-0.07c2.19-0.07,4.38-0.2,6.56-0.41c7.22-0.68,14.75-2,21.16-5.56
					C647.648,265.04,648.678,264.37,649.658,263.63z"/>
			</g>
		</g>
	</g>
</g>
</svg>
